<?xml version="1.0" encoding="utf-8" standalone="no"?><!DOCTYPE svg PUBLIC "-//W3C//DTD SVG 20010904//EN" "http://www.w3.org/TR/2001/REC-SVG-20010904/DTD/svg10.dtd"><svg xmlns="http://www.w3.org/2000/svg" width="336" height="330" xmlns:xlink="http://www.w3.org/1999/xlink"><source><![CDATA[    participant Echo
    participant Debug
    participant Console
    Console->Debug: 1
    Debug->Echo: 2
    Note over Echo: swap source\nand destination
    Echo->Debug: 3
    Debug->Console: 4

]]></source><desc>Created with Raphaël 2.1.0</desc><defs><path id="raphael-marker-block" d="M5,0 0,2.5 5,5z" stroke-linecap="round"></path><marker refY="2.5" refX="2.5" orient="auto" markerWidth="5" markerHeight="5" id="raphael-marker-endblock55"><use stroke="none" fill="#000" stroke-width="1.0000" transform="rotate(180 2.5 2.5) scale(1,1)" xlink:href="#raphael-marker-block"></use></marker></defs><path stroke-width="2" d="M44.99434230660783,20C90.4019694950816,17.421505240569623,94.01111387818685,22.578494759430377,109.45671129236726,20C111.10040688504783,57.08333254264163,107.81301569968669,61.529328769124646,109.45671129236726,61.09238981701434C73.86934142720523,63.67088457644472,110.03802150704499,58.513895057583966,44.99434230660783,61.09238981701434C43.350646713927254,33.26882727371948,46.6380378992884,41.22492652499834,44.99434230660783,20" stroke="#000000" fill="#ffffff" style=""></path><rect style="" stroke="none" fill="#ffffff" ry="0" rx="0" r="0" height="14.361520167041554" width="44.46236898575943" y="33.3654348249864" x="54.99434230660783"></rect><path d="M56.56782240347837,37.41584388091684C55.72337795903392,35.815843880916844,58.07893351458947,35.593621658694616,59.367822403478364,35.815843880916844C61.32337795903393,35.3713994364724,65.27893351458948,35.46028832536129,67.99004462570059,35.14917721425017C68.12337795903392,35.23806610313906,69.67893351458949,35.63806610313907,70.3011557368117,35.815843880916844C67.05671129236725,36.66028832536129,62.70115573681169,36.74917721425018,59.367822403478364,37.50473276980573C58.96782240347837,37.99362165869462,58.656711292367255,38.92695499202796,58.47893351458948,40.21584388091684C60.034489070145035,40.70473276980573,64.3900446257006,39.94917721425018,66.61226684792283,40.349177214250176C66.65671129236725,40.61584388091684,66.7011557368117,40.66028832536129,66.74560018125615,40.971399436472396C64.7011557368117,42.038066103139066,61.501155736811704,41.682510547583504,58.16782240347836,42.1713994364724C57.501155736811704,42.74917721425018,57.19004462570059,44.482510547583516,57.19004462570059,45.104732769805736C59.85671129236726,45.14917721425017,62.56782240347837,44.215843880916836,65.54560018125613,44.215843880916836C66.52337795903392,44.66028832536129,67.90115573681169,43.90473276980573,68.83448907014503,44.438066103139064C69.54560018125613,45.726954992027956,67.81226684792281,45.593621658694616,66.92337795903393,45.86028832536128C63.67893351458948,46.03806610313906,60.745600181256144,46.438066103139064,57.32337795903393,47.060288325361284C57.32337795903393,47.060288325361284,55.01226684792281,46.61584388091684,55.01226684792281,46.61584388091684C54.83448907014503,45.63806610313907,56.034489070145035,43.54917721425018,56.16782240347836,42.26028832536129C56.034489070145035,42.26028832536129,55.72337795903392,41.593621658694616,55.63448907014503,41.193621658694624C56.523377959033915,40.66028832536129,57.14560018125615,40.1713994364724,57.19004462570059,38.21584388091684C57.278933514589475,38.1713994364724,57.412266847922815,37.99362165869462,57.412266847922815,37.90473276980573C57.412266847922815,37.726954992027956,56.790044625700595,37.41584388091684,56.56782240347837,37.41584388091684C56.56782240347837,37.41584388091684,56.56782240347837,37.41584388091684,56.56782240347837,37.41584388091684M75.94560018125614,41.682510547583504C77.23448907014503,41.3713994364724,77.59004462570059,42.971399436472396,76.47893351458947,43.14917721425017C75.27893351458948,42.971399436472396,74.7011557368117,43.41584388091684,72.96782240347835,44.26028832536129C72.6122668479228,44.438066103139064,72.3900446257006,44.74917721425018,72.25671129236724,45.23806610313906C73.59004462570059,46.66028832536129,76.3011557368117,45.3713994364724,78.21226684792282,45.726954992027956C78.43448907014502,46.30473276980574,77.85671129236724,46.88251054758351,77.23448907014503,46.571399436472404C74.96782240347835,47.682510547583504,71.05671129236725,47.815843880916844,70.56782240347837,45.23806610313906C70.83448907014503,43.01584388091685,73.63448907014504,41.593621658694616,75.94560018125614,41.682510547583504C75.94560018125614,41.682510547583504,75.94560018125614,41.682510547583504,75.94560018125614,41.682510547583504M83.32337795903393,33.3713994364724C83.81226684792281,33.28251054758351,83.76782240347836,34.21584388091684,83.81226684792281,34.26028832536129C83.32337795903393,36.571399436472404,82.03448907014504,40.1713994364724,81.45671129236726,42.66028832536129C81.19004462570061,43.99362165869462,81.05671129236725,44.30473276980574,81.05671129236725,44.74917721425018C82.25671129236727,44.74917721425018,86.0789335145895,43.23806610313906,87.41226684792281,43.23806610313906C89.27893351458948,43.23806610313906,88.7900446257006,45.32695499202795,89.14560018125616,46.74917721425018C89.14560018125616,46.92695499202796,88.92337795903393,47.50473276980573,88.43448907014505,47.46028832536129C88.61226684792283,47.54917721425018,88.92337795903393,47.593621658694616,88.61226684792283,47.726954992027956C87.54560018125616,47.682510547583504,87.36782240347839,46.21584388091685,87.50115573681171,44.88251054758351C87.45671129236726,44.83806610313907,87.41226684792281,44.74917721425018,87.27893351458948,44.66028832536129C85.01226684792283,44.66028832536129,82.3900446257006,46.349177214250176,80.0789335145895,46.92695499202796C79.67893351458949,46.971399436472396,79.41226684792281,46.26028832536129,79.36782240347839,45.90473276980573C80.12337795903392,41.94917721425018,81.1011557368117,39.63806610313907,82.52337795903392,34.1713994364724C82.52337795903392,33.77139943647239,82.7900446257006,33.32695499202795,83.32337795903393,33.3713994364724C83.32337795903393,33.3713994364724,83.32337795903393,33.3713994364724,83.32337795903393,33.3713994364724M94.83448907014503,40.971399436472396C97.14560018125616,39.90473276980573,99.45671129236726,41.77139943647239,99.45671129236726,43.77139943647239C99.45671129236726,46.39362165869463,96.52337795903392,46.74917721425018,94.3900446257006,47.46028832536129C92.0789335145895,47.3713994364724,89.27893351458948,45.23806610313906,90.83448907014503,42.79362165869462C91.85671129236727,41.99362165869462,93.14560018125616,41.23806610313906,94.83448907014503,40.971399436472396C94.83448907014503,40.971399436472396,94.83448907014503,40.971399436472396,94.83448907014503,40.971399436472396M92.03448907014504,44.482510547583516C92.74560018125615,46.88251054758351,97.59004462570059,45.193621658694624,97.85671129236727,43.46028832536129C97.32337795903393,40.83806610313907,92.12337795903392,43.104732769805736,92.03448907014504,44.482510547583516C92.03448907014504,44.482510547583516,92.03448907014504,44.482510547583516,92.03448907014504,44.482510547583516" stroke="none" fill="#000000" style=""></path><path stroke-width="2" d="M44.99434230660783,269.85466904649394C105.96910113770218,267.27617428706355,82.0103536126462,272.4331638059243,109.45671129236726,269.85466904649394C107.81301569968669,293.5731490586989,111.10040688504783,286.53701483159875,109.45671129236726,310.9470588635083C75.76383887384658,308.3685641040779,70.82174310073003,313.5255536229387,44.99434230660783,310.9470588635083C43.350646713927254,311.1865175118688,46.6380378992884,293.82984377344667,44.99434230660783,269.85466904649394" stroke="#000000" fill="#ffffff" style=""></path><rect style="" stroke="none" fill="#ffffff" ry="0" rx="0" r="0" height="14.361520167041647" width="44.46236898575943" y="283.22010387148026" x="54.99434230660783"></rect><path d="M56.56782240347837,287.2705129274108C55.72337795903392,285.67051292741075,58.07893351458947,285.4482907051886,59.367822403478364,285.67051292741075C61.32337795903393,285.2260684829663,65.27893351458948,285.31495737185526,67.99004462570059,285.0038462607441C68.12337795903392,285.092735149633,69.67893351458949,285.49273514963295,70.3011557368117,285.67051292741075C67.05671129236725,286.5149573718552,62.70115573681169,286.60384626074415,59.367822403478364,287.3594018162996C58.96782240347837,287.84829070518856,58.656711292367255,288.78162403852184,58.47893351458948,290.07051292741073C60.034489070145035,290.55940181629967,64.3900446257006,289.8038462607441,66.61226684792283,290.20384626074406C66.65671129236725,290.4705129274107,66.7011557368117,290.5149573718552,66.74560018125615,290.8260684829663C64.7011557368117,291.89273514963304,61.501155736811704,291.53717959407743,58.16782240347836,292.02606848296637C57.501155736811704,292.60384626074415,57.19004462570059,294.3371795940774,57.19004462570059,294.95940181629965C59.85671129236726,295.0038462607441,62.56782240347837,294.07051292741073,65.54560018125613,294.07051292741073C66.52337795903392,294.5149573718552,67.90115573681169,293.7594018162996,68.83448907014503,294.292735149633C69.54560018125613,295.5816240385219,67.81226684792281,295.4482907051886,66.92337795903393,295.71495737185523C63.67893351458948,295.89273514963304,60.745600181256144,296.292735149633,57.32337795903393,296.91495737185517C57.32337795903393,296.91495737185517,55.01226684792281,296.4705129274107,55.01226684792281,296.4705129274107C54.83448907014503,295.49273514963295,56.034489070145035,293.4038462607441,56.16782240347836,292.1149573718552C56.034489070145035,292.1149573718552,55.72337795903392,291.4482907051886,55.63448907014503,291.0482907051885C56.523377959033915,290.5149573718552,57.14560018125615,290.02606848296637,57.19004462570059,288.07051292741073C57.278933514589475,288.02606848296637,57.412266847922815,287.84829070518856,57.412266847922815,287.7594018162996C57.412266847922815,287.5816240385219,56.790044625700595,287.2705129274108,56.56782240347837,287.2705129274108C56.56782240347837,287.2705129274108,56.56782240347837,287.2705129274108,56.56782240347837,287.2705129274108M75.94560018125614,291.53717959407743C77.23448907014503,291.2260684829663,77.59004462570059,292.8260684829663,76.47893351458947,293.0038462607441C75.27893351458948,292.8260684829663,74.7011557368117,293.2705129274108,72.96782240347835,294.1149573718552C72.6122668479228,294.292735149633,72.3900446257006,294.60384626074415,72.25671129236724,295.092735149633C73.59004462570059,296.5149573718552,76.3011557368117,295.2260684829663,78.21226684792282,295.5816240385219C78.43448907014502,296.1594018162997,77.85671129236724,296.7371795940775,77.23448907014503,296.42606848296634C74.96782240347835,297.53717959407743,71.05671129236725,297.67051292741075,70.56782240347837,295.092735149633C70.83448907014503,292.8705129274108,73.63448907014504,291.4482907051886,75.94560018125614,291.53717959407743C75.94560018125614,291.53717959407743,75.94560018125614,291.53717959407743,75.94560018125614,291.53717959407743M83.32337795903393,283.2260684829663C83.81226684792281,283.13717959407745,83.76782240347836,284.07051292741073,83.81226684792281,284.1149573718552C83.32337795903393,286.42606848296634,82.03448907014504,290.02606848296637,81.45671129236726,292.5149573718552C81.19004462570061,293.84829070518856,81.05671129236725,294.1594018162997,81.05671129236725,294.60384626074415C82.25671129236727,294.60384626074415,86.0789335145895,293.092735149633,87.41226684792281,293.092735149633C89.27893351458948,293.092735149633,88.7900446257006,295.18162403852193,89.14560018125616,296.60384626074415C89.14560018125616,296.78162403852184,88.92337795903393,297.3594018162996,88.43448907014505,297.31495737185526C88.61226684792283,297.4038462607441,88.92337795903393,297.4482907051886,88.61226684792283,297.5816240385219C87.54560018125616,297.53717959407743,87.36782240347839,296.07051292741073,87.50115573681171,294.7371795940775C87.45671129236726,294.692735149633,87.41226684792281,294.60384626074415,87.27893351458948,294.5149573718552C85.01226684792283,294.5149573718552,82.3900446257006,296.20384626074406,80.0789335145895,296.78162403852184C79.67893351458949,296.8260684829663,79.41226684792281,296.1149573718552,79.36782240347839,295.7594018162996C80.12337795903392,291.8038462607441,81.1011557368117,289.49273514963295,82.52337795903392,284.02606848296637C82.52337795903392,283.6260684829663,82.7900446257006,283.18162403852193,83.32337795903393,283.2260684829663C83.32337795903393,283.2260684829663,83.32337795903393,283.2260684829663,83.32337795903393,283.2260684829663M94.83448907014503,290.8260684829663C97.14560018125616,289.7594018162996,99.45671129236726,291.6260684829663,99.45671129236726,293.6260684829663C99.45671129236726,296.24829070518854,96.52337795903392,296.60384626074415,94.3900446257006,297.31495737185526C92.0789335145895,297.2260684829663,89.27893351458948,295.092735149633,90.83448907014503,292.6482907051885C91.85671129236727,291.84829070518856,93.14560018125616,291.092735149633,94.83448907014503,290.8260684829663C94.83448907014503,290.8260684829663,94.83448907014503,290.8260684829663,94.83448907014503,290.8260684829663M92.03448907014504,294.3371795940774C92.74560018125615,296.7371795940775,97.59004462570059,295.0482907051885,97.85671129236727,293.31495737185526C97.32337795903393,290.692735149633,92.12337795903392,292.95940181629965,92.03448907014504,294.3371795940774C92.03448907014504,294.3371795940774,92.03448907014504,294.3371795940774,92.03448907014504,294.3371795940774" stroke="none" fill="#000000" style=""></path><path stroke-width="2" d="M77.22552679948754,61.09238981701435C68.87503563030836,75.81285509367235,85.57601796866672,225.5147646671322,77.22552679948754,269.85466904649394" stroke="#000000" fill="none" style=""></path><path stroke-width="2" d="M129.45671129236726,20C135.02674654882503,22.89777777777778,157.42401725986952,17.10222222222222,201.90115573681172,20C200.25746014413113,41.33922893177266,203.5448513294923,27.808482862706,201.90115573681172,61.09238981701434C136.9057536802307,63.99016759479212,196.5535511099967,58.19461203923657,129.45671129236726,61.09238981701434C127.81301569968669,61.537278360219936,131.10040688504785,33.708196691569015,129.45671129236726,20" stroke="#000000" fill="#ffffff" style=""></path><rect style="" stroke="none" fill="#ffffff" ry="0" rx="0" r="0" height="21.092389817014347" width="52.4444444444444" y="30.000000000000004" x="139.4567112923673"></rect><path d="M153.14560018125616,39.5493268932721C153.05671129236725,39.59377133771655,153.01226684792283,39.86043800438321,152.7011557368117,39.771549115494324C152.9678224034784,39.63821578216099,153.14560018125616,39.59377133771655,153.14560018125616,39.5493268932721C153.14560018125616,39.5493268932721,153.14560018125616,39.5493268932721,153.14560018125616,39.5493268932721M139.4567112923673,31.815993559938768C139.5456001812562,30.615993559938772,143.14560018125616,30.127104671049885,144.1678224034784,30.08266022660544C149.94560018125617,29.771549115494324,156.03448907014507,30.127104671049885,157.10115573681173,34.92710467104988C157.10115573681173,34.92710467104988,157.01226684792283,35.28266022660544,156.9678224034784,36.038215782161C156.74560018125618,36.438215782160995,156.7900446257006,37.28266022660544,155.94560018125617,37.5493268932721C155.76782240347836,37.72710467104989,155.85671129236727,37.77154911549433,155.63448907014504,37.5493268932721C155.5011557368117,37.682660226605435,154.9678224034784,37.86043800438322,155.4122668479228,37.99377133771655C155.4122668479228,37.99377133771655,154.9678224034784,38.61599355993877,154.83448907014503,38.08266022660544C154.34560018125615,38.127104671049885,154.47893351458947,38.30488244882766,153.94560018125617,38.70488244882766C153.9900446257006,38.79377133771655,154.2567112923673,38.838215782160994,154.34560018125615,38.749326893272105C154.1678224034784,39.32710467104988,153.36782240347839,39.32710467104988,153.85671129236727,38.92710467104988C153.85671129236727,38.79377133771655,153.90115573681175,38.66043800438322,153.72337795903394,38.70488244882766C151.94560018125617,39.993771337716545,149.14560018125616,40.39377133771655,147.4567112923673,41.59377133771655C147.90115573681175,41.86043800438321,148.43448907014505,41.28266022660544,148.9678224034784,41.460438004383214C147.14560018125616,42.34932689327211,143.32337795903396,43.41599355993877,141.36782240347839,43.50488244882766C140.43448907014505,43.5493268932721,139.27893351458948,42.038215782161,140.8789335145895,41.771549115494324C141.5456001812562,41.682660226605435,142.7900446257006,41.50488244882766,143.36782240347839,41.28266022660544C142.65671129236728,36.79377133771655,143.14560018125616,35.50488244882766,143.76782240347836,32.08266022660544C143.85671129236727,32.08266022660544,143.94560018125617,32.038215782161,144.03448907014507,31.949326893272108C143.32337795903396,31.193771337716548,139.9900446257006,33.63821578216099,139.4567112923673,31.815993559938768C139.4567112923673,31.815993559938768,139.4567112923673,31.815993559938768,139.4567112923673,31.815993559938768M152.47893351458947,39.9493268932721C152.1678224034784,40.082660226605434,151.72337795903394,40.30488244882766,151.36782240347839,40.26043800438322C151.4122668479228,40.30488244882766,151.5011557368117,40.34932689327211,151.5900446257006,40.34932689327211C151.4122668479228,40.438215782160995,151.10115573681173,40.57154911549433,150.56782240347837,40.749326893272105C150.74560018125618,40.26043800438322,151.90115573681175,39.81599355993877,152.47893351458947,39.9493268932721C152.47893351458947,39.9493268932721,152.47893351458947,39.9493268932721,152.47893351458947,39.9493268932721M149.94560018125617,40.749326893272105C150.39004462570063,40.749326893272105,150.47893351458947,40.838215782160994,149.94560018125617,41.01599355993877C149.94560018125617,41.01599355993877,149.94560018125617,40.749326893272105,149.94560018125617,40.749326893272105C149.94560018125617,40.749326893272105,149.94560018125617,40.749326893272105,149.94560018125617,40.749326893272105M149.05671129236725,41.41599355993877C149.01226684792283,41.28266022660544,149.23448907014506,41.149326893272104,149.32337795903396,41.28266022660544C149.32337795903396,41.32710467104988,149.23448907014506,41.32710467104988,149.05671129236725,41.41599355993877C149.05671129236725,41.41599355993877,149.05671129236725,41.41599355993877,149.05671129236725,41.41599355993877M144.83448907014503,40.88266022660544C145.5456001812562,41.149326893272104,150.92337795903393,38.838215782160994,151.72337795903394,38.527104671049884C153.01226684792283,37.72710467104989,156.21226684792282,36.57154911549433,155.36782240347839,34.39377133771655C154.43448907014505,32.038215782161,151.63448907014504,31.682660226605435,147.90115573681175,31.41599355993877C147.01226684792283,31.72710467104988,145.67893351458952,31.549326893272102,144.47893351458947,31.771549115494324C145.94560018125617,34.17154911549433,143.94560018125617,37.63821578216099,144.83448907014503,40.88266022660544C144.83448907014503,40.88266022660544,144.83448907014503,40.88266022660544,144.83448907014503,40.88266022660544M146.34560018125615,42.038215782161C146.1678224034784,41.993771337716545,145.67893351458952,41.81599355993877,145.67893351458952,42.127104671049885C145.9900446257006,42.08266022660544,146.21226684792282,42.038215782161,146.34560018125615,42.038215782161C146.34560018125615,42.038215782161,146.34560018125615,42.038215782161,146.34560018125615,42.038215782161M156.39004462570063,40.48266022660544C156.39004462570063,37.904882448827664,158.65671129236728,37.32710467104988,161.27893351458948,37.19377133771655C162.74560018125618,37.149326893272104,163.27893351458948,37.904882448827664,163.90115573681175,38.749326893272105C163.94560018125617,39.371549115494325,163.9900446257006,40.48266022660544,163.5900446257006,40.61599355993877C162.52337795903395,40.527104671049884,160.34560018125615,41.19377133771655,159.19004462570064,41.10488244882766C159.10115573681173,41.19377133771655,159.10115573681173,41.23821578216099,159.10115573681173,41.23821578216099C159.10115573681173,41.371549115494325,159.63448907014504,41.59377133771655,160.74560018125618,41.90488244882766C161.67893351458952,41.90488244882766,163.81226684792284,42.30488244882766,162.12337795903392,42.88266022660544C161.72337795903394,43.50488244882766,160.61226684792285,43.149326893272104,159.63448907014504,43.149326893272104C158.43448907014505,42.92710467104988,156.39004462570063,41.90488244882766,156.39004462570063,40.48266022660544C156.39004462570063,40.48266022660544,156.39004462570063,40.48266022660544,156.39004462570063,40.48266022660544M161.67893351458952,38.48266022660544C160.7011557368117,38.57154911549433,158.65671129236728,38.70488244882766,158.7900446257006,39.63821578216099C159.85671129236727,39.5493268932721,161.72337795903394,39.86043800438321,162.30115573681172,39.371549115494325C162.0789335145895,38.79377133771655,162.2567112923673,38.79377133771655,161.67893351458952,38.48266022660544C161.67893351458952,38.48266022660544,161.67893351458952,38.48266022660544,161.67893351458952,38.48266022660544M167.85671129236727,36.79377133771655C170.92337795903399,36.838215782160994,173.32337795903396,36.79377133771655,173.81226684792284,39.10488244882766C174.03448907014507,40.26043800438322,170.65671129236728,42.26043800438322,169.5011557368117,42.215993559938774C169.01226684792283,42.70488244882766,165.5900446257006,43.19377133771655,165.32337795903396,43.19377133771655C164.83448907014508,43.060438004383215,164.1678224034784,42.39377133771655,165.0567112923673,42.127104671049885C165.90115573681175,41.90488244882766,164.9678224034784,41.28266022660544,165.01226684792283,40.57154911549433C165.0567112923673,39.771549115494324,165.5011557368117,38.97154911549433,164.7900446257006,38.48266022660544C164.52337795903395,37.72710467104989,164.52337795903395,37.5493268932721,165.41226684792287,37.060438004383215C165.67893351458952,35.060438004383215,166.21226684792282,33.10488244882766,166.65671129236728,31.549326893272102C166.74560018125618,31.238215782160992,167.01226684792283,31.01599355993877,167.41226684792287,30.882660226605438C167.6344890701451,31.01599355993877,167.85671129236727,31.371549115494325,168.12337795903397,32.127104671049885C167.5900446257006,33.32710467104988,167.5456001812562,34.92710467104988,167.10115573681173,36.39377133771655C167.10115573681173,36.66043800438322,167.36782240347839,36.79377133771655,167.85671129236727,36.79377133771655C167.85671129236727,36.79377133771655,167.85671129236727,36.79377133771655,167.85671129236727,36.79377133771655M168.1678224034784,38.26043800438322C166.39004462570063,37.86043800438322,166.7900446257006,39.63821578216099,166.43448907014505,40.66043800438322C166.7900446257006,41.32710467104988,166.43448907014505,41.771549115494324,166.9678224034784,41.63821578216099C168.30115573681172,41.28266022660544,169.6344890701451,40.838215782160994,170.8789335145895,40.215993559938774C172.61226684792285,39.41599355993877,173.0567112923673,38.749326893272105,170.83448907014508,38.34932689327211C169.94560018125617,38.17154911549433,168.83448907014508,38.038215782161,168.1678224034784,38.26043800438322C168.1678224034784,38.26043800438322,168.1678224034784,38.26043800438322,168.1678224034784,38.26043800438322M183.14560018125616,36.97154911549433C183.10115573681173,36.88266022660544,183.6344890701451,36.34932689327211,183.76782240347842,36.39377133771655C184.03448907014507,36.39377133771655,184.21226684792288,36.70488244882766,184.21226684792288,37.371549115494325C184.0789335145895,39.149326893272104,183.19004462570064,39.86043800438321,182.43448907014505,41.01599355993877C181.85671129236727,41.86043800438321,179.67893351458952,42.92710467104988,178.30115573681172,42.92710467104988C175.32337795903396,42.838215782160994,173.36782240347839,39.59377133771655,175.14560018125616,37.01599355993877C176.30115573681172,36.88266022660544,176.0789335145895,38.30488244882766,175.99004462570065,39.19377133771655C175.94560018125617,40.39377133771655,177.14560018125616,41.149326893272104,178.52337795903395,41.060438004383215C180.3456001812562,40.97154911549433,182.65671129236728,38.61599355993877,183.14560018125616,36.97154911549433C183.14560018125616,36.97154911549433,183.14560018125616,36.97154911549433,183.14560018125616,36.97154911549433M190.56782240347837,38.70488244882766C191.9011557368117,39.90488244882766,191.5011557368117,42.038215782161,191.9011557368117,43.90488244882766C191.36782240347839,45.28266022660544,191.4122668479228,46.838215782160994,190.30115573681172,48.48266022660544C188.8789335145895,50.527104671049884,185.63448907014504,52.17154911549433,182.8789335145895,50.215993559938774C181.5011557368117,49.28266022660544,180.7011557368117,48.92710467104988,180.6122668479228,46.88266022660544C180.52337795903395,45.23821578216099,184.03448907014507,44.66043800438322,185.9900446257006,44.34932689327211C187.63448907014504,44.08266022660544,189.01226684792283,43.90488244882766,190.21226684792282,43.86043800438321C190.52337795903395,43.59377133771655,190.34560018125615,42.438215782160995,190.39004462570063,41.81599355993877C190.39004462570063,41.81599355993877,190.34560018125615,41.86043800438321,190.34560018125615,41.90488244882766C190.34560018125615,41.10488244882766,190.12337795903392,40.527104671049884,189.72337795903394,39.90488244882766C187.76782240347836,40.127104671049885,186.21226684792282,40.79377133771655,185.54560018125613,39.10488244882766C185.67893351458952,36.70488244882766,188.7900446257006,36.70488244882766,191.10115573681173,36.88266022660544C191.63448907014504,37.19377133771655,191.63448907014504,37.460438004383214,191.27893351458948,37.99377133771655C189.94560018125617,37.50488244882766,187.9011557368117,38.34932689327211,187.27893351458948,38.88266022660544C188.30115573681172,39.01599355993877,189.5011557368117,38.17154911549433,190.56782240347837,38.70488244882766C190.56782240347837,38.70488244882766,190.56782240347837,38.70488244882766,190.56782240347837,38.70488244882766M183.19004462570058,48.39377133771655C185.85671129236727,50.749326893272105,190.65671129236728,48.438215782160995,190.25671129236724,44.57154911549433C188.1678224034784,44.26043800438322,186.12337795903392,45.63821578216099,183.94560018125617,45.90488244882766C183.4122668479228,46.215993559938774,181.94560018125617,46.749326893272105,182.0789335145895,47.19377133771655C182.0789335145895,47.63821578216099,182.43448907014505,48.038215782161,183.19004462570058,48.39377133771655C183.19004462570058,48.39377133771655,183.19004462570058,48.39377133771655,183.19004462570058,48.39377133771655" stroke="none" fill="#000000" style=""></path><path stroke-width="2" d="M129.45671129236726,269.85466904649394C176.5724899113675,272.7524468242717,168.96832777272985,266.95689126871616,201.90115573681172,269.85466904649394C200.25746014413113,304.9256668777943,203.5448513294923,299.7925231752064,201.90115573681172,310.9470588635083C172.03637022197253,313.84483664128607,157.02799059849687,308.0492810857305,129.45671129236726,310.9470588635083C127.81301569968669,272.2176661587523,131.10040688504785,283.8201085506953,129.45671129236726,269.85466904649394" stroke="#000000" fill="#ffffff" style=""></path><rect style="" stroke="none" fill="#ffffff" ry="0" rx="0" r="0" height="21.09238981701435" width="52.4444444444444" y="279.854669046494" x="139.4567112923673"></rect><path d="M153.14560018125616,289.4039959397661C153.05671129236725,289.4484403842105,153.01226684792283,289.7151070508772,152.7011557368117,289.6262181619883C152.9678224034784,289.49288482865495,153.14560018125616,289.4484403842105,153.14560018125616,289.4039959397661C153.14560018125616,289.4039959397661,153.14560018125616,289.4039959397661,153.14560018125616,289.4039959397661M139.4567112923673,281.67066260643276C139.5456001812562,280.47066260643277,143.14560018125616,279.98177371754383,144.1678224034784,279.9373292730994C149.94560018125617,279.6262181619883,156.03448907014507,279.98177371754383,157.10115573681173,284.78177371754384C157.10115573681173,284.78177371754384,157.01226684792283,285.1373292730994,156.9678224034784,285.892884828655C156.74560018125618,286.29288482865496,156.7900446257006,287.1373292730994,155.94560018125617,287.4039959397661C155.76782240347836,287.58177371754385,155.85671129236727,287.6262181619883,155.63448907014504,287.4039959397661C155.5011557368117,287.53732927309943,154.9678224034784,287.7151070508772,155.4122668479228,287.8484403842105C155.4122668479228,287.8484403842105,154.9678224034784,288.47066260643277,154.83448907014503,287.9373292730994C154.34560018125615,287.98177371754383,154.47893351458947,288.15955149532164,153.94560018125617,288.5595514953216C153.9900446257006,288.6484403842105,154.2567112923673,288.69288482865494,154.34560018125615,288.6039959397661C154.1678224034784,289.1817737175439,153.36782240347839,289.1817737175439,153.85671129236727,288.78177371754384C153.85671129236727,288.6484403842105,153.90115573681175,288.5151070508772,153.72337795903394,288.5595514953216C151.94560018125617,289.8484403842105,149.14560018125616,290.24844038421054,147.4567112923673,291.4484403842105C147.90115573681175,291.7151070508772,148.43448907014505,291.1373292730994,148.9678224034784,291.3151070508772C147.14560018125616,292.20399593976606,143.32337795903396,293.2706626064327,141.36782240347839,293.3595514953216C140.43448907014505,293.4039959397661,139.27893351458948,291.892884828655,140.8789335145895,291.6262181619883C141.5456001812562,291.53732927309943,142.7900446257006,291.3595514953216,143.36782240347839,291.1373292730994C142.65671129236728,286.6484403842105,143.14560018125616,285.3595514953216,143.76782240347836,281.9373292730994C143.85671129236727,281.9373292730994,143.94560018125617,281.892884828655,144.03448907014507,281.8039959397661C143.32337795903396,281.04844038421055,139.9900446257006,283.49288482865495,139.4567112923673,281.67066260643276C139.4567112923673,281.67066260643276,139.4567112923673,281.67066260643276,139.4567112923673,281.67066260643276M152.47893351458947,289.8039959397661C152.1678224034784,289.9373292730994,151.72337795903394,290.15955149532164,151.36782240347839,290.1151070508772C151.4122668479228,290.15955149532164,151.5011557368117,290.20399593976606,151.5900446257006,290.20399593976606C151.4122668479228,290.29288482865496,151.10115573681173,290.4262181619883,150.56782240347837,290.6039959397661C150.74560018125618,290.1151070508772,151.90115573681175,289.67066260643276,152.47893351458947,289.8039959397661C152.47893351458947,289.8039959397661,152.47893351458947,289.8039959397661,152.47893351458947,289.8039959397661M149.94560018125617,290.6039959397661C150.39004462570063,290.6039959397661,150.47893351458947,290.69288482865494,149.94560018125617,290.87066260643275C149.94560018125617,290.87066260643275,149.94560018125617,290.6039959397661,149.94560018125617,290.6039959397661C149.94560018125617,290.6039959397661,149.94560018125617,290.6039959397661,149.94560018125617,290.6039959397661M149.05671129236725,291.2706626064327C149.01226684792283,291.1373292730994,149.23448907014506,291.00399593976607,149.32337795903396,291.1373292730994C149.32337795903396,291.1817737175439,149.23448907014506,291.1817737175439,149.05671129236725,291.2706626064327C149.05671129236725,291.2706626064327,149.05671129236725,291.2706626064327,149.05671129236725,291.2706626064327M144.83448907014503,290.7373292730994C145.5456001812562,291.00399593976607,150.92337795903393,288.69288482865494,151.72337795903394,288.38177371754387C153.01226684792283,287.58177371754385,156.21226684792282,286.4262181619883,155.36782240347839,284.24844038421054C154.43448907014505,281.892884828655,151.63448907014504,281.53732927309943,147.90115573681175,281.2706626064327C147.01226684792283,281.58177371754385,145.67893351458952,281.4039959397661,144.47893351458947,281.6262181619883C145.94560018125617,284.0262181619883,143.94560018125617,287.49288482865495,144.83448907014503,290.7373292730994C144.83448907014503,290.7373292730994,144.83448907014503,290.7373292730994,144.83448907014503,290.7373292730994M146.34560018125615,291.892884828655C146.1678224034784,291.8484403842105,145.67893351458952,291.67066260643276,145.67893351458952,291.98177371754383C145.9900446257006,291.9373292730994,146.21226684792282,291.892884828655,146.34560018125615,291.892884828655C146.34560018125615,291.892884828655,146.34560018125615,291.892884828655,146.34560018125615,291.892884828655M156.39004462570063,290.3373292730994C156.39004462570063,287.75955149532166,158.65671129236728,287.1817737175439,161.27893351458948,287.04844038421055C162.74560018125618,287.00399593976607,163.27893351458948,287.75955149532166,163.90115573681175,288.6039959397661C163.94560018125617,289.2262181619883,163.9900446257006,290.3373292730994,163.5900446257006,290.47066260643277C162.52337795903395,290.38177371754387,160.34560018125615,291.04844038421055,159.19004462570064,290.95955149532165C159.10115573681173,291.04844038421055,159.10115573681173,291.092884828655,159.10115573681173,291.092884828655C159.10115573681173,291.2262181619883,159.63448907014504,291.4484403842105,160.74560018125618,291.75955149532166C161.67893351458952,291.75955149532166,163.81226684792284,292.15955149532164,162.12337795903392,292.7373292730994C161.72337795903394,293.3595514953216,160.61226684792285,293.00399593976607,159.63448907014504,293.00399593976607C158.43448907014505,292.78177371754384,156.39004462570063,291.75955149532166,156.39004462570063,290.3373292730994C156.39004462570063,290.3373292730994,156.39004462570063,290.3373292730994,156.39004462570063,290.3373292730994M161.67893351458952,288.3373292730994C160.7011557368117,288.4262181619883,158.65671129236728,288.5595514953216,158.7900446257006,289.49288482865495C159.85671129236727,289.4039959397661,161.72337795903394,289.7151070508772,162.30115573681172,289.2262181619883C162.0789335145895,288.6484403842105,162.2567112923673,288.6484403842105,161.67893351458952,288.3373292730994C161.67893351458952,288.3373292730994,161.67893351458952,288.3373292730994,161.67893351458952,288.3373292730994M167.85671129236727,286.6484403842105C170.92337795903399,286.69288482865494,173.32337795903396,286.6484403842105,173.81226684792284,288.95955149532165C174.03448907014507,290.1151070508772,170.65671129236728,292.1151070508772,169.5011557368117,292.07066260643273C169.01226684792283,292.5595514953216,165.5900446257006,293.04844038421055,165.32337795903396,293.04844038421055C164.83448907014508,292.91510705087717,164.1678224034784,292.24844038421054,165.0567112923673,291.98177371754383C165.90115573681175,291.75955149532166,164.9678224034784,291.1373292730994,165.01226684792283,290.4262181619883C165.0567112923673,289.6262181619883,165.5011557368117,288.8262181619883,164.7900446257006,288.3373292730994C164.52337795903395,287.58177371754385,164.52337795903395,287.4039959397661,165.41226684792287,286.91510705087717C165.67893351458952,284.91510705087717,166.21226684792282,282.95955149532165,166.65671129236728,281.4039959397661C166.74560018125618,281.092884828655,167.01226684792283,280.87066260643275,167.41226684792287,280.7373292730994C167.6344890701451,280.87066260643275,167.85671129236727,281.2262181619883,168.12337795903397,281.98177371754383C167.5900446257006,283.1817737175439,167.5456001812562,284.78177371754384,167.10115573681173,286.24844038421054C167.10115573681173,286.5151070508772,167.36782240347839,286.6484403842105,167.85671129236727,286.6484403842105C167.85671129236727,286.6484403842105,167.85671129236727,286.6484403842105,167.85671129236727,286.6484403842105M168.1678224034784,288.1151070508772C166.39004462570063,287.7151070508772,166.7900446257006,289.49288482865495,166.43448907014505,290.5151070508772C166.7900446257006,291.1817737175439,166.43448907014505,291.6262181619883,166.9678224034784,291.49288482865495C168.30115573681172,291.1373292730994,169.6344890701451,290.69288482865494,170.8789335145895,290.07066260643273C172.61226684792285,289.2706626064327,173.0567112923673,288.6039959397661,170.83448907014508,288.20399593976606C169.94560018125617,288.0262181619883,168.83448907014508,287.892884828655,168.1678224034784,288.1151070508772C168.1678224034784,288.1151070508772,168.1678224034784,288.1151070508772,168.1678224034784,288.1151070508772M183.14560018125616,286.8262181619883C183.10115573681173,286.7373292730994,183.6344890701451,286.20399593976606,183.76782240347842,286.24844038421054C184.03448907014507,286.24844038421054,184.21226684792288,286.5595514953216,184.21226684792288,287.2262181619883C184.0789335145895,289.00399593976607,183.19004462570064,289.7151070508772,182.43448907014505,290.87066260643275C181.85671129236727,291.7151070508772,179.67893351458952,292.78177371754384,178.30115573681172,292.78177371754384C175.32337795903396,292.69288482865494,173.36782240347839,289.4484403842105,175.14560018125616,286.87066260643275C176.30115573681172,286.7373292730994,176.0789335145895,288.15955149532164,175.99004462570065,289.04844038421055C175.94560018125617,290.24844038421054,177.14560018125616,291.00399593976607,178.52337795903395,290.91510705087717C180.3456001812562,290.8262181619883,182.65671129236728,288.47066260643277,183.14560018125616,286.8262181619883C183.14560018125616,286.8262181619883,183.14560018125616,286.8262181619883,183.14560018125616,286.8262181619883M190.56782240347837,288.5595514953216C191.9011557368117,289.75955149532166,191.5011557368117,291.892884828655,191.9011557368117,293.75955149532166C191.36782240347839,295.1373292730994,191.4122668479228,296.69288482865494,190.30115573681172,298.3373292730994C188.8789335145895,300.38177371754387,185.63448907014504,302.0262181619883,182.8789335145895,300.07066260643273C181.5011557368117,299.1373292730994,180.7011557368117,298.78177371754384,180.6122668479228,296.7373292730994C180.52337795903395,295.092884828655,184.03448907014507,294.5151070508772,185.9900446257006,294.20399593976606C187.63448907014504,293.9373292730994,189.01226684792283,293.75955149532166,190.21226684792282,293.7151070508772C190.52337795903395,293.4484403842105,190.34560018125615,292.29288482865496,190.39004462570063,291.67066260643276C190.39004462570063,291.67066260643276,190.34560018125615,291.7151070508772,190.34560018125615,291.75955149532166C190.34560018125615,290.95955149532165,190.12337795903392,290.38177371754387,189.72337795903394,289.75955149532166C187.76782240347836,289.98177371754383,186.21226684792282,290.6484403842105,185.54560018125613,288.95955149532165C185.67893351458952,286.5595514953216,188.7900446257006,286.5595514953216,191.10115573681173,286.7373292730994C191.63448907014504,287.04844038421055,191.63448907014504,287.3151070508772,191.27893351458948,287.8484403842105C189.94560018125617,287.3595514953216,187.9011557368117,288.20399593976606,187.27893351458948,288.7373292730994C188.30115573681172,288.87066260643275,189.5011557368117,288.0262181619883,190.56782240347837,288.5595514953216C190.56782240347837,288.5595514953216,190.56782240347837,288.5595514953216,190.56782240347837,288.5595514953216M183.19004462570058,298.24844038421054C185.85671129236727,300.6039959397661,190.65671129236728,298.29288482865496,190.25671129236724,294.4262181619883C188.1678224034784,294.1151070508772,186.12337795903392,295.49288482865495,183.94560018125617,295.75955149532166C183.4122668479228,296.07066260643273,181.94560018125617,296.6039959397661,182.0789335145895,297.04844038421055C182.0789335145895,297.49288482865495,182.43448907014505,297.892884828655,183.19004462570058,298.24844038421054C183.19004462570058,298.24844038421054,183.19004462570058,298.24844038421054,183.19004462570058,298.24844038421054" stroke="none" fill="#000000" style=""></path><path stroke-width="2" d="M165.6789335145895,61.09238981701435C174.02942468376867,149.55737158509888,157.3284423454103,199.11181973384097,165.6789335145895,269.85466904649394" stroke="#000000" fill="none" style=""></path><path stroke-width="2" d="M221.90115573681172,20C288.4773850006487,23.39403293489214,269.0854191908945,16.60596706510786,306.75197910911527,20C308.3956747017958,48.150498929138806,305.1082835164347,50.02483591573478,306.75197910911527,61.09238981701434C243.0273253794611,64.48642275190649,268.2443790097835,57.6983568821222,221.90115573681172,61.09238981701434C223.5448513294923,47.530302781014605,220.25746014413113,23.97737459069115,221.90115573681172,20" stroke="#000000" fill="#ffffff" style=""></path><rect style="" stroke="none" fill="#ffffff" ry="0" rx="0" r="0" height="13.679682971602055" width="64.85082337230358" y="33.70635342270615" x="231.9011557368117"></rect><path d="M233.7905366410248,42.008258616530426C233.2572033076915,45.341591949863755,238.0572033076915,45.386036394308206,241.1683144188026,45.16381417208598C241.1683144188026,45.16381417208598,247.61275886324705,44.719369727641535,247.61275886324705,44.719369727641535C248.01275886324703,44.80825861653042,248.01275886324703,44.94159194986376,248.01275886324703,45.51936972764153C246.36831441880258,46.31936972764154,244.23498108546926,46.763814172085986,243.1683144188026,46.49714750541932C242.36831441880258,46.94159194986376,241.0794255299137,46.94159194986376,240.01275886324703,46.94159194986376C238.72386997435814,46.94159194986376,236.9905366410248,46.9860363943082,235.34609219658034,46.45270306097487C235.0794255299137,46.40825861653043,234.90164775213594,46.31936972764154,234.90164775213594,46.097147505419315C233.43498108546925,45.51936972764153,232.76831441880262,44.630480838752646,231.9683144188026,43.474925283197095C231.12386997435817,38.408258616530425,238.4572033076915,36.80825861653042,241.92386997435813,35.60825861653042C243.47942552991373,35.60825861653042,245.83498108546928,34.23048083875265,246.32386997435816,35.91936972764154C246.27942552991368,37.20825861653043,244.14609219658035,36.54159194986376,242.94609219658037,37.16381417208598C240.5016477521359,37.51936972764153,237.83498108546928,38.719369727641535,235.1683144188026,40.319369727641536C234.5905366410248,40.6749252831971,234.14609219658035,41.252703060974866,233.7905366410248,42.008258616530426C233.7905366410248,42.008258616530426,233.7905366410248,42.008258616530426,233.7905366410248,42.008258616530426M253.03498108546927,40.89714750541931C255.34609219658034,39.83048083875265,257.6572033076915,41.69714750541931,257.6572033076915,43.69714750541931C257.6572033076915,46.31936972764154,254.72386997435814,46.6749252831971,252.5905366410248,47.386036394308206C250.27942552991368,47.29714750541932,247.47942552991373,45.16381417208598,249.03498108546927,42.719369727641535C250.05720330769145,41.91936972764154,251.34609219658034,41.16381417208598,253.03498108546927,40.89714750541931C253.03498108546927,40.89714750541931,253.03498108546927,40.89714750541931,253.03498108546927,40.89714750541931M250.23498108546926,44.40825861653043C250.94609219658037,46.80825861653042,255.7905366410248,45.11936972764154,256.0572033076915,43.386036394308206C255.52386997435815,40.763814172085986,250.32386997435816,43.03048083875265,250.23498108546926,44.40825861653043C250.23498108546926,44.40825861653043,250.23498108546926,44.40825861653043,250.23498108546926,44.40825861653043M263.2572033076915,41.03048083875265C264.90164775213594,41.29714750541932,266.01275886324703,43.43048083875264,266.01275886324703,45.963814172085975C266.01275886324703,47.386036394308206,265.3016477521359,47.07492528319709,264.63498108546924,46.719369727641535C263.8349810854693,45.386036394308206,264.41275886324706,44.719369727641535,263.6572033076915,42.94159194986376C262.01275886324703,42.36381417208598,260.5016477521359,45.386036394308206,259.5683144188026,45.83048083875265C258.6794255299137,45.69714750541931,257.8349810854693,44.097147505419315,258.63498108546924,43.07492528319709C258.72386997435814,42.54159194986376,258.7683144188026,42.408258616530425,259.1238699743582,41.74159194986376C259.6572033076915,41.386036394308206,260.01275886324703,42.23048083875265,260.41275886324706,42.27492528319709C260.41275886324706,42.27492528319709,263.2572033076915,41.03048083875265,263.2572033076915,41.03048083875265M273.34609219658034,40.36381417208598C274.1905366410248,40.408258616530425,274.54609219658033,41.43048083875264,273.9238699743581,41.786036394308205C273.7460921965804,41.83048083875265,272.94609219658037,41.96381417208598,271.5683144188026,42.097147505419315C270.85720330769146,42.45270306097487,270.5905366410248,42.008258616530426,269.8349810854692,42.49714750541931C270.85720330769146,43.43048083875264,273.7905366410248,43.20825861653043,274.10164775213593,45.252703060974866C273.52386997435815,46.31936972764154,270.3238699743581,46.80825861653042,268.5905366410248,47.11936972764154C268.1905366410248,46.9860363943082,267.7905366410248,46.9860363943082,267.3905366410248,47.11936972764154C267.1238699743581,46.94159194986376,266.4572033076915,46.40825861653043,267.03498108546927,46.008258616530426C268.3683144188026,45.74159194986376,270.72386997435814,45.43048083875264,271.5683144188026,44.94159194986376C270.81275886324704,44.230480838752655,268.01275886324703,43.474925283197095,267.25720330769144,42.80825861653042C267.1238699743581,42.719369727641535,267.0794255299137,42.49714750541931,267.0794255299137,42.14159194986376C266.81275886324704,41.87492528319709,267.212758863247,41.56381417208598,267.7460921965804,41.341591949863755C268.72386997435814,40.94159194986376,271.9238699743581,40.319369727641536,273.34609219658034,40.36381417208598C273.34609219658034,40.36381417208598,273.34609219658034,40.36381417208598,273.34609219658034,40.36381417208598M279.6572033076915,40.89714750541931C281.96831441880255,39.83048083875265,284.2794255299137,41.69714750541931,284.2794255299137,43.69714750541931C284.2794255299137,46.31936972764154,281.34609219658034,46.6749252831971,279.212758863247,47.386036394308206C276.9016477521359,47.29714750541932,274.10164775213593,45.16381417208598,275.6572033076915,42.719369727641535C276.67942552991366,41.91936972764154,277.96831441880255,41.16381417208598,279.6572033076915,40.89714750541931C279.6572033076915,40.89714750541931,279.6572033076915,40.89714750541931,279.6572033076915,40.89714750541931M276.85720330769146,44.40825861653043C277.5683144188026,46.80825861653042,282.412758863247,45.11936972764154,282.67942552991366,43.386036394308206C282.14609219658035,40.763814172085986,276.94609219658037,43.03048083875265,276.85720330769146,44.40825861653043C276.85720330769146,44.40825861653043,276.85720330769146,44.40825861653043,276.85720330769146,44.40825861653043M287.43498108546925,33.74159194986376C288.3683144188026,33.474925283197095,289.0794255299137,34.763814172085986,288.76831441880256,36.1860363943082C288.3238699743581,38.45270306097487,287.52386997435815,42.1860363943082,287.52386997435815,45.43048083875264C287.52386997435815,45.91936972764154,287.7905366410248,47.03048083875265,286.94609219658037,47.07492528319709C285.6572033076915,46.852703060974875,285.612758863247,44.94159194986376,285.8349810854692,43.386036394308206C285.8349810854692,43.386036394308206,287.0794255299137,35.51936972764153,287.0794255299137,35.51936972764153C286.81275886324704,34.763814172085986,287.1238699743581,34.23048083875265,287.43498108546925,33.74159194986376C287.43498108546925,33.74159194986376,287.43498108546925,33.74159194986376,287.43498108546925,33.74159194986376M289.2127588632471,44.54159194986376C289.2127588632471,41.96381417208598,291.4794255299137,41.386036394308206,294.10164775213593,41.252703060974866C295.56831441880263,41.20825861653043,296.10164775213593,41.96381417208598,296.72386997435814,42.80825861653042C296.7683144188026,43.43048083875264,296.81275886324704,44.54159194986376,296.41275886324706,44.6749252831971C295.3460921965804,44.58603639430821,293.1683144188026,45.252703060974866,292.01275886324703,45.16381417208598C291.9238699743582,45.252703060974866,291.9238699743582,45.29714750541932,291.9238699743582,45.29714750541932C291.9238699743582,45.43048083875264,292.4572033076915,45.65270306097487,293.56831441880263,45.963814172085975C294.5016477521359,45.963814172085975,296.6349810854693,46.36381417208598,294.94609219658037,46.94159194986376C294.5460921965804,47.56381417208598,293.43498108546925,47.20825861653043,292.4572033076915,47.20825861653043C291.2572033076915,46.9860363943082,289.2127588632471,45.963814172085975,289.2127588632471,44.54159194986376C289.2127588632471,44.54159194986376,289.2127588632471,44.54159194986376,289.2127588632471,44.54159194986376M294.5016477521359,42.54159194986376C293.52386997435815,42.630480838752646,291.4794255299137,42.763814172085986,291.61275886324705,43.69714750541931C292.6794255299137,43.60825861653042,294.5460921965804,43.91936972764154,295.1238699743582,43.43048083875264C294.90164775213594,42.852703060974875,295.0794255299137,42.852703060974875,294.5016477521359,42.54159194986376C294.5016477521359,42.54159194986376,294.5016477521359,42.54159194986376,294.5016477521359,42.54159194986376" stroke="none" fill="#000000" style=""></path><path stroke-width="2" d="M221.90115573681172,269.85466904649394C223.63595900036262,266.4606361116018,237.1291401273208,273.2487019813861,306.75197910911527,269.85466904649394C305.1082835164347,279.01989877639835,308.3956747017958,274.3369644323583,306.75197910911527,310.9470588635083C278.70093407575405,314.34109179840044,308.3490593019508,307.55302592861614,221.90115573681172,310.9470588635083C223.5448513294923,299.898466238495,220.25746014413113,298.98034897802864,221.90115573681172,269.85466904649394" stroke="#000000" fill="#ffffff" style=""></path><rect style="" stroke="none" fill="#ffffff" ry="0" rx="0" r="0" height="13.679682971602062" width="64.85082337230358" y="283.5610224692001" x="231.9011557368117"></rect><path d="M233.7905366410248,291.8629276630244C233.2572033076915,295.1962609963577,238.0572033076915,295.2407054408022,241.1683144188026,295.01848321857995C241.1683144188026,295.01848321857995,247.61275886324705,294.5740387741355,247.61275886324705,294.5740387741355C248.01275886324703,294.6629276630244,248.01275886324703,294.7962609963577,248.01275886324703,295.3740387741355C246.36831441880258,296.1740387741355,244.23498108546926,296.6184832185799,243.1683144188026,296.35181655191326C242.36831441880258,296.7962609963577,241.0794255299137,296.7962609963577,240.01275886324703,296.7962609963577C238.72386997435814,296.7962609963577,236.9905366410248,296.84070544080214,235.34609219658034,296.30737210746884C235.0794255299137,296.26292766302436,234.90164775213594,296.1740387741355,234.90164775213594,295.9518165519133C233.43498108546925,295.3740387741355,232.76831441880262,294.4851498852466,231.9683144188026,293.329594329691C231.12386997435817,288.26292766302436,238.4572033076915,286.6629276630244,241.92386997435813,285.4629276630244C243.47942552991373,285.4629276630244,245.83498108546928,284.0851498852466,246.32386997435816,285.7740387741355C246.27942552991368,287.06292766302437,244.14609219658035,286.3962609963577,242.94609219658037,287.01848321857995C240.5016477521359,287.3740387741355,237.83498108546928,288.5740387741355,235.1683144188026,290.1740387741355C234.5905366410248,290.52959432969107,234.14609219658035,291.10737210746885,233.7905366410248,291.8629276630244C233.7905366410248,291.8629276630244,233.7905366410248,291.8629276630244,233.7905366410248,291.8629276630244M253.03498108546927,290.75181655191324C255.34609219658034,289.6851498852466,257.6572033076915,291.55181655191325,257.6572033076915,293.55181655191325C257.6572033076915,296.1740387741355,254.72386997435814,296.52959432969107,252.5905366410248,297.2407054408022C250.27942552991368,297.15181655191327,247.47942552991373,295.01848321857995,249.03498108546927,292.5740387741355C250.05720330769145,291.7740387741355,251.34609219658034,291.01848321857995,253.03498108546927,290.75181655191324C253.03498108546927,290.75181655191324,253.03498108546927,290.75181655191324,253.03498108546927,290.75181655191324M250.23498108546926,294.26292766302436C250.94609219658037,296.6629276630244,255.7905366410248,294.97403877413547,256.0572033076915,293.2407054408022C255.52386997435815,290.6184832185799,250.32386997435816,292.8851498852466,250.23498108546926,294.26292766302436C250.23498108546926,294.26292766302436,250.23498108546926,294.26292766302436,250.23498108546926,294.26292766302436M263.2572033076915,290.8851498852466C264.90164775213594,291.15181655191327,266.01275886324703,293.2851498852466,266.01275886324703,295.81848321857996C266.01275886324703,297.2407054408022,265.3016477521359,296.92959432969104,264.63498108546924,296.5740387741355C263.8349810854693,295.2407054408022,264.41275886324706,294.5740387741355,263.6572033076915,292.7962609963577C262.01275886324703,292.21848321857993,260.5016477521359,295.2407054408022,259.5683144188026,295.6851498852466C258.6794255299137,295.55181655191325,257.8349810854693,293.9518165519133,258.63498108546924,292.92959432969104C258.72386997435814,292.3962609963577,258.7683144188026,292.26292766302436,259.1238699743582,291.5962609963577C259.6572033076915,291.2407054408022,260.01275886324703,292.0851498852466,260.41275886324706,292.12959432969103C260.41275886324706,292.12959432969103,263.2572033076915,290.8851498852466,263.2572033076915,290.8851498852466M273.34609219658034,290.21848321857993C274.1905366410248,290.26292766302436,274.54609219658033,291.2851498852466,273.9238699743581,291.64070544080215C273.7460921965804,291.6851498852466,272.94609219658037,291.81848321857996,271.5683144188026,291.9518165519133C270.85720330769146,292.30737210746884,270.5905366410248,291.8629276630244,269.8349810854692,292.35181655191326C270.85720330769146,293.2851498852466,273.7905366410248,293.06292766302437,274.10164775213593,295.10737210746885C273.52386997435815,296.1740387741355,270.3238699743581,296.6629276630244,268.5905366410248,296.97403877413547C268.1905366410248,296.84070544080214,267.7905366410248,296.84070544080214,267.3905366410248,296.97403877413547C267.1238699743581,296.7962609963577,266.4572033076915,296.26292766302436,267.03498108546927,295.8629276630244C268.3683144188026,295.5962609963577,270.72386997435814,295.2851498852466,271.5683144188026,294.7962609963577C270.81275886324704,294.0851498852466,268.01275886324703,293.329594329691,267.25720330769144,292.6629276630244C267.1238699743581,292.5740387741355,267.0794255299137,292.35181655191326,267.0794255299137,291.9962609963577C266.81275886324704,291.72959432969105,267.212758863247,291.4184832185799,267.7460921965804,291.1962609963577C268.72386997435814,290.7962609963577,271.9238699743581,290.1740387741355,273.34609219658034,290.21848321857993C273.34609219658034,290.21848321857993,273.34609219658034,290.21848321857993,273.34609219658034,290.21848321857993M279.6572033076915,290.75181655191324C281.96831441880255,289.6851498852466,284.2794255299137,291.55181655191325,284.2794255299137,293.55181655191325C284.2794255299137,296.1740387741355,281.34609219658034,296.52959432969107,279.212758863247,297.2407054408022C276.9016477521359,297.15181655191327,274.10164775213593,295.01848321857995,275.6572033076915,292.5740387741355C276.67942552991366,291.7740387741355,277.96831441880255,291.01848321857995,279.6572033076915,290.75181655191324C279.6572033076915,290.75181655191324,279.6572033076915,290.75181655191324,279.6572033076915,290.75181655191324M276.85720330769146,294.26292766302436C277.5683144188026,296.6629276630244,282.412758863247,294.97403877413547,282.67942552991366,293.2407054408022C282.14609219658035,290.6184832185799,276.94609219658037,292.8851498852466,276.85720330769146,294.26292766302436C276.85720330769146,294.26292766302436,276.85720330769146,294.26292766302436,276.85720330769146,294.26292766302436M287.43498108546925,283.5962609963577C288.3683144188026,283.329594329691,289.0794255299137,284.6184832185799,288.76831441880256,286.0407054408021C288.3238699743581,288.30737210746884,287.52386997435815,292.0407054408021,287.52386997435815,295.2851498852466C287.52386997435815,295.7740387741355,287.7905366410248,296.8851498852466,286.94609219658037,296.92959432969104C285.6572033076915,296.7073721074688,285.612758863247,294.7962609963577,285.8349810854692,293.2407054408022C285.8349810854692,293.2407054408022,287.0794255299137,285.3740387741355,287.0794255299137,285.3740387741355C286.81275886324704,284.6184832185799,287.1238699743581,284.0851498852466,287.43498108546925,283.5962609963577C287.43498108546925,283.5962609963577,287.43498108546925,283.5962609963577,287.43498108546925,283.5962609963577M289.2127588632471,294.3962609963577C289.2127588632471,291.81848321857996,291.4794255299137,291.2407054408022,294.10164775213593,291.10737210746885C295.56831441880263,291.06292766302437,296.10164775213593,291.81848321857996,296.72386997435814,292.6629276630244C296.7683144188026,293.2851498852466,296.81275886324704,294.3962609963577,296.41275886324706,294.52959432969107C295.3460921965804,294.44070544080216,293.1683144188026,295.10737210746885,292.01275886324703,295.01848321857995C291.9238699743582,295.10737210746885,291.9238699743582,295.15181655191327,291.9238699743582,295.15181655191327C291.9238699743582,295.2851498852466,292.4572033076915,295.5073721074688,293.56831441880263,295.81848321857996C294.5016477521359,295.81848321857996,296.6349810854693,296.21848321857993,294.94609219658037,296.7962609963577C294.5460921965804,297.4184832185799,293.43498108546925,297.06292766302437,292.4572033076915,297.06292766302437C291.2572033076915,296.84070544080214,289.2127588632471,295.81848321857996,289.2127588632471,294.3962609963577C289.2127588632471,294.3962609963577,289.2127588632471,294.3962609963577,289.2127588632471,294.3962609963577M294.5016477521359,292.3962609963577C293.52386997435815,292.4851498852466,291.4794255299137,292.6184832185799,291.61275886324705,293.55181655191325C292.6794255299137,293.4629276630244,294.5460921965804,293.7740387741355,295.1238699743582,293.2851498852466C294.90164775213594,292.7073721074688,295.0794255299137,292.7073721074688,294.5016477521359,292.3962609963577C294.5016477521359,292.3962609963577,294.5016477521359,292.3962609963577,294.5016477521359,292.3962609963577" stroke="none" fill="#000000" style=""></path><path stroke-width="2" d="M264.3265674229635,61.09238981701435C255.9760762537843,172.21019097740356,272.67705859214266,159.7665236922042,264.3265674229635,269.85466904649394" stroke="#000000" fill="none" style=""></path><rect style="" stroke="none" fill="#ffffff" ry="0" rx="0" r="0" height="11.008049653975363" width="2.319838582811826" y="80.58836499002666" x="213.84283117737056"></rect><path d="M214.42933642684903,82.54583998821278C214.42933642684903,81.92361776599054,214.69600309351569,79.92361776599054,215.71822531573793,80.81250665487946C215.85155864907125,80.99028443265723,215.98489198240458,81.39028443265721,216.16266976018238,81.87917332154612C216.16266976018238,81.87917332154612,215.18489198240457,87.56806221043499,215.18489198240457,87.56806221043499C215.18489198240457,87.56806221043499,215.54044753796012,91.43472887710166,215.54044753796012,91.43472887710166C215.36266976018237,91.70139554376834,215.14044753796014,91.56806221043499,214.829336426849,91.52361776599056C212.8737808712935,89.83472887710167,214.42933642684903,85.43472887710166,214.42933642684903,82.54583998821278C214.42933642684903,82.54583998821278,214.42933642684903,82.54583998821278,214.42933642684903,82.54583998821278" stroke="none" fill="#000000" style=""></path><path stroke-dasharray="0" marker-end="url(#raphael-marker-endblock55)" stroke-width="2" d="M264.3265674229635,92.1004394709897C177.73151183597733,88.24219949244441,240.88347783838128,95.70152624783995,170.67458057670143,92.3461664317891" stroke="#000000" fill="none" style=""></path><rect style="" stroke="none" fill="#ffffff" ry="0" rx="0" r="0" height="12.320385405408231" width="11.002557811793736" y="110.94024676828558" x="115.95095125114165"></rect><path d="M119.48684239626874,121.88285439591603C121.57573128515762,121.43840995147158,124.7757312851576,120.81618772924936,126.95350906293538,121.48285439591604C126.95350906293538,122.01618772924937,125.93128684071317,122.0606321736938,125.39795350737984,122.19396550702714C125.44239795182429,122.23840995147158,125.53128684071316,122.23840995147158,125.62017572960207,122.23840995147158C122.33128684071318,122.59396550702714,120.37573128515763,123.2606321736938,116.99795350737983,123.2606321736938C116.37573128515761,123.2606321736938,116.10906461849095,122.68285439591602,116.06462017404651,122.01618772924937C118.50906461849095,120.23840995147158,119.7535090629354,119.30507661813824,121.53128684071316,117.39396550702713C122.68684239626873,116.81618772924936,124.42017572960205,114.41618772924936,124.68684239626873,112.8606321736938C124.64239795182428,112.46063217369381,124.19795350737985,112.14952106258269,123.70906461849094,112.14952106258269C122.82017572960206,112.10507661813826,118.37573128515763,113.43840995147158,116.77573128515762,114.32729884036047C116.33128684071318,114.23840995147158,115.44239795182428,113.43840995147158,116.33128684071318,113.08285439591603C118.5535090629354,112.14952106258269,121.26462017404651,110.81618772924936,124.24239795182427,110.94952106258269C125.35350906293539,111.39396550702713,126.19795350737985,111.92729884036048,125.8423979518243,112.68285439591602C126.37573128515763,114.01618772924937,124.99795350737983,115.52729884036047,124.33128684071318,116.37174328480492C122.59795350737983,118.50507661813825,122.68684239626873,118.10507661813826,119.22017572960206,121.21618772924936C119.22017572960206,121.43840995147158,119.08684239626874,121.57174328480492,118.86462017404651,121.70507661813825C119.04239795182428,121.83840995147159,119.22017572960206,121.88285439591603,119.48684239626874,121.88285439591603C119.48684239626874,121.88285439591603,119.48684239626874,121.88285439591603,119.48684239626874,121.88285439591603" stroke="none" fill="#000000" style=""></path><path stroke-dasharray="0" marker-end="url(#raphael-marker-endblock55)" stroke-width="2" d="M165.6789335145895,124.42082487639792C92.00827373817717,127.33011270663681,88.10072667749415,123.06277840876685,82.1199035691368,123.42100134190457" stroke="#000000" fill="none" style=""></path><path stroke-width="2" d="M10,144.42082487639792C138.60899933862842,139.04278273243892,136.04162811520138,149.7988670203569,144.45105359897508,144.42082487639792C142.86509626564174,151.78533090705247,146.03701093230842,175.72807924547587,144.45105359897508,184.06975820973125C89.66681470951183,189.44780035369024,80.54654277532401,178.69171606577225,10,184.06975820973125C8.414042666666667,158.25119217479713,11.585957333333333,173.57362077721007,10,144.42082487639792" stroke="#000000" fill="#ffffff" style=""></path><rect style="" stroke="none" fill="#ffffff" ry="0" rx="0" r="0" height="29.648933333333332" width="124.45105359897508" y="149.42082487639792" x="14.999999999999993"></rect><path d="M21.539942487863996,149.86526932084237C22.38438693230843,149.90971376528682,22.739942487864,150.93193598750904,22.117720265641765,151.2874915430646C21.939942487863988,151.33193598750904,21.13994248786399,151.46526932084237,19.76216471008621,151.5986026541757C19.051053598975102,151.95415820973125,18.784386932308436,151.50971376528682,18.028831376752876,151.9986026541757C19.051053598975102,152.93193598750904,21.98438693230844,152.7097137652868,22.295498043419542,154.75415820973126C21.717720265641773,155.82082487639792,18.51772026564177,156.3097137652868,16.784386932308436,156.62082487639793C16.38438693230843,156.48749154306458,15.984386932308439,156.48749154306458,15.584386932308433,156.62082487639793C15.317720265641768,156.44304709862016,14.651053598975096,155.90971376528682,15.22883137675288,155.50971376528682C16.562164710086208,155.24304709862014,18.917720265641776,154.93193598750904,19.76216471008621,154.44304709862016C19.006609154530665,153.73193598750905,16.206609154530653,152.9763804319535,15.451053598975108,152.3097137652868C15.317720265641768,152.22082487639793,15.27327582119733,151.9986026541757,15.27327582119733,151.64304709862014C15.006609154530665,151.3763804319535,15.406609154530656,151.06526932084236,15.939942487863988,150.84304709862016C16.917720265641776,150.44304709862016,20.117720265641765,149.82082487639792,21.539942487863996,149.86526932084237C21.539942487863996,149.86526932084237,21.539942487863996,149.86526932084237,21.539942487863996,149.86526932084237M23.717720265641773,150.3986026541757C25.406609154530656,150.3097137652868,24.917720265641762,152.93193598750904,25.717720265641773,154.22082487639793C27.051053598975102,154.3097137652868,28.695498043419548,151.2874915430646,30.206609154530653,150.75415820973126C31.36216471008622,151.02082487639794,31.806609154530662,153.82082487639792,32.873275821197325,154.22082487639793C34.96216471008621,152.66526932084236,35.13994248786399,151.82082487639792,38.162164710086216,149.5986026541757C38.29549804341954,149.5986026541757,38.47327582119732,149.50971376528682,38.82883137675287,149.42082487639792C39.67327582119732,150.44304709862016,38.42883137675288,150.66526932084236,37.89549804341955,151.5986026541757C36.42883137675288,152.84304709862016,34.873275821197325,155.5986026541757,33.13994248786399,156.44304709862016C32.69549804341955,156.7097137652868,30.828831376752873,154.35415820973125,29.939942487863988,153.2874915430646C29.051053598975102,154.04304709862015,26.162164710086216,156.57638043195348,25.628831376752885,156.53193598750903C23.939942487863988,156.84304709862016,23.806609154530662,152.17638043195348,23.317720265641768,151.1097137652868C23.317720265641768,151.06526932084236,23.451053598975108,150.7986026541757,23.717720265641773,150.3986026541757C23.717720265641773,150.3986026541757,23.717720265641773,150.3986026541757,23.717720265641773,150.3986026541757M43.00660915453065,154.0874915430646C43.45105359897511,154.26526932084238,45.628831376752885,155.90971376528682,45.89549804341955,156.3097137652868C45.93994248786399,156.62082487639793,45.628831376752885,157.06526932084236,45.362164710086205,157.06526932084236C45.362164710086205,157.06526932084236,42.69549804341955,155.73193598750905,42.69549804341955,155.73193598750905C41.71772026564177,155.82082487639792,40.82883137675287,156.66526932084238,39.80660915453066,156.57638043195348C38.33994248786399,156.75415820973126,36.784386932308436,153.5986026541757,39.13994248786399,152.9763804319535C40.96216471008621,151.77638043195347,43.406609154530656,151.24304709862014,44.028831376752876,153.3763804319535C44.028831376752876,153.64304709862014,43.8510535989751,153.90971376528682,43.53994248786398,154.0874915430646C42.07327582119733,152.9763804319535,40.56216471008621,153.86526932084237,39.628831376752885,154.62082487639793C40.07327582119733,155.33193598750904,42.33994248786399,153.82082487639792,43.00660915453065,154.0874915430646C43.00660915453065,154.0874915430646,43.00660915453065,154.0874915430646,43.00660915453065,154.0874915430646M49.85105359897511,157.19860265417572C49.40660915453067,157.73193598750905,49.49549804341956,162.3986026541757,48.78438693230845,163.50971376528682C48.11772026564178,163.5986026541757,47.939942487864,163.50971376528682,47.49549804341956,162.93193598750904C47.49549804341956,159.55415820973127,47.89549804341955,157.90971376528682,48.47327582119733,154.3986026541757C49.09549804341955,153.19860265417572,50.02883137675289,154.13193598750902,50.11772026564178,154.9763804319535C50.11772026564178,155.33193598750904,49.98438693230844,155.90971376528682,49.80660915453066,156.66526932084238C49.89549804341955,156.75415820973126,49.939942487864,156.75415820973126,49.98438693230844,156.75415820973126C51.139942487864005,156.35415820973125,55.139942487864005,155.2874915430646,55.58438693230845,153.55415820973127C55.27327582119733,152.7986026541757,54.517720265641785,152.0874915430646,53.40660915453067,152.17638043195348C51.628831376752885,152.3097137652868,48.25105359897512,152.75415820973126,48.25105359897512,154.26526932084238C48.02883137675289,154.57638043195348,48.162164710086216,155.02082487639794,47.539942487863996,155.15415820973126C46.78438693230845,154.62082487639793,46.739942487864,154.26526932084238,47.006609154530665,153.46526932084237C47.36216471008622,152.35415820973125,50.295498043419556,150.75415820973126,51.89549804341955,150.84304709862016C54.33994248786399,150.17638043195348,56.917720265641776,151.50971376528682,57.139942487864005,153.95415820973125C56.47327582119733,156.26526932084238,53.40660915453067,157.46526932084237,50.65105359897511,157.64304709862014C50.428831376752896,157.64304709862014,50.162164710086216,157.46526932084237,49.85105359897511,157.19860265417572C49.85105359897511,157.19860265417572,49.85105359897511,157.19860265417572,49.85105359897511,157.19860265417572M72.16216471008622,149.86526932084237C73.00660915453068,149.90971376528682,73.36216471008623,150.93193598750904,72.739942487864,151.2874915430646C72.56216471008622,151.33193598750904,71.76216471008624,151.46526932084237,70.38438693230844,151.5986026541757C69.67327582119734,151.95415820973125,69.40660915453068,151.50971376528682,68.65105359897512,151.9986026541757C69.67327582119734,152.93193598750904,72.60660915453067,152.7097137652868,72.91772026564178,154.75415820973126C72.339942487864,155.82082487639792,69.139942487864,156.3097137652868,67.40660915453068,156.62082487639793C67.00660915453068,156.48749154306458,66.60660915453067,156.48749154306458,66.20660915453067,156.62082487639793C65.93994248786402,156.44304709862016,65.27327582119733,155.90971376528682,65.85105359897511,155.50971376528682C67.18438693230846,155.24304709862014,69.53994248786401,154.93193598750904,70.38438693230844,154.44304709862016C69.62883137675288,153.73193598750905,66.8288313767529,152.9763804319535,66.07327582119734,152.3097137652868C65.93994248786402,152.22082487639793,65.89549804341956,151.9986026541757,65.89549804341956,151.64304709862014C65.62883137675288,151.3763804319535,66.02883137675289,151.06526932084236,66.56216471008622,150.84304709862016C67.53994248786401,150.44304709862016,70.739942487864,149.82082487639792,72.16216471008622,149.86526932084237C72.16216471008622,149.86526932084237,72.16216471008622,149.86526932084237,72.16216471008622,149.86526932084237M78.47327582119735,150.3986026541757C80.78438693230845,149.33193598750904,83.09549804341955,151.19860265417572,83.09549804341955,153.19860265417572C83.09549804341955,155.82082487639792,80.16216471008622,156.17638043195348,78.02883137675289,156.88749154306458C75.71772026564179,156.7986026541757,72.91772026564178,154.66526932084238,74.47327582119735,152.22082487639793C75.49549804341956,151.42082487639792,76.78438693230845,150.66526932084236,78.47327582119735,150.3986026541757C78.47327582119735,150.3986026541757,78.47327582119735,150.3986026541757,78.47327582119735,150.3986026541757M75.67327582119734,153.90971376528682C76.38438693230844,156.3097137652868,81.22883137675288,154.62082487639793,81.49549804341956,152.88749154306458C80.96216471008623,150.26526932084238,75.76216471008624,152.53193598750903,75.67327582119734,153.90971376528682C75.67327582119734,153.90971376528682,75.67327582119734,153.90971376528682,75.67327582119734,153.90971376528682M92.51772026564174,150.53193598750903C92.47327582119732,150.44304709862016,93.00660915453065,149.90971376528682,93.13994248786398,149.95415820973125C93.40660915453066,149.95415820973125,93.58438693230843,150.26526932084238,93.58438693230843,150.93193598750904C93.45105359897508,152.7097137652868,92.5621647100862,153.42082487639792,91.80660915453063,154.57638043195348C91.22883137675285,155.42082487639792,89.05105359897507,156.48749154306458,87.67327582119731,156.48749154306458C84.69549804341952,156.3986026541757,82.73994248786397,153.15415820973126,84.51772026564174,150.57638043195348C85.67327582119731,150.44304709862016,85.45105359897508,151.86526932084237,85.3621647100862,152.75415820973126C85.31772026564175,153.95415820973125,86.51772026564174,154.7097137652868,87.89549804341954,154.62082487639793C89.71772026564176,154.53193598750903,92.02883137675286,152.17638043195348,92.51772026564174,150.53193598750903C92.51772026564174,150.53193598750903,92.51772026564174,150.53193598750903,92.51772026564174,150.53193598750903M104.82883137675287,151.3763804319535C104.91772026564175,152.35415820973125,105.0510535989751,151.82082487639792,104.20660915453064,152.3986026541757C100.9621647100862,152.0874915430646,96.82883137675287,151.3763804319535,96.47327582119732,154.88749154306458C96.11772026564176,155.15415820973126,96.339942487864,155.77638043195347,96.11772026564176,156.48749154306458C94.82883137675287,156.93193598750904,94.339942487864,156.0874915430646,94.6510535989751,154.44304709862016C94.91772026564175,153.06526932084236,94.9621647100862,151.3763804319535,96.07327582119731,151.9986026541757C98.6510535989751,150.35415820973125,99.00660915453065,150.13193598750902,103.85105359897508,151.15415820973126C103.98438693230844,151.3763804319535,104.51772026564177,151.33193598750904,104.82883137675287,151.3763804319535C104.82883137675287,151.3763804319535,104.82883137675287,151.3763804319535,104.82883137675287,151.3763804319535M109.93994248786399,151.1097137652868C111.22883137675288,150.7986026541757,111.58438693230843,152.3986026541757,110.47327582119732,152.57638043195348C109.2732758211973,152.3986026541757,108.69549804341955,152.84304709862016,106.9621647100862,153.6874915430646C106.60660915453064,153.86526932084237,106.38438693230842,154.17638043195348,106.25105359897509,154.66526932084238C107.58438693230843,156.0874915430646,110.29549804341954,154.7986026541757,112.20660915453064,155.15415820973126C112.42883137675287,155.73193598750905,111.85105359897508,156.3097137652868,111.22883137675288,155.9986026541757C108.9621647100862,157.1097137652868,105.0510535989751,157.24304709862014,104.5621647100862,154.66526932084238C104.82883137675287,152.44304709862016,107.62883137675286,151.02082487639794,109.93994248786399,151.1097137652868C109.93994248786399,151.1097137652868,109.93994248786399,151.1097137652868,109.93994248786399,151.1097137652868M113.0510535989751,154.04304709862015C113.0510535989751,151.46526932084237,115.31772026564178,150.88749154306458,117.93994248786399,150.75415820973126C119.40660915453066,150.7097137652868,119.93994248786399,151.46526932084237,120.56216471008622,152.3097137652868C120.60660915453064,152.93193598750904,120.6510535989751,154.04304709862015,120.25105359897509,154.17638043195348C119.18438693230843,154.0874915430646,117.00660915453065,154.75415820973126,115.85105359897511,154.66526932084238C115.76216471008621,154.75415820973126,115.76216471008621,154.7986026541757,115.76216471008621,154.7986026541757C115.76216471008621,154.93193598750904,116.29549804341954,155.15415820973126,117.40660915453066,155.46526932084237C118.339942487864,155.46526932084237,120.47327582119732,155.86526932084237,118.78438693230845,156.44304709862016C118.38438693230844,157.06526932084236,117.27327582119733,156.7097137652868,116.29549804341954,156.7097137652868C115.09549804341955,156.48749154306458,113.0510535989751,155.46526932084237,113.0510535989751,154.04304709862015C113.0510535989751,154.04304709862015,113.0510535989751,154.04304709862015,113.0510535989751,154.04304709862015M118.339942487864,152.04304709862015C117.3621647100862,152.13193598750902,115.31772026564178,152.26526932084238,115.45105359897511,153.19860265417572C116.51772026564177,153.1097137652868,118.38438693230844,153.42082487639792,118.96216471008623,152.93193598750904C118.739942487864,152.35415820973125,118.91772026564178,152.35415820973125,118.339942487864,152.04304709862015C118.339942487864,152.04304709862015,118.339942487864,152.04304709862015,118.339942487864,152.04304709862015M20.206609154530653,176.0919804319535C20.651053598975096,176.26975820973126,22.828831376752873,177.9142026541757,23.095498043419553,178.3142026541757C23.13994248786399,178.62531376528682,22.828831376752873,179.06975820973125,22.562164710086222,179.06975820973125C22.562164710086222,179.06975820973125,19.89549804341955,177.73642487639793,19.89549804341955,177.73642487639793C18.917720265641776,177.8253137652868,18.028831376752876,178.66975820973127,17.006609154530665,178.58086932084237C15.539942487863996,178.75864709862014,13.984386932308439,175.60309154306458,16.339942487863993,174.98086932084237C18.162164710086216,173.78086932084236,20.60660915453066,173.24753598750902,21.22883137675288,175.38086932084238C21.22883137675288,175.64753598750903,21.051053598975102,175.9142026541757,20.739942487864,176.0919804319535C19.27327582119733,174.98086932084237,17.76216471008621,175.86975820973126,16.828831376752888,176.62531376528682C17.27327582119733,177.33642487639793,19.539942487863996,175.8253137652868,20.206609154530653,176.0919804319535C20.206609154530653,176.0919804319535,20.206609154530653,176.0919804319535,20.206609154530653,176.0919804319535M28.784386932308436,172.53642487639792C30.428831376752882,172.8030915430646,31.539942487863982,174.93642487639792,31.539942487863982,177.46975820973125C31.539942487863982,178.89198043195347,30.828831376752873,178.58086932084237,30.162164710086216,178.2253137652868C29.362164710086205,176.89198043195347,29.939942487863988,176.2253137652868,29.184386932308428,174.44753598750904C27.539942487863996,173.86975820973126,26.028831376752876,176.89198043195347,25.09549804341954,177.33642487639793C24.206609154530653,177.2030915430646,23.362164710086205,175.60309154306458,24.162164710086216,174.58086932084237C24.251053598975105,174.04753598750904,24.295498043419542,173.9142026541757,24.651053598975096,173.24753598750902C25.184386932308428,172.89198043195347,25.539942487863996,173.73642487639793,25.939942487863988,173.78086932084236C25.939942487863988,173.78086932084236,28.784386932308436,172.53642487639792,28.784386932308436,172.53642487639792M41.98438693230844,169.64753598750903C41.98438693230844,168.0919804319535,41.22883137675288,164.7142026541757,43.0510535989751,165.46975820973125C43.362164710086205,169.29198043195348,42.96216471008621,170.75864709862014,43.0510535989751,174.2253137652868C42.873275821197325,174.3142026541757,42.69549804341955,175.15864709862015,42.251053598975105,174.93642487639792C39.495498043419545,174.62531376528682,35.406609154530656,174.58086932084237,34.028831376752876,176.2253137652868C34.29549804341954,176.98086932084237,35.273275821197316,177.38086932084238,36.29549804341954,177.38086932084238C37.00660915453065,177.38086932084238,40.739942487863985,176.7142026541757,42.162164710086216,176.58086932084237C42.47327582119732,176.8030915430646,41.895498043419536,177.46975820973125,41.71772026564176,177.55864709862016C40.651053598975096,177.9142026541757,36.29549804341954,179.4253137652868,34.47327582119732,178.66975820973127C33.0510535989751,178.44753598750904,31.71772026564176,176.3142026541757,32.873275821197325,175.1142026541757C34.42883137675288,173.46975820973125,38.117720265641765,173.06975820973125,41.67327582119732,173.2030915430646C41.71772026564176,172.2253137652868,41.98438693230844,171.02531376528682,41.98438693230844,169.64753598750903C41.98438693230844,169.64753598750903,41.98438693230844,169.64753598750903,41.98438693230844,169.64753598750903M61.71772026564176,169.64753598750903C61.71772026564176,168.0919804319535,60.96216471008621,164.7142026541757,62.78438693230842,165.46975820973125C63.09549804341955,169.29198043195348,62.69549804341955,170.75864709862014,62.78438693230842,174.2253137652868C62.606609154530645,174.3142026541757,62.42883137675287,175.15864709862015,61.98438693230844,174.93642487639792C59.22883137675288,174.62531376528682,55.13994248786399,174.58086932084237,53.76216471008621,176.2253137652868C54.028831376752876,176.98086932084237,55.00660915453065,177.38086932084238,56.028831376752876,177.38086932084238C56.739942487863985,177.38086932084238,60.47327582119732,176.7142026541757,61.895498043419536,176.58086932084237C62.20660915453067,176.8030915430646,61.628831376752885,177.46975820973125,61.45105359897511,177.55864709862016C60.38438693230843,177.9142026541757,56.028831376752876,179.4253137652868,54.20660915453065,178.66975820973127C52.784386932308436,178.44753598750904,51.45105359897509,176.3142026541757,52.60660915453066,175.1142026541757C54.162164710086216,173.46975820973125,57.8510535989751,173.06975820973125,61.406609154530656,173.2030915430646C61.45105359897511,172.2253137652868,61.71772026564176,171.02531376528682,61.71772026564176,169.64753598750903C61.71772026564176,169.64753598750903,61.71772026564176,169.64753598750903,61.71772026564176,169.64753598750903M63.71772026564176,176.04753598750904C63.71772026564176,173.46975820973125,65.98438693230844,172.89198043195347,68.60660915453064,172.75864709862014C70.07327582119731,172.7142026541757,70.60660915453064,173.46975820973125,71.22883137675288,174.3142026541757C71.2732758211973,174.93642487639792,71.31772026564175,176.04753598750904,70.91772026564175,176.18086932084236C69.85105359897508,176.0919804319535,67.67327582119731,176.75864709862014,66.51772026564177,176.66975820973127C66.42883137675287,176.75864709862014,66.42883137675287,176.8030915430646,66.42883137675287,176.8030915430646C66.42883137675287,176.93642487639792,66.9621647100862,177.15864709862015,68.07327582119731,177.46975820973125C69.00660915453065,177.46975820973125,71.13994248786398,177.86975820973126,69.45105359897508,178.44753598750904C69.0510535989751,179.06975820973125,67.93994248786399,178.7142026541757,66.9621647100862,178.7142026541757C65.76216471008621,178.49198043195346,63.71772026564176,177.46975820973125,63.71772026564176,176.04753598750904C63.71772026564176,176.04753598750904,63.71772026564176,176.04753598750904,63.71772026564176,176.04753598750904M69.00660915453065,174.04753598750904C68.02883137675286,174.1364248763979,65.98438693230844,174.26975820973126,66.11772026564176,175.2030915430646C67.18438693230843,175.1142026541757,69.0510535989751,175.4253137652868,69.62883137675288,174.93642487639792C69.40660915453066,174.35864709862014,69.58438693230843,174.35864709862014,69.00660915453065,174.04753598750904C69.00660915453065,174.04753598750904,69.00660915453065,174.04753598750904,69.00660915453065,174.04753598750904M78.47327582119732,171.86975820973126C79.31772026564178,171.9142026541757,79.67327582119734,172.93642487639792,79.0510535989751,173.29198043195348C78.87327582119732,173.33642487639793,78.07327582119734,173.46975820973125,76.69549804341955,173.60309154306458C75.98438693230844,173.95864709862013,75.71772026564179,173.5142026541757,74.96216471008623,174.00309154306458C75.98438693230844,174.93642487639792,78.91772026564178,174.7142026541757,79.22883137675288,176.75864709862014C78.6510535989751,177.8253137652868,75.45105359897511,178.3142026541757,73.71772026564179,178.62531376528682C73.31772026564178,178.49198043195346,72.91772026564178,178.49198043195346,72.51772026564177,178.62531376528682C72.25105359897512,178.44753598750904,71.58438693230843,177.9142026541757,72.16216471008622,177.5142026541757C73.49549804341956,177.24753598750902,75.85105359897511,176.93642487639792,76.69549804341955,176.44753598750904C75.93994248786399,175.73642487639793,73.139942487864,174.98086932084237,72.38438693230844,174.3142026541757C72.25105359897512,174.2253137652868,72.20660915453067,174.00309154306458,72.20660915453067,173.64753598750903C71.93994248786399,173.38086932084238,72.339942487864,173.06975820973125,72.87327582119732,172.84753598750905C73.85105359897511,172.44753598750904,77.0510535989751,171.8253137652868,78.47327582119732,171.86975820973126C78.47327582119732,171.86975820973126,78.47327582119732,171.86975820973126,78.47327582119732,171.86975820973126M83.76216471008621,171.9142026541757C84.20660915453067,170.0919804319535,85.31772026564178,166.3142026541757,86.6510535989751,165.95864709862013C86.82883137675287,166.00309154306458,87.71772026564176,166.8030915430646,87.139942487864,167.55864709862016C86.38438693230844,168.53642487639792,85.85105359897511,170.0919804319535,85.53994248786398,172.18086932084236C86.69549804341955,172.53642487639792,87.76216471008621,171.86975820973126,88.78438693230845,172.4030915430646C89.40660915453066,172.4030915430646,89.76216471008621,172.53642487639792,89.76216471008621,172.8030915430646C89.71772026564179,173.64753598750903,87.80660915453066,173.60309154306458,87.22883137675288,173.8253137652868C86.78438693230845,173.86975820973126,85.18438693230843,173.8253137652868,84.82883137675287,174.26975820973126C84.38438693230844,175.33642487639793,84.6510535989751,177.24753598750902,83.93994248786399,178.62531376528682C83.00660915453065,178.49198043195346,82.78438693230845,178.66975820973127,82.78438693230845,177.73642487639793C82.78438693230845,177.33642487639793,82.87327582119732,176.1364248763979,83.139942487864,174.1364248763979C82.47327582119732,173.55864709862016,79.53994248786398,174.53642487639792,79.71772026564176,172.93642487639792C79.89549804341954,171.24753598750902,82.87327582119732,173.2030915430646,83.76216471008621,171.9142026541757C83.76216471008621,171.9142026541757,83.76216471008621,171.9142026541757,83.76216471008621,171.9142026541757M91.3621647100862,169.29198043195348C91.67327582119731,170.0919804319535,91.76216471008621,170.3142026541757,91.13994248786398,170.98086932084237C90.11772026564176,170.7142026541757,90.20660915453064,170.18086932084236,90.6510535989751,169.38086932084238C90.73994248786397,169.38086932084238,91.00660915453065,169.33642487639793,91.3621647100862,169.29198043195348C91.3621647100862,169.29198043195348,91.3621647100862,169.29198043195348,91.3621647100862,169.29198043195348M90.11772026564176,178.26975820973126C89.31772026564175,177.33642487639793,89.76216471008621,175.02531376528682,90.07327582119731,173.55864709862016C90.38438693230842,173.1142026541757,90.9621647100862,173.2030915430646,91.09549804341952,173.8253137652868C91.0510535989751,175.4253137652868,91.40660915453066,177.02531376528682,91.00660915453065,178.44753598750904C90.6510535989751,178.53642487639792,90.6510535989751,178.44753598750904,90.11772026564176,178.26975820973126C90.11772026564176,178.26975820973126,90.11772026564176,178.26975820973126,90.11772026564176,178.26975820973126M97.53994248786398,172.53642487639792C99.18438693230843,172.8030915430646,100.29549804341954,174.93642487639792,100.29549804341954,177.46975820973125C100.29549804341954,178.89198043195347,99.58438693230843,178.58086932084237,98.91772026564178,178.2253137652868C98.11772026564176,176.89198043195347,98.69549804341955,176.2253137652868,97.93994248786399,174.44753598750904C96.29549804341954,173.86975820973126,94.78438693230845,176.89198043195347,93.85105359897511,177.33642487639793C92.96216471008623,177.2030915430646,92.11772026564176,175.60309154306458,92.91772026564178,174.58086932084237C93.00660915453065,174.04753598750904,93.0510535989751,173.9142026541757,93.40660915453066,173.24753598750902C93.93994248786399,172.89198043195347,94.29549804341954,173.73642487639793,94.69549804341955,173.78086932084236C94.69549804341955,173.78086932084236,97.53994248786398,172.53642487639792,97.53994248786398,172.53642487639792M106.29549804341954,176.0919804319535C106.73994248786397,176.26975820973126,108.91772026564175,177.9142026541757,109.18438693230843,178.3142026541757C109.22883137675288,178.62531376528682,108.91772026564175,179.06975820973125,108.6510535989751,179.06975820973125C108.6510535989751,179.06975820973125,105.98438693230841,177.73642487639793,105.98438693230841,177.73642487639793C105.00660915453065,177.8253137652868,104.11772026564176,178.66975820973127,103.09549804341952,178.58086932084237C101.62883137675286,178.75864709862014,100.07327582119731,175.60309154306458,102.42883137675287,174.98086932084237C104.25105359897509,173.78086932084236,106.69549804341955,173.24753598750902,107.31772026564175,175.38086932084238C107.31772026564175,175.64753598750903,107.13994248786398,175.9142026541757,106.82883137675287,176.0919804319535C105.3621647100862,174.98086932084237,103.85105359897508,175.86975820973126,102.91772026564175,176.62531376528682C103.3621647100862,177.33642487639793,105.62883137675286,175.8253137652868,106.29549804341954,176.0919804319535C106.29549804341954,176.0919804319535,106.29549804341954,176.0919804319535,106.29549804341954,176.0919804319535M113.2732758211973,171.9142026541757C113.71772026564176,170.0919804319535,114.82883137675287,166.3142026541757,116.16216471008619,165.95864709862013C116.33994248786396,166.00309154306458,117.22883137675285,166.8030915430646,116.6510535989751,167.55864709862016C115.89549804341954,168.53642487639792,115.3621647100862,170.0919804319535,115.05105359897507,172.18086932084236C116.20660915453064,172.53642487639792,117.2732758211973,171.86975820973126,118.29549804341954,172.4030915430646C118.91772026564175,172.4030915430646,119.2732758211973,172.53642487639792,119.2732758211973,172.8030915430646C119.22883137675285,173.64753598750903,117.31772026564175,173.60309154306458,116.73994248786397,173.8253137652868C116.29549804341954,173.86975820973126,114.69549804341952,173.8253137652868,114.33994248786396,174.26975820973126C113.89549804341954,175.33642487639793,114.16216471008619,177.24753598750902,113.45105359897508,178.62531376528682C112.51772026564174,178.49198043195346,112.29549804341954,178.66975820973127,112.29549804341954,177.73642487639793C112.29549804341954,177.33642487639793,112.38438693230842,176.1364248763979,112.6510535989751,174.1364248763979C111.98438693230841,173.55864709862016,109.05105359897507,174.53642487639792,109.22883137675285,172.93642487639792C109.40660915453063,171.24753598750902,112.38438693230842,173.2030915430646,113.2732758211973,171.9142026541757C113.2732758211973,171.9142026541757,113.2732758211973,171.9142026541757,113.2732758211973,171.9142026541757M120.87327582119732,169.29198043195348C121.18438693230843,170.0919804319535,121.27327582119733,170.3142026541757,120.6510535989751,170.98086932084237C119.62883137675288,170.7142026541757,119.71772026564176,170.18086932084236,120.16216471008622,169.38086932084238C120.25105359897509,169.38086932084238,120.51772026564177,169.33642487639793,120.87327582119732,169.29198043195348C120.87327582119732,169.29198043195348,120.87327582119732,169.29198043195348,120.87327582119732,169.29198043195348M119.62883137675288,178.26975820973126C118.82883137675287,177.33642487639793,119.27327582119733,175.02531376528682,119.58438693230843,173.55864709862016C119.89549804341954,173.1142026541757,120.47327582119732,173.2030915430646,120.60660915453064,173.8253137652868C120.56216471008622,175.4253137652868,120.91772026564178,177.02531376528682,120.51772026564177,178.44753598750904C120.16216471008622,178.53642487639792,120.16216471008622,178.44753598750904,119.62883137675288,178.26975820973126C119.62883137675288,178.26975820973126,119.62883137675288,178.26975820973126,119.62883137675288,178.26975820973126M126.47327582119735,172.4030915430646C128.78438693230845,171.33642487639793,131.09549804341955,173.2030915430646,131.09549804341955,175.2030915430646C131.09549804341955,177.8253137652868,128.16216471008622,178.18086932084236,126.02883137675289,178.89198043195347C123.71772026564179,178.8030915430646,120.91772026564178,176.66975820973127,122.47327582119735,174.2253137652868C123.49549804341956,173.4253137652868,124.78438693230845,172.66975820973124,126.47327582119735,172.4030915430646C126.47327582119735,172.4030915430646,126.47327582119735,172.4030915430646,126.47327582119735,172.4030915430646M123.67327582119734,175.9142026541757C124.38438693230844,178.3142026541757,129.22883137675288,176.62531376528682,129.49549804341956,174.89198043195347C128.96216471008623,172.26975820973126,123.76216471008624,174.53642487639792,123.67327582119734,175.9142026541757C123.67327582119734,175.9142026541757,123.67327582119734,175.9142026541757,123.67327582119734,175.9142026541757M136.69549804341952,172.53642487639792C138.33994248786396,172.8030915430646,139.45105359897508,174.93642487639792,139.45105359897508,177.46975820973125C139.45105359897508,178.89198043195347,138.73994248786397,178.58086932084237,138.0732758211973,178.2253137652868C137.2732758211973,176.89198043195347,137.85105359897508,176.2253137652868,137.09549804341952,174.44753598750904C135.45105359897508,173.86975820973126,133.939942487864,176.89198043195347,133.00660915453065,177.33642487639793C132.11772026564176,177.2030915430646,131.2732758211973,175.60309154306458,132.0732758211973,174.58086932084237C132.1621647100862,174.04753598750904,132.20660915453064,173.9142026541757,132.5621647100862,173.24753598750902C133.09549804341952,172.89198043195347,133.45105359897508,173.73642487639793,133.85105359897508,173.78086932084236C133.85105359897508,173.78086932084236,136.69549804341952,172.53642487639792,136.69549804341952,172.53642487639792" stroke="none" fill="#000000" style=""></path><rect style="" stroke="none" fill="#ffffff" ry="0" rx="0" r="0" height="12.629355281207097" width="10.923649526129637" y="202.7550805691277" x="115.99040539397369"></rect><path d="M124.08002003061766,202.89554696144592C125.59113114172878,202.45110251700146,127.36890891950655,204.00665807255706,126.16890891950656,205.16221362811257C125.3244644750621,206.58443585033484,123.7244644750621,207.3844358503348,122.08002003061766,208.2733247392237C123.3244644750621,208.89554696144592,127.23557558617323,209.3844358503348,126.88002003061767,211.3844358503348C127.23557558617323,212.00665807255706,124.7022422528399,213.16221362811257,124.08002003061766,213.51776918366818C122.79113114172877,213.91776918366816,118.30224225283989,214.49554696144594,116.61335336395099,215.3844358503348C116.34668669728433,215.16221362811257,115.76890891950656,215.07332473922372,116.08002003061766,214.40665807255704C118.56890891950654,212.806658072557,123.85779780839543,213.4733247392237,125.413353363951,211.02888029477924C125.013353363951,210.13999140589038,121.50224225283988,209.16221362811257,121.10224225283987,209.5622136281126C120.21335336395099,209.51776918366818,119.28002003061765,209.6511025170015,118.61335336395099,209.25110251700147C118.61335336395099,209.25110251700147,118.83557558617322,208.31776918366813,118.83557558617322,208.31776918366813C121.3244644750621,207.20665807255705,123.413353363951,206.71776918366817,124.9244644750621,204.8511025170015C124.96890891950655,204.806658072557,125.013353363951,204.62888029477926,125.10224225283987,204.3622136281126C124.43557558617321,203.73999140589035,122.61335336395099,204.6733247392237,121.59113114172878,204.3622136281126C121.14668669728432,204.7622136281126,118.34668669728434,205.33999140589037,117.50224225283988,205.73999140589035C117.013353363951,205.5622136281126,116.25779780839544,204.71776918366817,116.92446447506211,204.40665807255704C119.14668669728432,203.42888029477928,121.19113114172877,203.25110251700147,123.76890891950656,202.7622136281126C123.76890891950656,202.71776918366817,124.12446447506211,202.89554696144592,124.08002003061766,202.89554696144592C124.08002003061766,202.89554696144592,124.08002003061766,202.89554696144592,124.08002003061766,202.89554696144592" stroke="none" fill="#000000" style=""></path><path stroke-dasharray="0" marker-end="url(#raphael-marker-endblock55)" stroke-width="2" d="M77.22552679948754,216.69911349093837C77.74300134134492,213.30350468432638,120.97523364303791,219.68436429968096,160.6988172630531,217.07641041964348" stroke="#000000" fill="none" style=""></path><rect style="" stroke="none" fill="#ffffff" ry="0" rx="0" r="0" height="13.155555555555566" width="12.046107955008978" y="235.1213357131606" x="208.979696491272"></rect><path d="M212.1369155573921,237.34355793538282C211.82580444628096,238.09911349093838,210.8480266685032,240.67689126871616,210.67024889072542,241.61022460204947C210.67024889072542,241.87689126871615,210.80358222405874,241.96578015760502,211.02580444628097,241.96578015760502C212.93691555739207,241.87689126871615,215.9591377796143,242.2324468242717,217.29247111294762,241.69911349093837C218.04802666850318,239.61022460204947,218.1813600018365,237.25466904649392,220.09247111294763,235.1213357131606C220.49247111294764,235.29911349093837,220.80358222405874,235.4324468242717,221.02580444628097,235.56578015760505C220.2702488907254,236.9435579353828,219.07024889072542,239.78800237982725,218.7591377796143,241.8324468242717C219.07024889072542,242.01022460204948,219.82580444628096,241.65466904649392,219.78136000183653,242.27689126871616C219.73691555739208,242.98800237982726,218.49247111294764,242.8102246020495,218.40358222405874,243.29911349093837C217.9591377796143,244.27689126871616,218.00358222405873,246.36578015760503,218.09247111294763,247.87689126871615C217.9591377796143,247.96578015760502,217.78136000183653,248.09911349093838,217.64802666850318,248.27689126871616C215.5591377796143,247.78800237982725,216.62580444628097,244.98800237982726,216.93691555739207,243.2102246020495C216.93691555739207,243.03244682427172,216.8480266685032,242.9435579353828,216.62580444628097,242.9435579353828C213.73691555739208,243.03244682427172,212.67024889072542,243.5213357131606,209.42580444628098,243.1213357131606C208.4480266685032,242.1435579353828,209.33691555739208,240.76578015760504,209.64802666850318,239.74355793538282C210.3591377796143,239.07689126871614,210.40358222405874,237.2102246020495,211.20358222405875,236.6324468242717C211.4702488907254,236.58800237982726,212.1369155573921,237.1213357131606,212.1369155573921,237.34355793538282C212.1369155573921,237.34355793538282,212.1369155573921,237.34355793538282,212.1369155573921,237.34355793538282" stroke="none" fill="#000000" style=""></path><path stroke-dasharray="0" marker-end="url(#raphael-marker-endblock55)" stroke-width="2" d="M165.6789335145895,249.85466904649394C254.94134783541716,246.00124584694808,193.24071102463867,253.43714842732172,259.3425394610931,250.11291237370958" stroke="#000000" fill="none" style=""></path></svg>