<?xml version="1.0" encoding="utf-8" standalone="no"?><!DOCTYPE svg PUBLIC "-//W3C//DTD SVG 20010904//EN" "http://www.w3.org/TR/2001/REC-SVG-20010904/DTD/svg10.dtd"><svg xmlns="http://www.w3.org/2000/svg" width="378" height="330" xmlns:xlink="http://www.w3.org/1999/xlink"><source><![CDATA[Console->Debug: 1
Debug->Echo: 2
Note over Echo: swap source\nand destination
Echo->Debug: 3
Debug->Console: 4
]]></source><desc>Created with Raphaël 2.1.0</desc><defs><path id="raphael-marker-block" d="M5,0 0,2.5 5,5z" stroke-linecap="round"></path><marker refY="2.5" refX="2.5" orient="auto" markerWidth="5" markerHeight="5" id="raphael-marker-endblock55"><use stroke="none" fill="#000" stroke-width="1.0000" transform="rotate(180 2.5 2.5) scale(1,1)" xlink:href="#raphael-marker-block"></use></marker></defs><path stroke-width="2" d="M10,20C72.28612990116541,23.39403293489214,45.856442728707016,16.60596706510786,94.85082337230355,20C96.49451896498412,34.21044783265055,93.20712777962298,61.11605323315675,94.85082337230355,61.09238981701434C40.176955836972354,64.48642275190649,76.18474383026853,57.6983568821222,10,61.09238981701434C11.643695592680574,47.7795760174124,8.356304407319426,36.05219894369617,10,20" stroke="#000000" fill="#ffffff" style=""></path><rect style="" stroke="none" fill="#ffffff" ry="0" rx="0" r="0" height="13.679682971602055" width="64.85082337230355" y="33.70635342270615" x="19.999999999999986"></rect><path d="M21.889380904213148,42.008258616530426C21.356047570879817,45.341591949863755,26.156047570879814,45.386036394308206,29.267158681990928,45.16381417208598C29.267158681990928,45.16381417208598,35.71160312643537,44.719369727641535,35.71160312643537,44.719369727641535C36.11160312643538,44.80825861653042,36.11160312643538,44.94159194986376,36.11160312643538,45.51936972764153C34.46715868199093,46.31936972764154,32.33382534865759,46.763814172085986,31.267158681990928,46.49714750541932C30.46715868199093,46.94159194986376,29.17826979310204,46.94159194986376,28.111603126435377,46.94159194986376C26.822714237546485,46.94159194986376,25.08938090421315,46.9860363943082,23.444936459768705,46.45270306097487C23.17826979310204,46.40825861653043,23.000492015324262,46.31936972764154,23.000492015324262,46.097147505419315C21.533825348657594,45.51936972764153,20.86715868199093,44.630480838752646,20.067158681990925,43.474925283197095C19.222714237546484,38.408258616530425,26.55604757087982,36.80825861653042,30.022714237546488,35.60825861653042C31.57826979310203,35.60825861653042,33.9338253486576,34.23048083875265,34.42271423754648,35.91936972764154C34.37826979310204,37.20825861653043,32.2449364597687,36.54159194986376,31.0449364597687,37.16381417208598C28.600492015324257,37.51936972764153,25.933825348657592,38.719369727641535,23.267158681990928,40.319369727641536C22.689380904213152,40.6749252831971,22.244936459768702,41.252703060974866,21.889380904213148,42.008258616530426C21.889380904213148,42.008258616530426,21.889380904213148,42.008258616530426,21.889380904213148,42.008258616530426M41.13382534865759,40.89714750541931C43.444936459768705,39.83048083875265,45.75604757087981,41.69714750541931,45.75604757087981,43.69714750541931C45.75604757087981,46.31936972764154,42.822714237546485,46.6749252831971,40.689380904213145,47.386036394308206C38.37826979310204,47.29714750541932,35.57826979310203,45.16381417208598,37.13382534865759,42.719369727641535C38.156047570879814,41.91936972764154,39.444936459768705,41.16381417208598,41.13382534865759,40.89714750541931C41.13382534865759,40.89714750541931,41.13382534865759,40.89714750541931,41.13382534865759,40.89714750541931M38.33382534865759,44.40825861653043C39.0449364597687,46.80825861653042,43.88938090421315,45.11936972764154,44.156047570879814,43.386036394308206C43.62271423754648,40.763814172085986,38.42271423754648,43.03048083875265,38.33382534865759,44.40825861653043C38.33382534865759,44.40825861653043,38.33382534865759,44.40825861653043,38.33382534865759,44.40825861653043M51.35604757087982,41.03048083875265C53.00049201532426,41.29714750541932,54.11160312643536,43.43048083875264,54.11160312643536,45.963814172085975C54.11160312643536,47.386036394308206,53.400492015324254,47.07492528319709,52.7338253486576,46.719369727641535C51.933825348657585,45.386036394308206,52.51160312643537,44.719369727641535,51.75604757087981,42.94159194986376C50.11160312643538,42.36381417208598,48.60049201532426,45.386036394308206,47.66715868199092,45.83048083875265C46.778269793102034,45.69714750541931,45.933825348657585,44.097147505419315,46.7338253486576,43.07492528319709C46.822714237546485,42.54159194986376,46.86715868199092,42.408258616530425,47.22271423754648,41.74159194986376C47.75604757087981,41.386036394308206,48.11160312643538,42.23048083875265,48.51160312643537,42.27492528319709C48.51160312643537,42.27492528319709,51.35604757087982,41.03048083875265,51.35604757087982,41.03048083875265M61.44493645976872,40.36381417208598C62.289380904213154,40.408258616530425,62.64493645976872,41.43048083875264,62.02271423754649,41.786036394308205C61.84493645976871,41.83048083875265,61.044936459768714,41.96381417208598,59.667158681990934,42.097147505419315C58.956047570879825,42.45270306097487,58.68938090421316,42.008258616530426,57.9338253486576,42.49714750541931C58.956047570879825,43.43048083875264,61.88938090421316,43.20825861653043,62.200492015324265,45.252703060974866C61.6227142375465,46.31936972764154,58.422714237546494,46.80825861653042,56.68938090421316,47.11936972764154C56.289380904213154,46.9860363943082,55.88938090421316,46.9860363943082,55.48938090421316,47.11936972764154C55.22271423754649,46.94159194986376,54.55604757087982,46.40825861653043,55.1338253486576,46.008258616530426C56.46715868199093,45.74159194986376,58.8227142375465,45.43048083875264,59.667158681990934,44.94159194986376C58.91160312643539,44.230480838752655,56.11160312643538,43.474925283197095,55.35604757087983,42.80825861653042C55.22271423754649,42.719369727641535,55.178269793102054,42.49714750541931,55.178269793102054,42.14159194986376C54.91160312643539,41.87492528319709,55.31160312643538,41.56381417208598,55.84493645976871,41.341591949863755C56.8227142375465,40.94159194986376,60.02271423754649,40.319369727641536,61.44493645976872,40.36381417208598C61.44493645976872,40.36381417208598,61.44493645976872,40.36381417208598,61.44493645976872,40.36381417208598M67.75604757087982,40.89714750541931C70.06715868199095,39.83048083875265,72.37826979310205,41.69714750541931,72.37826979310205,43.69714750541931C72.37826979310205,46.31936972764154,69.44493645976871,46.6749252831971,67.31160312643539,47.386036394308206C65.00049201532428,47.29714750541932,62.200492015324265,45.16381417208598,63.75604757087982,42.719369727641535C64.77826979310206,41.91936972764154,66.06715868199095,41.16381417208598,67.75604757087982,40.89714750541931C67.75604757087982,40.89714750541931,67.75604757087982,40.89714750541931,67.75604757087982,40.89714750541931M64.95604757087983,44.40825861653043C65.66715868199094,46.80825861653042,70.51160312643538,45.11936972764154,70.77826979310206,43.386036394308206C70.24493645976872,40.763814172085986,65.0449364597687,43.03048083875265,64.95604757087983,44.40825861653043C64.95604757087983,44.40825861653043,64.95604757087983,44.40825861653043,64.95604757087983,44.40825861653043M75.53382534865761,33.74159194986376C76.46715868199092,33.474925283197095,77.17826979310206,34.763814172085986,76.86715868199093,36.1860363943082C76.4227142375465,38.45270306097487,75.62271423754649,42.1860363943082,75.62271423754649,45.43048083875264C75.62271423754649,45.91936972764154,75.88938090421317,47.03048083875265,75.0449364597687,47.07492528319709C73.75604757087982,46.852703060974875,73.71160312643539,44.94159194986376,73.93382534865759,43.386036394308206C73.93382534865759,43.386036394308206,75.17826979310206,35.51936972764153,75.17826979310206,35.51936972764153C74.91160312643538,34.763814172085986,75.22271423754648,34.23048083875265,75.53382534865761,33.74159194986376C75.53382534865761,33.74159194986376,75.53382534865761,33.74159194986376,75.53382534865761,33.74159194986376M77.31160312643539,44.54159194986376C77.31160312643539,41.96381417208598,79.57826979310204,41.386036394308206,82.20049201532427,41.252703060974866C83.66715868199094,41.20825861653043,84.20049201532427,41.96381417208598,84.82271423754648,42.80825861653042C84.86715868199093,43.43048083875264,84.91160312643538,44.54159194986376,84.51160312643538,44.6749252831971C83.44493645976871,44.58603639430821,81.26715868199094,45.252703060974866,80.11160312643537,45.16381417208598C80.0227142375465,45.252703060974866,80.0227142375465,45.29714750541932,80.0227142375465,45.29714750541932C80.0227142375465,45.43048083875264,80.55604757087983,45.65270306097487,81.66715868199094,45.963814172085975C82.60049201532428,45.963814172085975,84.7338253486576,46.36381417208598,83.0449364597687,46.94159194986376C82.6449364597687,47.56381417208598,81.53382534865761,47.20825861653043,80.55604757087983,47.20825861653043C79.35604757087984,46.9860363943082,77.31160312643539,45.963814172085975,77.31160312643539,44.54159194986376C77.31160312643539,44.54159194986376,77.31160312643539,44.54159194986376,77.31160312643539,44.54159194986376M82.60049201532428,42.54159194986376C81.62271423754649,42.630480838752646,79.57826979310204,42.763814172085986,79.71160312643539,43.69714750541931C80.77826979310206,43.60825861653042,82.6449364597687,43.91936972764154,83.22271423754648,43.43048083875264C83.00049201532428,42.852703060974875,83.17826979310206,42.852703060974875,82.60049201532428,42.54159194986376C82.60049201532428,42.54159194986376,82.60049201532428,42.54159194986376,82.60049201532428,42.54159194986376" stroke="none" fill="#000000" style=""></path><path stroke-width="2" d="M10,269.85466904649394C21.858429177013573,266.4606361116018,46.16621025528102,273.2487019813861,94.85082337230355,269.85466904649394C93.20712777962298,292.8450948695822,96.49451896498412,270.1212918090002,94.85082337230355,310.9470588635083C32.3141578809911,307.55302592861614,29.77383453327207,314.34109179840044,10,310.9470588635083C8.356304407319426,272.29266476445497,11.643695592680574,278.34305287804074,10,269.85466904649394" stroke="#000000" fill="#ffffff" style=""></path><rect style="" stroke="none" fill="#ffffff" ry="0" rx="0" r="0" height="13.679682971602062" width="64.85082337230355" y="283.5610224692001" x="19.999999999999986"></rect><path d="M21.889380904213148,291.8629276630244C21.356047570879817,295.1962609963577,26.156047570879814,295.2407054408022,29.267158681990928,295.01848321857995C29.267158681990928,295.01848321857995,35.71160312643537,294.5740387741355,35.71160312643537,294.5740387741355C36.11160312643538,294.6629276630244,36.11160312643538,294.7962609963577,36.11160312643538,295.3740387741355C34.46715868199093,296.1740387741355,32.33382534865759,296.6184832185799,31.267158681990928,296.35181655191326C30.46715868199093,296.7962609963577,29.17826979310204,296.7962609963577,28.111603126435377,296.7962609963577C26.822714237546485,296.7962609963577,25.08938090421315,296.84070544080214,23.444936459768705,296.30737210746884C23.17826979310204,296.26292766302436,23.000492015324262,296.1740387741355,23.000492015324262,295.9518165519133C21.533825348657594,295.3740387741355,20.86715868199093,294.4851498852466,20.067158681990925,293.329594329691C19.222714237546484,288.26292766302436,26.55604757087982,286.6629276630244,30.022714237546488,285.4629276630244C31.57826979310203,285.4629276630244,33.9338253486576,284.0851498852466,34.42271423754648,285.7740387741355C34.37826979310204,287.06292766302437,32.2449364597687,286.3962609963577,31.0449364597687,287.01848321857995C28.600492015324257,287.3740387741355,25.933825348657592,288.5740387741355,23.267158681990928,290.1740387741355C22.689380904213152,290.52959432969107,22.244936459768702,291.10737210746885,21.889380904213148,291.8629276630244C21.889380904213148,291.8629276630244,21.889380904213148,291.8629276630244,21.889380904213148,291.8629276630244M41.13382534865759,290.75181655191324C43.444936459768705,289.6851498852466,45.75604757087981,291.55181655191325,45.75604757087981,293.55181655191325C45.75604757087981,296.1740387741355,42.822714237546485,296.52959432969107,40.689380904213145,297.2407054408022C38.37826979310204,297.15181655191327,35.57826979310203,295.01848321857995,37.13382534865759,292.5740387741355C38.156047570879814,291.7740387741355,39.444936459768705,291.01848321857995,41.13382534865759,290.75181655191324C41.13382534865759,290.75181655191324,41.13382534865759,290.75181655191324,41.13382534865759,290.75181655191324M38.33382534865759,294.26292766302436C39.0449364597687,296.6629276630244,43.88938090421315,294.97403877413547,44.156047570879814,293.2407054408022C43.62271423754648,290.6184832185799,38.42271423754648,292.8851498852466,38.33382534865759,294.26292766302436C38.33382534865759,294.26292766302436,38.33382534865759,294.26292766302436,38.33382534865759,294.26292766302436M51.35604757087982,290.8851498852466C53.00049201532426,291.15181655191327,54.11160312643536,293.2851498852466,54.11160312643536,295.81848321857996C54.11160312643536,297.2407054408022,53.400492015324254,296.92959432969104,52.7338253486576,296.5740387741355C51.933825348657585,295.2407054408022,52.51160312643537,294.5740387741355,51.75604757087981,292.7962609963577C50.11160312643538,292.21848321857993,48.60049201532426,295.2407054408022,47.66715868199092,295.6851498852466C46.778269793102034,295.55181655191325,45.933825348657585,293.9518165519133,46.7338253486576,292.92959432969104C46.822714237546485,292.3962609963577,46.86715868199092,292.26292766302436,47.22271423754648,291.5962609963577C47.75604757087981,291.2407054408022,48.11160312643538,292.0851498852466,48.51160312643537,292.12959432969103C48.51160312643537,292.12959432969103,51.35604757087982,290.8851498852466,51.35604757087982,290.8851498852466M61.44493645976872,290.21848321857993C62.289380904213154,290.26292766302436,62.64493645976872,291.2851498852466,62.02271423754649,291.64070544080215C61.84493645976871,291.6851498852466,61.044936459768714,291.81848321857996,59.667158681990934,291.9518165519133C58.956047570879825,292.30737210746884,58.68938090421316,291.8629276630244,57.9338253486576,292.35181655191326C58.956047570879825,293.2851498852466,61.88938090421316,293.06292766302437,62.200492015324265,295.10737210746885C61.6227142375465,296.1740387741355,58.422714237546494,296.6629276630244,56.68938090421316,296.97403877413547C56.289380904213154,296.84070544080214,55.88938090421316,296.84070544080214,55.48938090421316,296.97403877413547C55.22271423754649,296.7962609963577,54.55604757087982,296.26292766302436,55.1338253486576,295.8629276630244C56.46715868199093,295.5962609963577,58.8227142375465,295.2851498852466,59.667158681990934,294.7962609963577C58.91160312643539,294.0851498852466,56.11160312643538,293.329594329691,55.35604757087983,292.6629276630244C55.22271423754649,292.5740387741355,55.178269793102054,292.35181655191326,55.178269793102054,291.9962609963577C54.91160312643539,291.72959432969105,55.31160312643538,291.4184832185799,55.84493645976871,291.1962609963577C56.8227142375465,290.7962609963577,60.02271423754649,290.1740387741355,61.44493645976872,290.21848321857993C61.44493645976872,290.21848321857993,61.44493645976872,290.21848321857993,61.44493645976872,290.21848321857993M67.75604757087982,290.75181655191324C70.06715868199095,289.6851498852466,72.37826979310205,291.55181655191325,72.37826979310205,293.55181655191325C72.37826979310205,296.1740387741355,69.44493645976871,296.52959432969107,67.31160312643539,297.2407054408022C65.00049201532428,297.15181655191327,62.200492015324265,295.01848321857995,63.75604757087982,292.5740387741355C64.77826979310206,291.7740387741355,66.06715868199095,291.01848321857995,67.75604757087982,290.75181655191324C67.75604757087982,290.75181655191324,67.75604757087982,290.75181655191324,67.75604757087982,290.75181655191324M64.95604757087983,294.26292766302436C65.66715868199094,296.6629276630244,70.51160312643538,294.97403877413547,70.77826979310206,293.2407054408022C70.24493645976872,290.6184832185799,65.0449364597687,292.8851498852466,64.95604757087983,294.26292766302436C64.95604757087983,294.26292766302436,64.95604757087983,294.26292766302436,64.95604757087983,294.26292766302436M75.53382534865761,283.5962609963577C76.46715868199092,283.329594329691,77.17826979310206,284.6184832185799,76.86715868199093,286.0407054408021C76.4227142375465,288.30737210746884,75.62271423754649,292.0407054408021,75.62271423754649,295.2851498852466C75.62271423754649,295.7740387741355,75.88938090421317,296.8851498852466,75.0449364597687,296.92959432969104C73.75604757087982,296.7073721074688,73.71160312643539,294.7962609963577,73.93382534865759,293.2407054408022C73.93382534865759,293.2407054408022,75.17826979310206,285.3740387741355,75.17826979310206,285.3740387741355C74.91160312643538,284.6184832185799,75.22271423754648,284.0851498852466,75.53382534865761,283.5962609963577C75.53382534865761,283.5962609963577,75.53382534865761,283.5962609963577,75.53382534865761,283.5962609963577M77.31160312643539,294.3962609963577C77.31160312643539,291.81848321857996,79.57826979310204,291.2407054408022,82.20049201532427,291.10737210746885C83.66715868199094,291.06292766302437,84.20049201532427,291.81848321857996,84.82271423754648,292.6629276630244C84.86715868199093,293.2851498852466,84.91160312643538,294.3962609963577,84.51160312643538,294.52959432969107C83.44493645976871,294.44070544080216,81.26715868199094,295.10737210746885,80.11160312643537,295.01848321857995C80.0227142375465,295.10737210746885,80.0227142375465,295.15181655191327,80.0227142375465,295.15181655191327C80.0227142375465,295.2851498852466,80.55604757087983,295.5073721074688,81.66715868199094,295.81848321857996C82.60049201532428,295.81848321857996,84.7338253486576,296.21848321857993,83.0449364597687,296.7962609963577C82.6449364597687,297.4184832185799,81.53382534865761,297.06292766302437,80.55604757087983,297.06292766302437C79.35604757087984,296.84070544080214,77.31160312643539,295.81848321857996,77.31160312643539,294.3962609963577C77.31160312643539,294.3962609963577,77.31160312643539,294.3962609963577,77.31160312643539,294.3962609963577M82.60049201532428,292.3962609963577C81.62271423754649,292.4851498852466,79.57826979310204,292.6184832185799,79.71160312643539,293.55181655191325C80.77826979310206,293.4629276630244,82.6449364597687,293.7740387741355,83.22271423754648,293.2851498852466C83.00049201532428,292.7073721074688,83.17826979310206,292.7073721074688,82.60049201532428,292.3962609963577C82.60049201532428,292.3962609963577,82.60049201532428,292.3962609963577,82.60049201532428,292.3962609963577" stroke="none" fill="#000000" style=""></path><path stroke-width="2" d="M52.425411686151776,61.09238981701435C44.07492051697259,195.34353326302218,60.77590285533096,196.50421716908573,52.425411686151776,269.85466904649394" stroke="#000000" fill="none" style=""></path><path stroke-width="2" d="M114.85082337230355,20C149.89787492090574,22.89777777777778,123.41027734664189,17.10222222222222,187.295267816748,20C185.65157222406742,43.46523444070614,188.9389634094286,51.101841110974625,187.295267816748,61.09238981701434C119.43633215326034,58.19461203923657,153.61792616197124,63.99016759479212,114.85082337230355,61.09238981701434C116.49451896498412,33.323322236455404,113.20712777962298,35.27279331888593,114.85082337230355,20" stroke="#000000" fill="#ffffff" style=""></path><rect style="" stroke="none" fill="#ffffff" ry="0" rx="0" r="0" height="21.092389817014347" width="52.444444444444414" y="30.000000000000004" x="124.85082337230357"></rect><path d="M138.53971226119245,39.5493268932721C138.45082337230355,39.59377133771655,138.40637892785912,39.86043800438321,138.095267816748,39.771549115494324C138.3619344834147,39.63821578216099,138.53971226119245,39.59377133771655,138.53971226119245,39.5493268932721C138.53971226119245,39.5493268932721,138.53971226119245,39.5493268932721,138.53971226119245,39.5493268932721M124.85082337230357,31.815993559938768C124.93971226119247,30.615993559938772,128.53971226119245,30.127104671049885,129.5619344834147,30.08266022660544C135.33971226119246,29.771549115494324,141.42860115008136,30.127104671049885,142.49526781674803,34.92710467104988C142.49526781674803,34.92710467104988,142.40637892785912,35.28266022660544,142.3619344834147,36.038215782161C142.13971226119247,36.438215782160995,142.1841567056369,37.28266022660544,141.33971226119246,37.5493268932721C141.16193448341465,37.72710467104989,141.25082337230356,37.77154911549433,141.02860115008133,37.5493268932721C140.895267816748,37.682660226605435,140.3619344834147,37.86043800438322,140.8063789278591,37.99377133771655C140.8063789278591,37.99377133771655,140.3619344834147,38.61599355993877,140.22860115008132,38.08266022660544C139.73971226119244,38.127104671049885,139.87304559452576,38.30488244882766,139.33971226119246,38.70488244882766C139.38415670563688,38.79377133771655,139.6508233723036,38.838215782160994,139.73971226119244,38.749326893272105C139.5619344834147,39.32710467104988,138.76193448341468,39.32710467104988,139.25082337230356,38.92710467104988C139.25082337230356,38.79377133771655,139.29526781674804,38.66043800438322,139.11749003897023,38.70488244882766C137.33971226119246,39.993771337716545,134.53971226119245,40.39377133771655,132.85082337230358,41.59377133771655C133.29526781674804,41.86043800438321,133.82860115008134,41.28266022660544,134.3619344834147,41.460438004383214C132.53971226119245,42.34932689327211,128.71749003897025,43.41599355993877,126.76193448341469,43.50488244882766C125.82860115008135,43.5493268932721,124.67304559452579,42.038215782161,126.27304559452578,41.771549115494324C126.93971226119247,41.682660226605435,128.1841567056369,41.50488244882766,128.76193448341468,41.28266022660544C128.05082337230357,36.79377133771655,128.53971226119245,35.50488244882766,129.16193448341465,32.08266022660544C129.25082337230356,32.08266022660544,129.33971226119246,32.038215782161,129.42860115008136,31.949326893272108C128.71749003897025,31.193771337716548,125.3841567056369,33.63821578216099,124.85082337230357,31.815993559938768C124.85082337230357,31.815993559938768,124.85082337230357,31.815993559938768,124.85082337230357,31.815993559938768M137.87304559452576,39.9493268932721C137.5619344834147,40.082660226605434,137.11749003897023,40.30488244882766,136.76193448341468,40.26043800438322C136.8063789278591,40.30488244882766,136.895267816748,40.34932689327211,136.9841567056369,40.34932689327211C136.8063789278591,40.438215782160995,136.49526781674803,40.57154911549433,135.96193448341467,40.749326893272105C136.13971226119247,40.26043800438322,137.29526781674804,39.81599355993877,137.87304559452576,39.9493268932721C137.87304559452576,39.9493268932721,137.87304559452576,39.9493268932721,137.87304559452576,39.9493268932721M135.33971226119246,40.749326893272105C135.78415670563692,40.749326893272105,135.87304559452576,40.838215782160994,135.33971226119246,41.01599355993877C135.33971226119246,41.01599355993877,135.33971226119246,40.749326893272105,135.33971226119246,40.749326893272105C135.33971226119246,40.749326893272105,135.33971226119246,40.749326893272105,135.33971226119246,40.749326893272105M134.45082337230355,41.41599355993877C134.40637892785912,41.28266022660544,134.62860115008135,41.149326893272104,134.71749003897025,41.28266022660544C134.71749003897025,41.32710467104988,134.62860115008135,41.32710467104988,134.45082337230355,41.41599355993877C134.45082337230355,41.41599355993877,134.45082337230355,41.41599355993877,134.45082337230355,41.41599355993877M130.22860115008132,40.88266022660544C130.93971226119248,41.149326893272104,136.31749003897022,38.838215782160994,137.11749003897023,38.527104671049884C138.40637892785912,37.72710467104989,141.6063789278591,36.57154911549433,140.76193448341468,34.39377133771655C139.82860115008134,32.038215782161,137.02860115008133,31.682660226605435,133.29526781674804,31.41599355993877C132.40637892785912,31.72710467104988,131.0730455945258,31.549326893272102,129.87304559452576,31.771549115494324C131.33971226119246,34.17154911549433,129.33971226119246,37.63821578216099,130.22860115008132,40.88266022660544C130.22860115008132,40.88266022660544,130.22860115008132,40.88266022660544,130.22860115008132,40.88266022660544M131.73971226119244,42.038215782161C131.5619344834147,41.993771337716545,131.0730455945258,41.81599355993877,131.0730455945258,42.127104671049885C131.38415670563688,42.08266022660544,131.6063789278591,42.038215782161,131.73971226119244,42.038215782161C131.73971226119244,42.038215782161,131.73971226119244,42.038215782161,131.73971226119244,42.038215782161M141.78415670563692,40.48266022660544C141.78415670563692,37.904882448827664,144.05082337230357,37.32710467104988,146.67304559452577,37.19377133771655C148.13971226119247,37.149326893272104,148.67304559452577,37.904882448827664,149.29526781674804,38.749326893272105C149.33971226119246,39.371549115494325,149.38415670563688,40.48266022660544,148.9841567056369,40.61599355993877C147.91749003897024,40.527104671049884,145.73971226119244,41.19377133771655,144.58415670563693,41.10488244882766C144.49526781674803,41.19377133771655,144.49526781674803,41.23821578216099,144.49526781674803,41.23821578216099C144.49526781674803,41.371549115494325,145.02860115008133,41.59377133771655,146.13971226119247,41.90488244882766C147.0730455945258,41.90488244882766,149.20637892785913,42.30488244882766,147.5174900389702,42.88266022660544C147.11749003897023,43.50488244882766,146.00637892785915,43.149326893272104,145.02860115008133,43.149326893272104C143.82860115008134,42.92710467104988,141.78415670563692,41.90488244882766,141.78415670563692,40.48266022660544C141.78415670563692,40.48266022660544,141.78415670563692,40.48266022660544,141.78415670563692,40.48266022660544M147.0730455945258,38.48266022660544C146.095267816748,38.57154911549433,144.05082337230357,38.70488244882766,144.1841567056369,39.63821578216099C145.25082337230356,39.5493268932721,147.11749003897023,39.86043800438321,147.69526781674801,39.371549115494325C147.4730455945258,38.79377133771655,147.6508233723036,38.79377133771655,147.0730455945258,38.48266022660544C147.0730455945258,38.48266022660544,147.0730455945258,38.48266022660544,147.0730455945258,38.48266022660544M153.25082337230356,36.79377133771655C156.31749003897028,36.838215782160994,158.71749003897025,36.79377133771655,159.20637892785913,39.10488244882766C159.42860115008136,40.26043800438322,156.05082337230357,42.26043800438322,154.895267816748,42.215993559938774C154.40637892785912,42.70488244882766,150.9841567056369,43.19377133771655,150.71749003897025,43.19377133771655C150.22860115008137,43.060438004383215,149.5619344834147,42.39377133771655,150.4508233723036,42.127104671049885C151.29526781674804,41.90488244882766,150.3619344834147,41.28266022660544,150.40637892785912,40.57154911549433C150.4508233723036,39.771549115494324,150.895267816748,38.97154911549433,150.1841567056369,38.48266022660544C149.91749003897024,37.72710467104989,149.91749003897024,37.5493268932721,150.80637892785916,37.060438004383215C151.0730455945258,35.060438004383215,151.6063789278591,33.10488244882766,152.05082337230357,31.549326893272102C152.13971226119247,31.238215782160992,152.40637892785912,31.01599355993877,152.80637892785916,30.882660226605438C153.02860115008139,31.01599355993877,153.25082337230356,31.371549115494325,153.51749003897027,32.127104671049885C152.9841567056369,33.32710467104988,152.93971226119248,34.92710467104988,152.49526781674803,36.39377133771655C152.49526781674803,36.66043800438322,152.76193448341468,36.79377133771655,153.25082337230356,36.79377133771655C153.25082337230356,36.79377133771655,153.25082337230356,36.79377133771655,153.25082337230356,36.79377133771655M153.5619344834147,38.26043800438322C151.78415670563692,37.86043800438322,152.1841567056369,39.63821578216099,151.82860115008134,40.66043800438322C152.1841567056369,41.32710467104988,151.82860115008134,41.771549115494324,152.3619344834147,41.63821578216099C153.69526781674801,41.28266022660544,155.02860115008139,40.838215782160994,156.2730455945258,40.215993559938774C158.00637892785915,39.41599355993877,158.4508233723036,38.749326893272105,156.22860115008137,38.34932689327211C155.33971226119246,38.17154911549433,154.22860115008137,38.038215782161,153.5619344834147,38.26043800438322C153.5619344834147,38.26043800438322,153.5619344834147,38.26043800438322,153.5619344834147,38.26043800438322M168.53971226119245,36.97154911549433C168.49526781674803,36.88266022660544,169.02860115008139,36.34932689327211,169.1619344834147,36.39377133771655C169.42860115008136,36.39377133771655,169.60637892785917,36.70488244882766,169.60637892785917,37.371549115494325C169.4730455945258,39.149326893272104,168.58415670563693,39.86043800438321,167.82860115008134,41.01599355993877C167.25082337230356,41.86043800438321,165.0730455945258,42.92710467104988,163.69526781674801,42.92710467104988C160.71749003897025,42.838215782160994,158.76193448341468,39.59377133771655,160.53971226119245,37.01599355993877C161.69526781674801,36.88266022660544,161.4730455945258,38.30488244882766,161.38415670563694,39.19377133771655C161.33971226119246,40.39377133771655,162.53971226119245,41.149326893272104,163.91749003897024,41.060438004383215C165.7397122611925,40.97154911549433,168.05082337230357,38.61599355993877,168.53971226119245,36.97154911549433C168.53971226119245,36.97154911549433,168.53971226119245,36.97154911549433,168.53971226119245,36.97154911549433M175.96193448341467,38.70488244882766C177.29526781674798,39.90488244882766,176.895267816748,42.038215782161,177.29526781674798,43.90488244882766C176.76193448341468,45.28266022660544,176.8063789278591,46.838215782160994,175.69526781674801,48.48266022660544C174.2730455945258,50.527104671049884,171.02860115008133,52.17154911549433,168.2730455945258,50.215993559938774C166.895267816748,49.28266022660544,166.095267816748,48.92710467104988,166.0063789278591,46.88266022660544C165.91749003897024,45.23821578216099,169.42860115008136,44.66043800438322,171.38415670563688,44.34932689327211C173.02860115008133,44.08266022660544,174.40637892785912,43.90488244882766,175.6063789278591,43.86043800438321C175.91749003897024,43.59377133771655,175.73971226119244,42.438215782160995,175.78415670563692,41.81599355993877C175.78415670563692,41.81599355993877,175.73971226119244,41.86043800438321,175.73971226119244,41.90488244882766C175.73971226119244,41.10488244882766,175.5174900389702,40.527104671049884,175.11749003897023,39.90488244882766C173.16193448341465,40.127104671049885,171.6063789278591,40.79377133771655,170.93971226119243,39.10488244882766C171.0730455945258,36.70488244882766,174.1841567056369,36.70488244882766,176.49526781674803,36.88266022660544C177.02860115008133,37.19377133771655,177.02860115008133,37.460438004383214,176.67304559452577,37.99377133771655C175.33971226119246,37.50488244882766,173.29526781674798,38.34932689327211,172.67304559452577,38.88266022660544C173.69526781674801,39.01599355993877,174.895267816748,38.17154911549433,175.96193448341467,38.70488244882766C175.96193448341467,38.70488244882766,175.96193448341467,38.70488244882766,175.96193448341467,38.70488244882766M168.58415670563687,48.39377133771655C171.25082337230356,50.749326893272105,176.05082337230357,48.438215782160995,175.65082337230353,44.57154911549433C173.5619344834147,44.26043800438322,171.5174900389702,45.63821578216099,169.33971226119246,45.90488244882766C168.8063789278591,46.215993559938774,167.33971226119246,46.749326893272105,167.4730455945258,47.19377133771655C167.4730455945258,47.63821578216099,167.82860115008134,48.038215782161,168.58415670563687,48.39377133771655C168.58415670563687,48.39377133771655,168.58415670563687,48.39377133771655,168.58415670563687,48.39377133771655" stroke="none" fill="#000000" style=""></path><path stroke-width="2" d="M114.85082337230355,269.85466904649394C149.03690543508924,272.7524468242717,153.25597667736494,266.95689126871616,187.295267816748,269.85466904649394C185.65157222406742,307.27806744844077,188.9389634094286,297.9644891584946,187.295267816748,310.9470588635083C165.93927603173358,313.84483664128607,158.47799015719957,308.0492810857305,114.85082337230355,310.9470588635083C116.49451896498412,283.1247344802516,113.20712777962298,305.1182184572493,114.85082337230355,269.85466904649394" stroke="#000000" fill="#ffffff" style=""></path><rect style="" stroke="none" fill="#ffffff" ry="0" rx="0" r="0" height="21.09238981701435" width="52.444444444444414" y="279.854669046494" x="124.85082337230357"></rect><path d="M138.53971226119245,289.4039959397661C138.45082337230355,289.4484403842105,138.40637892785912,289.7151070508772,138.095267816748,289.6262181619883C138.3619344834147,289.49288482865495,138.53971226119245,289.4484403842105,138.53971226119245,289.4039959397661C138.53971226119245,289.4039959397661,138.53971226119245,289.4039959397661,138.53971226119245,289.4039959397661M124.85082337230357,281.67066260643276C124.93971226119247,280.47066260643277,128.53971226119245,279.98177371754383,129.5619344834147,279.9373292730994C135.33971226119246,279.6262181619883,141.42860115008136,279.98177371754383,142.49526781674803,284.78177371754384C142.49526781674803,284.78177371754384,142.40637892785912,285.1373292730994,142.3619344834147,285.892884828655C142.13971226119247,286.29288482865496,142.1841567056369,287.1373292730994,141.33971226119246,287.4039959397661C141.16193448341465,287.58177371754385,141.25082337230356,287.6262181619883,141.02860115008133,287.4039959397661C140.895267816748,287.53732927309943,140.3619344834147,287.7151070508772,140.8063789278591,287.8484403842105C140.8063789278591,287.8484403842105,140.3619344834147,288.47066260643277,140.22860115008132,287.9373292730994C139.73971226119244,287.98177371754383,139.87304559452576,288.15955149532164,139.33971226119246,288.5595514953216C139.38415670563688,288.6484403842105,139.6508233723036,288.69288482865494,139.73971226119244,288.6039959397661C139.5619344834147,289.1817737175439,138.76193448341468,289.1817737175439,139.25082337230356,288.78177371754384C139.25082337230356,288.6484403842105,139.29526781674804,288.5151070508772,139.11749003897023,288.5595514953216C137.33971226119246,289.8484403842105,134.53971226119245,290.24844038421054,132.85082337230358,291.4484403842105C133.29526781674804,291.7151070508772,133.82860115008134,291.1373292730994,134.3619344834147,291.3151070508772C132.53971226119245,292.20399593976606,128.71749003897025,293.2706626064327,126.76193448341469,293.3595514953216C125.82860115008135,293.4039959397661,124.67304559452579,291.892884828655,126.27304559452578,291.6262181619883C126.93971226119247,291.53732927309943,128.1841567056369,291.3595514953216,128.76193448341468,291.1373292730994C128.05082337230357,286.6484403842105,128.53971226119245,285.3595514953216,129.16193448341465,281.9373292730994C129.25082337230356,281.9373292730994,129.33971226119246,281.892884828655,129.42860115008136,281.8039959397661C128.71749003897025,281.04844038421055,125.3841567056369,283.49288482865495,124.85082337230357,281.67066260643276C124.85082337230357,281.67066260643276,124.85082337230357,281.67066260643276,124.85082337230357,281.67066260643276M137.87304559452576,289.8039959397661C137.5619344834147,289.9373292730994,137.11749003897023,290.15955149532164,136.76193448341468,290.1151070508772C136.8063789278591,290.15955149532164,136.895267816748,290.20399593976606,136.9841567056369,290.20399593976606C136.8063789278591,290.29288482865496,136.49526781674803,290.4262181619883,135.96193448341467,290.6039959397661C136.13971226119247,290.1151070508772,137.29526781674804,289.67066260643276,137.87304559452576,289.8039959397661C137.87304559452576,289.8039959397661,137.87304559452576,289.8039959397661,137.87304559452576,289.8039959397661M135.33971226119246,290.6039959397661C135.78415670563692,290.6039959397661,135.87304559452576,290.69288482865494,135.33971226119246,290.87066260643275C135.33971226119246,290.87066260643275,135.33971226119246,290.6039959397661,135.33971226119246,290.6039959397661C135.33971226119246,290.6039959397661,135.33971226119246,290.6039959397661,135.33971226119246,290.6039959397661M134.45082337230355,291.2706626064327C134.40637892785912,291.1373292730994,134.62860115008135,291.00399593976607,134.71749003897025,291.1373292730994C134.71749003897025,291.1817737175439,134.62860115008135,291.1817737175439,134.45082337230355,291.2706626064327C134.45082337230355,291.2706626064327,134.45082337230355,291.2706626064327,134.45082337230355,291.2706626064327M130.22860115008132,290.7373292730994C130.93971226119248,291.00399593976607,136.31749003897022,288.69288482865494,137.11749003897023,288.38177371754387C138.40637892785912,287.58177371754385,141.6063789278591,286.4262181619883,140.76193448341468,284.24844038421054C139.82860115008134,281.892884828655,137.02860115008133,281.53732927309943,133.29526781674804,281.2706626064327C132.40637892785912,281.58177371754385,131.0730455945258,281.4039959397661,129.87304559452576,281.6262181619883C131.33971226119246,284.0262181619883,129.33971226119246,287.49288482865495,130.22860115008132,290.7373292730994C130.22860115008132,290.7373292730994,130.22860115008132,290.7373292730994,130.22860115008132,290.7373292730994M131.73971226119244,291.892884828655C131.5619344834147,291.8484403842105,131.0730455945258,291.67066260643276,131.0730455945258,291.98177371754383C131.38415670563688,291.9373292730994,131.6063789278591,291.892884828655,131.73971226119244,291.892884828655C131.73971226119244,291.892884828655,131.73971226119244,291.892884828655,131.73971226119244,291.892884828655M141.78415670563692,290.3373292730994C141.78415670563692,287.75955149532166,144.05082337230357,287.1817737175439,146.67304559452577,287.04844038421055C148.13971226119247,287.00399593976607,148.67304559452577,287.75955149532166,149.29526781674804,288.6039959397661C149.33971226119246,289.2262181619883,149.38415670563688,290.3373292730994,148.9841567056369,290.47066260643277C147.91749003897024,290.38177371754387,145.73971226119244,291.04844038421055,144.58415670563693,290.95955149532165C144.49526781674803,291.04844038421055,144.49526781674803,291.092884828655,144.49526781674803,291.092884828655C144.49526781674803,291.2262181619883,145.02860115008133,291.4484403842105,146.13971226119247,291.75955149532166C147.0730455945258,291.75955149532166,149.20637892785913,292.15955149532164,147.5174900389702,292.7373292730994C147.11749003897023,293.3595514953216,146.00637892785915,293.00399593976607,145.02860115008133,293.00399593976607C143.82860115008134,292.78177371754384,141.78415670563692,291.75955149532166,141.78415670563692,290.3373292730994C141.78415670563692,290.3373292730994,141.78415670563692,290.3373292730994,141.78415670563692,290.3373292730994M147.0730455945258,288.3373292730994C146.095267816748,288.4262181619883,144.05082337230357,288.5595514953216,144.1841567056369,289.49288482865495C145.25082337230356,289.4039959397661,147.11749003897023,289.7151070508772,147.69526781674801,289.2262181619883C147.4730455945258,288.6484403842105,147.6508233723036,288.6484403842105,147.0730455945258,288.3373292730994C147.0730455945258,288.3373292730994,147.0730455945258,288.3373292730994,147.0730455945258,288.3373292730994M153.25082337230356,286.6484403842105C156.31749003897028,286.69288482865494,158.71749003897025,286.6484403842105,159.20637892785913,288.95955149532165C159.42860115008136,290.1151070508772,156.05082337230357,292.1151070508772,154.895267816748,292.07066260643273C154.40637892785912,292.5595514953216,150.9841567056369,293.04844038421055,150.71749003897025,293.04844038421055C150.22860115008137,292.91510705087717,149.5619344834147,292.24844038421054,150.4508233723036,291.98177371754383C151.29526781674804,291.75955149532166,150.3619344834147,291.1373292730994,150.40637892785912,290.4262181619883C150.4508233723036,289.6262181619883,150.895267816748,288.8262181619883,150.1841567056369,288.3373292730994C149.91749003897024,287.58177371754385,149.91749003897024,287.4039959397661,150.80637892785916,286.91510705087717C151.0730455945258,284.91510705087717,151.6063789278591,282.95955149532165,152.05082337230357,281.4039959397661C152.13971226119247,281.092884828655,152.40637892785912,280.87066260643275,152.80637892785916,280.7373292730994C153.02860115008139,280.87066260643275,153.25082337230356,281.2262181619883,153.51749003897027,281.98177371754383C152.9841567056369,283.1817737175439,152.93971226119248,284.78177371754384,152.49526781674803,286.24844038421054C152.49526781674803,286.5151070508772,152.76193448341468,286.6484403842105,153.25082337230356,286.6484403842105C153.25082337230356,286.6484403842105,153.25082337230356,286.6484403842105,153.25082337230356,286.6484403842105M153.5619344834147,288.1151070508772C151.78415670563692,287.7151070508772,152.1841567056369,289.49288482865495,151.82860115008134,290.5151070508772C152.1841567056369,291.1817737175439,151.82860115008134,291.6262181619883,152.3619344834147,291.49288482865495C153.69526781674801,291.1373292730994,155.02860115008139,290.69288482865494,156.2730455945258,290.07066260643273C158.00637892785915,289.2706626064327,158.4508233723036,288.6039959397661,156.22860115008137,288.20399593976606C155.33971226119246,288.0262181619883,154.22860115008137,287.892884828655,153.5619344834147,288.1151070508772C153.5619344834147,288.1151070508772,153.5619344834147,288.1151070508772,153.5619344834147,288.1151070508772M168.53971226119245,286.8262181619883C168.49526781674803,286.7373292730994,169.02860115008139,286.20399593976606,169.1619344834147,286.24844038421054C169.42860115008136,286.24844038421054,169.60637892785917,286.5595514953216,169.60637892785917,287.2262181619883C169.4730455945258,289.00399593976607,168.58415670563693,289.7151070508772,167.82860115008134,290.87066260643275C167.25082337230356,291.7151070508772,165.0730455945258,292.78177371754384,163.69526781674801,292.78177371754384C160.71749003897025,292.69288482865494,158.76193448341468,289.4484403842105,160.53971226119245,286.87066260643275C161.69526781674801,286.7373292730994,161.4730455945258,288.15955149532164,161.38415670563694,289.04844038421055C161.33971226119246,290.24844038421054,162.53971226119245,291.00399593976607,163.91749003897024,290.91510705087717C165.7397122611925,290.8262181619883,168.05082337230357,288.47066260643277,168.53971226119245,286.8262181619883C168.53971226119245,286.8262181619883,168.53971226119245,286.8262181619883,168.53971226119245,286.8262181619883M175.96193448341467,288.5595514953216C177.29526781674798,289.75955149532166,176.895267816748,291.892884828655,177.29526781674798,293.75955149532166C176.76193448341468,295.1373292730994,176.8063789278591,296.69288482865494,175.69526781674801,298.3373292730994C174.2730455945258,300.38177371754387,171.02860115008133,302.0262181619883,168.2730455945258,300.07066260643273C166.895267816748,299.1373292730994,166.095267816748,298.78177371754384,166.0063789278591,296.7373292730994C165.91749003897024,295.092884828655,169.42860115008136,294.5151070508772,171.38415670563688,294.20399593976606C173.02860115008133,293.9373292730994,174.40637892785912,293.75955149532166,175.6063789278591,293.7151070508772C175.91749003897024,293.4484403842105,175.73971226119244,292.29288482865496,175.78415670563692,291.67066260643276C175.78415670563692,291.67066260643276,175.73971226119244,291.7151070508772,175.73971226119244,291.75955149532166C175.73971226119244,290.95955149532165,175.5174900389702,290.38177371754387,175.11749003897023,289.75955149532166C173.16193448341465,289.98177371754383,171.6063789278591,290.6484403842105,170.93971226119243,288.95955149532165C171.0730455945258,286.5595514953216,174.1841567056369,286.5595514953216,176.49526781674803,286.7373292730994C177.02860115008133,287.04844038421055,177.02860115008133,287.3151070508772,176.67304559452577,287.8484403842105C175.33971226119246,287.3595514953216,173.29526781674798,288.20399593976606,172.67304559452577,288.7373292730994C173.69526781674801,288.87066260643275,174.895267816748,288.0262181619883,175.96193448341467,288.5595514953216C175.96193448341467,288.5595514953216,175.96193448341467,288.5595514953216,175.96193448341467,288.5595514953216M168.58415670563687,298.24844038421054C171.25082337230356,300.6039959397661,176.05082337230357,298.29288482865496,175.65082337230353,294.4262181619883C173.5619344834147,294.1151070508772,171.5174900389702,295.49288482865495,169.33971226119246,295.75955149532166C168.8063789278591,296.07066260643273,167.33971226119246,296.6039959397661,167.4730455945258,297.04844038421055C167.4730455945258,297.49288482865495,167.82860115008134,297.892884828655,168.58415670563687,298.24844038421054C168.58415670563687,298.24844038421054,168.58415670563687,298.24844038421054,168.58415670563687,298.24844038421054" stroke="none" fill="#000000" style=""></path><path stroke-width="2" d="M151.07304559452578,61.09238981701435C159.42353676370496,212.2832635920289,142.7225544253466,268.9261293217026,151.07304559452578,269.85466904649394" stroke="#000000" fill="none" style=""></path><path stroke-width="2" d="M207.295267816748,20C241.26500715839003,17.421505240569623,261.1307187459589,22.578494759430377,271.7576368025074,20C270.11394120982686,41.005244799863235,273.401332395188,24.349497664094844,271.7576368025074,61.09238981701434C255.51597975159115,58.513895057583966,213.9722702351607,63.67088457644472,207.295267816748,61.09238981701434C205.65157222406742,42.50717731995554,208.9389634094286,44.10176452325035,207.295267816748,20" stroke="#000000" fill="#ffffff" style=""></path><rect style="" stroke="none" fill="#ffffff" ry="0" rx="0" r="0" height="14.361520167041554" width="44.462368985759355" y="33.3654348249864" x="217.29526781674807"></rect><path d="M218.86874791361856,37.41584388091684C218.02430346917413,35.815843880916844,220.37985902472968,35.593621658694616,221.66874791361857,35.815843880916844C223.6243034691741,35.3713994364724,227.57985902472967,35.46028832536129,230.29097013584078,35.14917721425017C230.4243034691741,35.23806610313906,231.97985902472965,35.63806610313907,232.6020812469519,35.815843880916844C229.35763680250744,36.66028832536129,225.0020812469519,36.74917721425018,221.66874791361857,37.50473276980573C221.26874791361854,37.99362165869462,220.95763680250747,38.92695499202796,220.77985902472966,40.21584388091684C222.3354145802852,40.70473276980573,226.69097013584076,39.94917721425018,228.913192358063,40.349177214250176C228.95763680250747,40.61584388091684,229.0020812469519,40.66028832536129,229.0465256913963,40.971399436472396C227.0020812469519,42.038066103139066,223.8020812469519,41.682510547583504,220.46874791361853,42.1713994364724C219.8020812469519,42.74917721425018,219.49097013584077,44.482510547583516,219.49097013584077,45.104732769805736C222.15763680250745,45.14917721425017,224.86874791361856,44.215843880916836,227.84652569139632,44.215843880916836C228.82430346917408,44.66028832536129,230.20208124695188,43.90473276980573,231.13541458028521,44.438066103139064C231.84652569139632,45.726954992027956,230.11319235806303,45.593621658694616,229.22430346917412,45.86028832536128C225.97985902472965,46.03806610313906,223.0465256913963,46.438066103139064,219.6243034691741,47.060288325361284C219.6243034691741,47.060288325361284,217.31319235806302,46.61584388091684,217.31319235806302,46.61584388091684C217.13541458028521,45.63806610313907,218.3354145802852,43.54917721425018,218.46874791361853,42.26028832536129C218.3354145802852,42.26028832536129,218.02430346917413,41.593621658694616,217.93541458028523,41.193621658694624C218.82430346917408,40.66028832536129,219.44652569139635,40.1713994364724,219.49097013584077,38.21584388091684C219.57985902472967,38.1713994364724,219.713192358063,37.99362165869462,219.713192358063,37.90473276980573C219.713192358063,37.726954992027956,219.0909701358408,37.41584388091684,218.86874791361856,37.41584388091684C218.86874791361856,37.41584388091684,218.86874791361856,37.41584388091684,218.86874791361856,37.41584388091684M238.2465256913963,41.682510547583504C239.5354145802852,41.3713994364724,239.89097013584075,42.971399436472396,238.77985902472966,43.14917721425017C237.57985902472967,42.971399436472396,237.0020812469519,43.41584388091684,235.26874791361854,44.26028832536129C234.913192358063,44.438066103139064,234.69097013584076,44.74917721425018,234.55763680250743,45.23806610313906C235.89097013584075,46.66028832536129,238.60208124695185,45.3713994364724,240.513192358063,45.726954992027956C240.73541458028524,46.30473276980574,240.15763680250745,46.88251054758351,239.5354145802852,46.571399436472404C237.26874791361854,47.682510547583504,233.35763680250744,47.815843880916844,232.86874791361856,45.23806610313906C233.13541458028521,43.01584388091685,235.93541458028523,41.593621658694616,238.2465256913963,41.682510547583504C238.2465256913963,41.682510547583504,238.2465256913963,41.682510547583504,238.2465256913963,41.682510547583504M245.62430346917415,33.3713994364724C246.11319235806303,33.28251054758351,246.0687479136186,34.21584388091684,246.11319235806303,34.26028832536129C245.62430346917415,36.571399436472404,244.33541458028526,40.1713994364724,243.75763680250748,42.66028832536129C243.49097013584083,43.99362165869462,243.3576368025075,44.30473276980574,243.3576368025075,44.74917721425018C244.5576368025075,44.74917721425018,248.37985902472968,43.23806610313906,249.71319235806305,43.23806610313906C251.57985902472967,43.23806610313906,251.0909701358408,45.32695499202795,251.44652569139635,46.74917721425018C251.44652569139635,46.92695499202796,251.22430346917412,47.50473276980573,250.73541458028524,47.46028832536129C250.91319235806304,47.54917721425018,251.22430346917412,47.593621658694616,250.91319235806304,47.726954992027956C249.84652569139638,47.682510547583504,249.66874791361857,46.21584388091685,249.8020812469519,44.88251054758351C249.75763680250748,44.83806610313907,249.71319235806305,44.74917721425018,249.57985902472967,44.66028832536129C247.31319235806302,44.66028832536129,244.69097013584081,46.349177214250176,242.37985902472968,46.92695499202796C241.9798590247297,46.971399436472396,241.71319235806305,46.26028832536129,241.66874791361857,45.90473276980573C242.42430346917416,41.94917721425018,243.40208124695192,39.63806610313907,244.82430346917414,34.1713994364724C244.82430346917414,33.77139943647239,245.0909701358408,33.32695499202795,245.62430346917415,33.3713994364724C245.62430346917415,33.3713994364724,245.62430346917415,33.3713994364724,245.62430346917415,33.3713994364724M257.1354145802852,40.971399436472396C259.4465256913963,39.90473276980573,261.7576368025074,41.77139943647239,261.7576368025074,43.77139943647239C261.7576368025074,46.39362165869463,258.8243034691741,46.74917721425018,256.69097013584076,47.46028832536129C254.37985902472963,47.3713994364724,251.57985902472967,45.23806610313906,253.13541458028521,42.79362165869462C254.1576368025074,41.99362165869462,255.4465256913963,41.23806610313906,257.1354145802852,40.971399436472396C257.1354145802852,40.971399436472396,257.1354145802852,40.971399436472396,257.1354145802852,40.971399436472396M254.3354145802852,44.482510547583516C255.0465256913963,46.88251054758351,259.89097013584075,45.193621658694624,260.1576368025074,43.46028832536129C259.6243034691741,40.83806610313907,254.4243034691741,43.104732769805736,254.3354145802852,44.482510547583516C254.3354145802852,44.482510547583516,254.3354145802852,44.482510547583516,254.3354145802852,44.482510547583516" stroke="none" fill="#000000" style=""></path><path stroke-width="2" d="M207.295267816748,269.85466904649394C226.5143546559997,272.4331638059243,217.11977014488852,267.27617428706355,271.7576368025074,269.85466904649394C270.11394120982686,284.8357422331506,273.401332395188,292.9853009982723,271.7576368025074,310.9470588635083C244.7120102432195,313.5255536229387,232.4985887448585,308.3685641040779,207.295267816748,310.9470588635083C205.65157222406742,287.20698657489623,208.9389634094286,285.9755911974914,207.295267816748,269.85466904649394" stroke="#000000" fill="#ffffff" style=""></path><rect style="" stroke="none" fill="#ffffff" ry="0" rx="0" r="0" height="14.361520167041647" width="44.462368985759355" y="283.22010387148026" x="217.29526781674807"></rect><path d="M218.86874791361856,287.2705129274108C218.02430346917413,285.67051292741075,220.37985902472968,285.4482907051886,221.66874791361857,285.67051292741075C223.6243034691741,285.2260684829663,227.57985902472967,285.31495737185526,230.29097013584078,285.0038462607441C230.4243034691741,285.092735149633,231.97985902472965,285.49273514963295,232.6020812469519,285.67051292741075C229.35763680250744,286.5149573718552,225.0020812469519,286.60384626074415,221.66874791361857,287.3594018162996C221.26874791361854,287.84829070518856,220.95763680250747,288.78162403852184,220.77985902472966,290.07051292741073C222.3354145802852,290.55940181629967,226.69097013584076,289.8038462607441,228.913192358063,290.20384626074406C228.95763680250747,290.4705129274107,229.0020812469519,290.5149573718552,229.0465256913963,290.8260684829663C227.0020812469519,291.89273514963304,223.8020812469519,291.53717959407743,220.46874791361853,292.02606848296637C219.8020812469519,292.60384626074415,219.49097013584077,294.3371795940774,219.49097013584077,294.95940181629965C222.15763680250745,295.0038462607441,224.86874791361856,294.07051292741073,227.84652569139632,294.07051292741073C228.82430346917408,294.5149573718552,230.20208124695188,293.7594018162996,231.13541458028521,294.292735149633C231.84652569139632,295.5816240385219,230.11319235806303,295.4482907051886,229.22430346917412,295.71495737185523C225.97985902472965,295.89273514963304,223.0465256913963,296.292735149633,219.6243034691741,296.91495737185517C219.6243034691741,296.91495737185517,217.31319235806302,296.4705129274107,217.31319235806302,296.4705129274107C217.13541458028521,295.49273514963295,218.3354145802852,293.4038462607441,218.46874791361853,292.1149573718552C218.3354145802852,292.1149573718552,218.02430346917413,291.4482907051886,217.93541458028523,291.0482907051885C218.82430346917408,290.5149573718552,219.44652569139635,290.02606848296637,219.49097013584077,288.07051292741073C219.57985902472967,288.02606848296637,219.713192358063,287.84829070518856,219.713192358063,287.7594018162996C219.713192358063,287.5816240385219,219.0909701358408,287.2705129274108,218.86874791361856,287.2705129274108C218.86874791361856,287.2705129274108,218.86874791361856,287.2705129274108,218.86874791361856,287.2705129274108M238.2465256913963,291.53717959407743C239.5354145802852,291.2260684829663,239.89097013584075,292.8260684829663,238.77985902472966,293.0038462607441C237.57985902472967,292.8260684829663,237.0020812469519,293.2705129274108,235.26874791361854,294.1149573718552C234.913192358063,294.292735149633,234.69097013584076,294.60384626074415,234.55763680250743,295.092735149633C235.89097013584075,296.5149573718552,238.60208124695185,295.2260684829663,240.513192358063,295.5816240385219C240.73541458028524,296.1594018162997,240.15763680250745,296.7371795940775,239.5354145802852,296.42606848296634C237.26874791361854,297.53717959407743,233.35763680250744,297.67051292741075,232.86874791361856,295.092735149633C233.13541458028521,292.8705129274108,235.93541458028523,291.4482907051886,238.2465256913963,291.53717959407743C238.2465256913963,291.53717959407743,238.2465256913963,291.53717959407743,238.2465256913963,291.53717959407743M245.62430346917415,283.2260684829663C246.11319235806303,283.13717959407745,246.0687479136186,284.07051292741073,246.11319235806303,284.1149573718552C245.62430346917415,286.42606848296634,244.33541458028526,290.02606848296637,243.75763680250748,292.5149573718552C243.49097013584083,293.84829070518856,243.3576368025075,294.1594018162997,243.3576368025075,294.60384626074415C244.5576368025075,294.60384626074415,248.37985902472968,293.092735149633,249.71319235806305,293.092735149633C251.57985902472967,293.092735149633,251.0909701358408,295.18162403852193,251.44652569139635,296.60384626074415C251.44652569139635,296.78162403852184,251.22430346917412,297.3594018162996,250.73541458028524,297.31495737185526C250.91319235806304,297.4038462607441,251.22430346917412,297.4482907051886,250.91319235806304,297.5816240385219C249.84652569139638,297.53717959407743,249.66874791361857,296.07051292741073,249.8020812469519,294.7371795940775C249.75763680250748,294.692735149633,249.71319235806305,294.60384626074415,249.57985902472967,294.5149573718552C247.31319235806302,294.5149573718552,244.69097013584081,296.20384626074406,242.37985902472968,296.78162403852184C241.9798590247297,296.8260684829663,241.71319235806305,296.1149573718552,241.66874791361857,295.7594018162996C242.42430346917416,291.8038462607441,243.40208124695192,289.49273514963295,244.82430346917414,284.02606848296637C244.82430346917414,283.6260684829663,245.0909701358408,283.18162403852193,245.62430346917415,283.2260684829663C245.62430346917415,283.2260684829663,245.62430346917415,283.2260684829663,245.62430346917415,283.2260684829663M257.1354145802852,290.8260684829663C259.4465256913963,289.7594018162996,261.7576368025074,291.6260684829663,261.7576368025074,293.6260684829663C261.7576368025074,296.24829070518854,258.8243034691741,296.60384626074415,256.69097013584076,297.31495737185526C254.37985902472963,297.2260684829663,251.57985902472967,295.092735149633,253.13541458028521,292.6482907051885C254.1576368025074,291.84829070518856,255.4465256913963,291.092735149633,257.1354145802852,290.8260684829663C257.1354145802852,290.8260684829663,257.1354145802852,290.8260684829663,257.1354145802852,290.8260684829663M254.3354145802852,294.3371795940774C255.0465256913963,296.7371795940775,259.89097013584075,295.0482907051885,260.1576368025074,293.31495737185526C259.6243034691741,290.692735149633,254.4243034691741,292.95940181629965,254.3354145802852,294.3371795940774C254.3354145802852,294.3371795940774,254.3354145802852,294.3371795940774,254.3354145802852,294.3371795940774" stroke="none" fill="#000000" style=""></path><path stroke-width="2" d="M239.52645230962773,61.09238981701435C247.8769434788069,222.04051242576347,231.17596114044855,189.18134685990697,239.52645230962773,269.85466904649394" stroke="#000000" fill="none" style=""></path><rect style="" stroke="none" fill="#ffffff" ry="0" rx="0" r="0" height="11.008049653975363" width="2.3198385828117836" y="80.58836499002666" x="100.58930934893287"></rect><path d="M101.17581459841134,82.54583998821278C101.17581459841134,81.92361776599054,101.44248126507799,79.92361776599054,102.46470348730023,80.81250665487946C102.59803682063355,80.99028443265723,102.73137015396688,81.39028443265721,102.90914793174466,81.87917332154612C102.90914793174466,81.87917332154612,101.9313701539669,87.56806221043499,101.9313701539669,87.56806221043499C101.9313701539669,87.56806221043499,102.28692570952245,91.43472887710166,102.28692570952245,91.43472887710166C102.10914793174467,91.70139554376834,101.88692570952244,91.56806221043499,101.57581459841134,91.52361776599056C99.62025904285576,89.83472887710167,101.17581459841134,85.43472887710166,101.17581459841134,82.54583998821278C101.17581459841134,82.54583998821278,101.17581459841134,82.54583998821278,101.17581459841134,82.54583998821278" stroke="none" fill="#000000" style=""></path><path stroke-dasharray="0" marker-end="url(#raphael-marker-endblock55)" stroke-width="2" d="M52.425411686151776,92.1004394709897C125.0352096911697,95.97120307493351,63.25126221016126,88.45080835809149,146.08352860497624,91.88772901817727" stroke="#000000" fill="none" style=""></path><rect style="" stroke="none" fill="#ffffff" ry="0" rx="0" r="0" height="12.320385405408231" width="11.002557811793707" y="110.94024676828558" x="189.79847004617992"></rect><path d="M193.33436119130698,121.88285439591603C195.42325008019588,121.43840995147158,198.62325008019587,120.81618772924936,200.80102785797362,121.48285439591604C200.80102785797362,122.01618772924937,199.77880563575144,122.0606321736938,199.24547230241808,122.19396550702714C199.28991674686256,122.23840995147158,199.3788056357514,122.23840995147158,199.4676945246403,122.23840995147158C196.17880563575142,122.59396550702714,194.2232500801959,123.2606321736938,190.8454723024181,123.2606321736938C190.2232500801959,123.2606321736938,189.9565834135292,122.68285439591602,189.91213896908476,122.01618772924937C192.35658341352922,120.23840995147158,193.60102785797363,119.30507661813824,195.3788056357514,117.39396550702713C196.53436119130697,116.81618772924936,198.26769452464032,114.41618772924936,198.53436119130697,112.8606321736938C198.48991674686255,112.46063217369381,198.0454723024181,112.14952106258269,197.5565834135292,112.14952106258269C196.6676945246403,112.10507661813826,192.2232500801959,113.43840995147158,190.62325008019587,114.32729884036047C190.17880563575142,114.23840995147158,189.28991674686256,113.43840995147158,190.17880563575142,113.08285439591603C192.40102785797365,112.14952106258269,195.11213896908475,110.81618772924936,198.0899167468625,110.94952106258269C199.20102785797366,111.39396550702713,200.0454723024181,111.92729884036048,199.68991674686254,112.68285439591602C200.2232500801959,114.01618772924937,198.8454723024181,115.52729884036047,198.17880563575142,116.37174328480492C196.44547230241807,118.50507661813825,196.53436119130697,118.10507661813826,193.06769452464033,121.21618772924936C193.06769452464033,121.43840995147158,192.934361191307,121.57174328480492,192.71213896908478,121.70507661813825C192.88991674686253,121.83840995147159,193.06769452464033,121.88285439591603,193.33436119130698,121.88285439591603C193.33436119130698,121.88285439591603,193.33436119130698,121.88285439591603,193.33436119130698,121.88285439591603" stroke="none" fill="#000000" style=""></path><path stroke-dasharray="0" marker-end="url(#raphael-marker-endblock55)" stroke-width="2" d="M151.07304559452578,124.42082487639792C195.91127533022427,121.28349310697165,220.47595326602797,126.49195405230823,234.6027685667195,125.24546594482041" stroke="#000000" fill="none" style=""></path><path stroke-width="2" d="M172.3009255101402,144.42082487639792C208.14622932657213,139.04278273243892,306.3384218691683,149.7988670203569,306.75197910911527,144.42082487639792C308.3379364424486,155.58867290394744,305.1660217757819,185.17732111510003,306.75197910911527,184.06975820973125C199.22533033881106,189.44780035369024,286.1210093765198,178.69171606577225,172.3009255101402,184.06975820973125C173.88688284347353,182.424678356068,170.71496817680685,153.77153354304926,172.3009255101402,144.42082487639792" stroke="#000000" fill="#ffffff" style=""></path><rect style="" stroke="none" fill="#ffffff" ry="0" rx="0" r="0" height="29.648933333333332" width="124.45105359897508" y="149.42082487639792" x="177.3009255101402"></rect><path d="M183.84086799800417,149.86526932084237C184.68531244244863,149.90971376528682,185.0408679980042,150.93193598750904,184.41864577578195,151.2874915430646C184.24086799800418,151.33193598750904,183.4408679980042,151.46526932084237,182.0630902202264,151.5986026541757C181.3519791091153,151.95415820973125,181.08531244244864,151.50971376528682,180.32975688689308,151.9986026541757C181.3519791091153,152.93193598750904,184.28531244244863,152.7097137652868,184.59642355355973,154.75415820973126C184.01864577578195,155.82082487639792,180.81864577578196,156.3097137652868,179.08531244244864,156.62082487639793C178.68531244244863,156.48749154306458,178.28531244244863,156.48749154306458,177.88531244244862,156.62082487639793C177.61864577578197,156.44304709862016,176.95197910911529,155.90971376528682,177.52975688689307,155.50971376528682C178.8630902202264,155.24304709862014,181.21864577578197,154.93193598750904,182.0630902202264,154.44304709862016C181.30753466467084,153.73193598750905,178.50753466467086,152.9763804319535,177.7519791091153,152.3097137652868C177.61864577578197,152.22082487639793,177.57420133133752,151.9986026541757,177.57420133133752,151.64304709862014C177.30753466467084,151.3763804319535,177.70753466467085,151.06526932084236,178.24086799800418,150.84304709862016C179.21864577578197,150.44304709862016,182.41864577578195,149.82082487639792,183.84086799800417,149.86526932084237C183.84086799800417,149.86526932084237,183.84086799800417,149.86526932084237,183.84086799800417,149.86526932084237M186.01864577578195,150.3986026541757C187.70753466467085,150.3097137652868,187.21864577578197,152.93193598750904,188.01864577578195,154.22082487639793C189.3519791091153,154.3097137652868,190.99642355355974,151.2874915430646,192.50753466467086,150.75415820973126C193.66309022022642,151.02082487639794,194.10753466467082,153.82082487639792,195.17420133133749,154.22082487639793C197.2630902202264,152.66526932084236,197.4408679980042,151.82082487639792,200.46309022022638,149.5986026541757C200.59642355355976,149.5986026541757,200.7742013313375,149.50971376528682,201.12975688689306,149.42082487639792C201.9742013313375,150.44304709862016,200.72975688689309,150.66526932084236,200.19642355355973,151.5986026541757C198.72975688689309,152.84304709862016,197.17420133133749,155.5986026541757,195.4408679980042,156.44304709862016C194.99642355355974,156.7097137652868,193.12975688689306,154.35415820973125,192.2408679980042,153.2874915430646C191.3519791091153,154.04304709862015,188.4630902202264,156.57638043195348,187.92975688689307,156.53193598750903C186.24086799800418,156.84304709862016,186.10753466467085,152.17638043195348,185.61864577578197,151.1097137652868C185.61864577578197,151.06526932084236,185.7519791091153,150.7986026541757,186.01864577578195,150.3986026541757C186.01864577578195,150.3986026541757,186.01864577578195,150.3986026541757,186.01864577578195,150.3986026541757M205.30753466467087,154.0874915430646C205.75197910911533,154.26526932084238,207.92975688689307,155.90971376528682,208.19642355355973,156.3097137652868C208.2408679980042,156.62082487639793,207.92975688689307,157.06526932084236,207.66309022022642,157.06526932084236C207.66309022022642,157.06526932084236,204.99642355355974,155.73193598750905,204.99642355355974,155.73193598750905C204.01864577578198,155.82082487639792,203.12975688689306,156.66526932084238,202.10753466467088,156.57638043195348C200.64086799800418,156.75415820973126,199.08531244244864,153.5986026541757,201.4408679980042,152.9763804319535C203.2630902202264,151.77638043195347,205.70753466467085,151.24304709862014,206.3297568868931,153.3763804319535C206.3297568868931,153.64304709862014,206.1519791091153,153.90971376528682,205.84086799800417,154.0874915430646C204.37420133133753,152.9763804319535,202.8630902202264,153.86526932084237,201.92975688689307,154.62082487639793C202.37420133133753,155.33193598750904,204.64086799800418,153.82082487639792,205.30753466467087,154.0874915430646C205.30753466467087,154.0874915430646,205.30753466467087,154.0874915430646,205.30753466467087,154.0874915430646M212.1519791091153,157.19860265417572C211.70753466467085,157.73193598750905,211.79642355355975,162.3986026541757,211.08531244244864,163.50971376528682C210.41864577578195,163.5986026541757,210.2408679980042,163.50971376528682,209.79642355355975,162.93193598750904C209.79642355355975,159.55415820973127,210.19642355355973,157.90971376528682,210.7742013313375,154.3986026541757C211.39642355355977,153.19860265417572,212.32975688689305,154.13193598750902,212.41864577578195,154.9763804319535C212.41864577578195,155.33193598750904,212.28531244244863,155.90971376528682,212.10753466467088,156.66526932084238C212.19642355355973,156.75415820973126,212.2408679980042,156.75415820973126,212.28531244244863,156.75415820973126C213.4408679980042,156.35415820973125,217.4408679980042,155.2874915430646,217.88531244244865,153.55415820973127C217.57420133133752,152.7986026541757,216.818645775782,152.0874915430646,215.70753466467085,152.17638043195348C213.92975688689307,152.3097137652868,210.55197910911528,152.75415820973126,210.55197910911528,154.26526932084238C210.32975688689305,154.57638043195348,210.46309022022643,155.02082487639794,209.84086799800417,155.15415820973126C209.08531244244864,154.62082487639793,209.04086799800422,154.26526932084238,209.30753466467087,153.46526932084237C209.66309022022642,152.35415820973125,212.59642355355976,150.75415820973126,214.19642355355973,150.84304709862016C216.64086799800418,150.17638043195348,219.21864577578197,151.50971376528682,219.4408679980042,153.95415820973125C218.7742013313375,156.26526932084238,215.70753466467085,157.46526932084237,212.9519791091153,157.64304709862014C212.72975688689309,157.64304709862014,212.46309022022643,157.46526932084237,212.1519791091153,157.19860265417572C212.1519791091153,157.19860265417572,212.1519791091153,157.19860265417572,212.1519791091153,157.19860265417572M234.46309022022638,149.86526932084237C235.3075346646708,149.90971376528682,235.66309022022637,150.93193598750904,235.04086799800416,151.2874915430646C234.8630902202264,151.33193598750904,234.0630902202264,151.46526932084237,232.6853124424486,151.5986026541757C231.9742013313375,151.95415820973125,231.70753466467085,151.50971376528682,230.95197910911526,151.9986026541757C231.9742013313375,152.93193598750904,234.90753466467083,152.7097137652868,235.21864577578197,154.75415820973126C234.64086799800418,155.82082487639792,231.44086799800414,156.3097137652868,229.70753466467085,156.62082487639793C229.3075346646708,156.48749154306458,228.90753466467083,156.48749154306458,228.50753466467086,156.62082487639793C228.24086799800415,156.44304709862016,227.57420133133752,155.90971376528682,228.1519791091153,155.50971376528682C229.48531244244862,155.24304709862014,231.84086799800417,154.93193598750904,232.6853124424486,154.44304709862016C231.92975688689307,153.73193598750905,229.12975688689306,152.9763804319535,228.37420133133747,152.3097137652868C228.24086799800415,152.22082487639793,228.19642355355973,151.9986026541757,228.19642355355973,151.64304709862014C227.92975688689307,151.3763804319535,228.32975688689305,151.06526932084236,228.8630902202264,150.84304709862016C229.84086799800417,150.44304709862016,233.04086799800416,149.82082487639792,234.46309022022638,149.86526932084237C234.46309022022638,149.86526932084237,234.46309022022638,149.86526932084237,234.46309022022638,149.86526932084237M240.7742013313375,150.3986026541757C243.08531244244858,149.33193598750904,245.3964235535597,151.19860265417572,245.3964235535597,153.19860265417572C245.3964235535597,155.82082487639792,242.46309022022638,156.17638043195348,240.32975688689305,156.88749154306458C238.01864577578192,156.7986026541757,235.21864577578197,154.66526932084238,236.7742013313375,152.22082487639793C237.7964235535597,151.42082487639792,239.08531244244858,150.66526932084236,240.7742013313375,150.3986026541757C240.7742013313375,150.3986026541757,240.7742013313375,150.3986026541757,240.7742013313375,150.3986026541757M237.9742013313375,153.90971376528682C238.6853124424486,156.3097137652868,243.52975688689304,154.62082487639793,243.79642355355975,152.88749154306458C243.2630902202264,150.26526932084238,238.0630902202264,152.53193598750903,237.9742013313375,153.90971376528682C237.9742013313375,153.90971376528682,237.9742013313375,153.90971376528682,237.9742013313375,153.90971376528682M254.81864577578193,150.53193598750903C254.7742013313375,150.44304709862016,255.3075346646708,149.90971376528682,255.44086799800414,149.95415820973125C255.70753466467085,149.95415820973125,255.8853124424486,150.26526932084238,255.8853124424486,150.93193598750904C255.75197910911527,152.7097137652868,254.8630902202264,153.42082487639792,254.10753466467082,154.57638043195348C253.52975688689304,155.42082487639792,251.3519791091153,156.48749154306458,249.9742013313375,156.48749154306458C246.99642355355974,156.3986026541757,245.04086799800416,153.15415820973126,246.81864577578193,150.57638043195348C247.9742013313375,150.44304709862016,247.75197910911527,151.86526932084237,247.66309022022637,152.75415820973126C247.61864577578194,153.95415820973125,248.81864577578193,154.7097137652868,250.19642355355973,154.62082487639793C252.01864577578192,154.53193598750903,254.32975688689305,152.17638043195348,254.81864577578193,150.53193598750903C254.81864577578193,150.53193598750903,254.81864577578193,150.53193598750903,254.81864577578193,150.53193598750903M267.12975688689306,151.3763804319535C267.21864577578197,152.35415820973125,267.3519791091153,151.82082487639792,266.50753466467086,152.3986026541757C263.26309022022645,152.0874915430646,259.12975688689306,151.3763804319535,258.7742013313375,154.88749154306458C258.41864577578195,155.15415820973126,258.6408679980042,155.77638043195347,258.41864577578195,156.48749154306458C257.12975688689306,156.93193598750904,256.6408679980042,156.0874915430646,256.9519791091153,154.44304709862016C257.21864577578197,153.06526932084236,257.26309022022645,151.3763804319535,258.37420133133753,151.9986026541757C260.9519791091153,150.35415820973125,261.30753466467087,150.13193598750902,266.1519791091153,151.15415820973126C266.2853124424486,151.3763804319535,266.818645775782,151.33193598750904,267.12975688689306,151.3763804319535C267.12975688689306,151.3763804319535,267.12975688689306,151.3763804319535,267.12975688689306,151.3763804319535M272.24086799800415,151.1097137652868C273.52975688689304,150.7986026541757,273.8853124424486,152.3986026541757,272.7742013313375,152.57638043195348C271.5742013313375,152.3986026541757,270.99642355355974,152.84304709862016,269.2630902202264,153.6874915430646C268.90753466467083,153.86526932084237,268.6853124424486,154.17638043195348,268.5519791091153,154.66526932084238C269.8853124424486,156.0874915430646,272.5964235535597,154.7986026541757,274.50753466467086,155.15415820973126C274.7297568868931,155.73193598750905,274.1519791091153,156.3097137652868,273.52975688689304,155.9986026541757C271.2630902202264,157.1097137652868,267.3519791091153,157.24304709862014,266.8630902202264,154.66526932084238C267.12975688689306,152.44304709862016,269.9297568868931,151.02082487639794,272.24086799800415,151.1097137652868C272.24086799800415,151.1097137652868,272.24086799800415,151.1097137652868,272.24086799800415,151.1097137652868M275.3519791091153,154.04304709862015C275.3519791091153,151.46526932084237,277.61864577578194,150.88749154306458,280.24086799800415,150.75415820973126C281.70753466467085,150.7097137652868,282.24086799800415,151.46526932084237,282.86309022022635,152.3097137652868C282.90753466467083,152.93193598750904,282.95197910911526,154.04304709862015,282.5519791091153,154.17638043195348C281.4853124424486,154.0874915430646,279.3075346646708,154.75415820973126,278.15197910911525,154.66526932084238C278.0630902202264,154.75415820973126,278.0630902202264,154.7986026541757,278.0630902202264,154.7986026541757C278.0630902202264,154.93193598750904,278.5964235535597,155.15415820973126,279.70753466467085,155.46526932084237C280.6408679980041,155.46526932084237,282.7742013313375,155.86526932084237,281.0853124424486,156.44304709862016C280.6853124424486,157.06526932084236,279.57420133133746,156.7097137652868,278.5964235535597,156.7097137652868C277.3964235535597,156.48749154306458,275.3519791091153,155.46526932084237,275.3519791091153,154.04304709862015C275.3519791091153,154.04304709862015,275.3519791091153,154.04304709862015,275.3519791091153,154.04304709862015M280.6408679980041,152.04304709862015C279.66309022022637,152.13193598750902,277.61864577578194,152.26526932084238,277.75197910911527,153.19860265417572C278.81864577578193,153.1097137652868,280.6853124424486,153.42082487639792,281.2630902202264,152.93193598750904C281.04086799800416,152.35415820973125,281.2186457757819,152.35415820973125,280.6408679980041,152.04304709862015C280.6408679980041,152.04304709862015,280.6408679980041,152.04304709862015,280.6408679980041,152.04304709862015M182.50753466467086,176.0919804319535C182.95197910911529,176.26975820973126,185.12975688689306,177.9142026541757,185.39642355355974,178.3142026541757C185.4408679980042,178.62531376528682,185.12975688689306,179.06975820973125,184.8630902202264,179.06975820973125C184.8630902202264,179.06975820973125,182.19642355355973,177.73642487639793,182.19642355355973,177.73642487639793C181.21864577578197,177.8253137652868,180.32975688689308,178.66975820973127,179.30753466467084,178.58086932084237C177.84086799800417,178.75864709862014,176.28531244244863,175.60309154306458,178.64086799800418,174.98086932084237C180.4630902202264,173.78086932084236,182.90753466467083,173.24753598750902,183.52975688689307,175.38086932084238C183.52975688689307,175.64753598750903,183.3519791091153,175.9142026541757,183.0408679980042,176.0919804319535C181.57420133133752,174.98086932084237,180.0630902202264,175.86975820973126,179.12975688689306,176.62531376528682C179.57420133133752,177.33642487639793,181.84086799800417,175.8253137652868,182.50753466467086,176.0919804319535C182.50753466467086,176.0919804319535,182.50753466467086,176.0919804319535,182.50753466467086,176.0919804319535M191.08531244244864,172.53642487639792C192.72975688689309,172.8030915430646,193.84086799800417,174.93642487639792,193.84086799800417,177.46975820973125C193.84086799800417,178.89198043195347,193.12975688689306,178.58086932084237,192.46309022022638,178.2253137652868C191.66309022022642,176.89198043195347,192.2408679980042,176.2253137652868,191.48531244244862,174.44753598750904C189.84086799800417,173.86975820973126,188.32975688689308,176.89198043195347,187.39642355355974,177.33642487639793C186.50753466467086,177.2030915430646,185.6630902202264,175.60309154306458,186.4630902202264,174.58086932084237C186.55197910911528,174.04753598750904,186.59642355355973,173.9142026541757,186.95197910911529,173.24753598750902C187.48531244244862,172.89198043195347,187.84086799800417,173.73642487639793,188.24086799800418,173.78086932084236C188.24086799800418,173.78086932084236,191.08531244244864,172.53642487639792,191.08531244244864,172.53642487639792M204.28531244244863,169.64753598750903C204.28531244244863,168.0919804319535,203.52975688689304,164.7142026541757,205.3519791091153,165.46975820973125C205.66309022022637,169.29198043195348,205.2630902202264,170.75864709862014,205.3519791091153,174.2253137652868C205.17420133133749,174.3142026541757,204.99642355355974,175.15864709862015,204.55197910911528,174.93642487639792C201.7964235535597,174.62531376528682,197.70753466467085,174.58086932084237,196.32975688689305,176.2253137652868C196.5964235535597,176.98086932084237,197.57420133133752,177.38086932084238,198.5964235535597,177.38086932084238C199.3075346646708,177.38086932084238,203.04086799800416,176.7142026541757,204.46309022022638,176.58086932084237C204.7742013313375,176.8030915430646,204.19642355355973,177.46975820973125,204.01864577578192,177.55864709862016C202.95197910911526,177.9142026541757,198.5964235535597,179.4253137652868,196.7742013313375,178.66975820973127C195.3519791091153,178.44753598750904,194.01864577578192,176.3142026541757,195.17420133133749,175.1142026541757C196.72975688689303,173.46975820973125,200.41864577578195,173.06975820973125,203.9742013313375,173.2030915430646C204.01864577578192,172.2253137652868,204.28531244244863,171.02531376528682,204.28531244244863,169.64753598750903C204.28531244244863,169.64753598750903,204.28531244244863,169.64753598750903,204.28531244244863,169.64753598750903M224.01864577578198,169.64753598750903C224.01864577578198,168.0919804319535,223.2630902202264,164.7142026541757,225.08531244244864,165.46975820973125C225.3964235535597,169.29198043195348,224.99642355355974,170.75864709862014,225.08531244244864,174.2253137652868C224.90753466467083,174.3142026541757,224.72975688689309,175.15864709862015,224.28531244244863,174.93642487639792C221.52975688689304,174.62531376528682,217.4408679980042,174.58086932084237,216.0630902202264,176.2253137652868C216.32975688689305,176.98086932084237,217.30753466467087,177.38086932084238,218.32975688689305,177.38086932084238C219.04086799800416,177.38086932084238,222.7742013313375,176.7142026541757,224.19642355355973,176.58086932084237C224.50753466467086,176.8030915430646,223.92975688689307,177.46975820973125,223.75197910911527,177.55864709862016C222.6853124424486,177.9142026541757,218.32975688689305,179.4253137652868,216.50753466467086,178.66975820973127C215.08531244244864,178.44753598750904,213.75197910911527,176.3142026541757,214.90753466467083,175.1142026541757C216.46309022022638,173.46975820973125,220.1519791091153,173.06975820973125,223.70753466467085,173.2030915430646C223.75197910911527,172.2253137652868,224.01864577578198,171.02531376528682,224.01864577578198,169.64753598750903C224.01864577578198,169.64753598750903,224.01864577578198,169.64753598750903,224.01864577578198,169.64753598750903M226.01864577578198,176.04753598750904C226.01864577578198,173.46975820973125,228.28531244244863,172.89198043195347,230.90753466467083,172.75864709862014C232.37420133133753,172.7142026541757,232.90753466467083,173.46975820973125,233.52975688689304,174.3142026541757C233.57420133133752,174.93642487639792,233.61864577578194,176.04753598750904,233.21864577578197,176.18086932084236C232.1519791091153,176.0919804319535,229.9742013313375,176.75864709862014,228.81864577578193,176.66975820973127C228.72975688689309,176.75864709862014,228.72975688689309,176.8030915430646,228.72975688689309,176.8030915430646C228.72975688689309,176.93642487639792,229.2630902202264,177.15864709862015,230.37420133133753,177.46975820973125C231.3075346646708,177.46975820973125,233.4408679980042,177.86975820973126,231.75197910911527,178.44753598750904C231.3519791091153,179.06975820973125,230.24086799800415,178.7142026541757,229.2630902202264,178.7142026541757C228.0630902202264,178.49198043195346,226.01864577578198,177.46975820973125,226.01864577578198,176.04753598750904C226.01864577578198,176.04753598750904,226.01864577578198,176.04753598750904,226.01864577578198,176.04753598750904M231.3075346646708,174.04753598750904C230.32975688689305,174.1364248763979,228.28531244244863,174.26975820973126,228.41864577578195,175.2030915430646C229.48531244244862,175.1142026541757,231.3519791091153,175.4253137652868,231.92975688689307,174.93642487639792C231.70753466467085,174.35864709862014,231.8853124424486,174.35864709862014,231.3075346646708,174.04753598750904C231.3075346646708,174.04753598750904,231.3075346646708,174.04753598750904,231.3075346646708,174.04753598750904M240.7742013313375,171.86975820973126C241.61864577578194,171.9142026541757,241.9742013313375,172.93642487639792,241.3519791091153,173.29198043195348C241.17420133133754,173.33642487639793,240.37420133133753,173.46975820973125,238.99642355355974,173.60309154306458C238.28531244244863,173.95864709862013,238.01864577578198,173.5142026541757,237.2630902202264,174.00309154306458C238.28531244244863,174.93642487639792,241.21864577578197,174.7142026541757,241.5297568868931,176.75864709862014C240.9519791091153,177.8253137652868,237.75197910911527,178.3142026541757,236.01864577578198,178.62531376528682C235.61864577578194,178.49198043195346,235.21864577578197,178.49198043195346,234.818645775782,178.62531376528682C234.55197910911528,178.44753598750904,233.88531244244865,177.9142026541757,234.46309022022643,177.5142026541757C235.79642355355975,177.24753598750902,238.1519791091153,176.93642487639792,238.99642355355974,176.44753598750904C238.2408679980042,175.73642487639793,235.4408679980042,174.98086932084237,234.6853124424486,174.3142026541757C234.55197910911528,174.2253137652868,234.50753466467086,174.00309154306458,234.50753466467086,173.64753598750903C234.2408679980042,173.38086932084238,234.64086799800418,173.06975820973125,235.17420133133754,172.84753598750905C236.1519791091153,172.44753598750904,239.3519791091153,171.8253137652868,240.7742013313375,171.86975820973126C240.7742013313375,171.86975820973126,240.7742013313375,171.86975820973126,240.7742013313375,171.86975820973126M246.0630902202264,171.9142026541757C246.50753466467086,170.0919804319535,247.61864577578194,166.3142026541757,248.9519791091153,165.95864709862013C249.12975688689306,166.00309154306458,250.01864577578198,166.8030915430646,249.4408679980042,167.55864709862016C248.6853124424486,168.53642487639792,248.1519791091153,170.0919804319535,247.84086799800417,172.18086932084236C248.99642355355974,172.53642487639792,250.0630902202264,171.86975820973126,251.08531244244864,172.4030915430646C251.70753466467085,172.4030915430646,252.0630902202264,172.53642487639792,252.0630902202264,172.8030915430646C252.01864577578198,173.64753598750903,250.10753466467088,173.60309154306458,249.5297568868931,173.8253137652868C249.08531244244864,173.86975820973126,247.48531244244862,173.8253137652868,247.12975688689306,174.26975820973126C246.6853124424486,175.33642487639793,246.9519791091153,177.24753598750902,246.2408679980042,178.62531376528682C245.30753466467087,178.49198043195346,245.08531244244864,178.66975820973127,245.08531244244864,177.73642487639793C245.08531244244864,177.33642487639793,245.17420133133754,176.1364248763979,245.4408679980042,174.1364248763979C244.7742013313375,173.55864709862016,241.84086799800417,174.53642487639792,242.01864577578198,172.93642487639792C242.19642355355973,171.24753598750902,245.17420133133754,173.2030915430646,246.0630902202264,171.9142026541757C246.0630902202264,171.9142026541757,246.0630902202264,171.9142026541757,246.0630902202264,171.9142026541757M253.66309022022637,169.29198043195348C253.9742013313375,170.0919804319535,254.0630902202264,170.3142026541757,253.4408679980042,170.98086932084237C252.41864577578195,170.7142026541757,252.50753466467086,170.18086932084236,252.95197910911526,169.38086932084238C253.04086799800416,169.38086932084238,253.3075346646708,169.33642487639793,253.66309022022637,169.29198043195348C253.66309022022637,169.29198043195348,253.66309022022637,169.29198043195348,253.66309022022637,169.29198043195348M252.41864577578195,178.26975820973126C251.61864577578194,177.33642487639793,252.0630902202264,175.02531376528682,252.37420133133747,173.55864709862016C252.6853124424486,173.1142026541757,253.2630902202264,173.2030915430646,253.3964235535597,173.8253137652868C253.3519791091153,175.4253137652868,253.70753466467085,177.02531376528682,253.3075346646708,178.44753598750904C252.95197910911526,178.53642487639792,252.95197910911526,178.44753598750904,252.41864577578195,178.26975820973126C252.41864577578195,178.26975820973126,252.41864577578195,178.26975820973126,252.41864577578195,178.26975820973126M259.84086799800417,172.53642487639792C261.4853124424486,172.8030915430646,262.5964235535597,174.93642487639792,262.5964235535597,177.46975820973125C262.5964235535597,178.89198043195347,261.8853124424486,178.58086932084237,261.2186457757819,178.2253137652868C260.41864577578195,176.89198043195347,260.99642355355974,176.2253137652868,260.24086799800415,174.44753598750904C258.5964235535597,173.86975820973126,257.0853124424486,176.89198043195347,256.15197910911525,177.33642487639793C255.2630902202264,177.2030915430646,254.41864577578195,175.60309154306458,255.2186457757819,174.58086932084237C255.3075346646708,174.04753598750904,255.3519791091153,173.9142026541757,255.70753466467085,173.24753598750902C256.24086799800415,172.89198043195347,256.5964235535597,173.73642487639793,256.99642355355974,173.78086932084236C256.99642355355974,173.78086932084236,259.84086799800417,172.53642487639792,259.84086799800417,172.53642487639792M268.59642355355976,176.0919804319535C269.0408679980042,176.26975820973126,271.21864577578197,177.9142026541757,271.4853124424486,178.3142026541757C271.5297568868931,178.62531376528682,271.21864577578197,179.06975820973125,270.9519791091153,179.06975820973125C270.9519791091153,179.06975820973125,268.2853124424486,177.73642487639793,268.2853124424486,177.73642487639793C267.30753466467087,177.8253137652868,266.41864577578195,178.66975820973127,265.39642355355977,178.58086932084237C263.9297568868931,178.75864709862014,262.37420133133753,175.60309154306458,264.7297568868931,174.98086932084237C266.5519791091153,173.78086932084236,268.99642355355974,173.24753598750902,269.618645775782,175.38086932084238C269.618645775782,175.64753598750903,269.4408679980042,175.9142026541757,269.12975688689306,176.0919804319535C267.6630902202264,174.98086932084237,266.1519791091153,175.86975820973126,265.21864577578197,176.62531376528682C265.6630902202264,177.33642487639793,267.9297568868931,175.8253137652868,268.59642355355976,176.0919804319535C268.59642355355976,176.0919804319535,268.59642355355976,176.0919804319535,268.59642355355976,176.0919804319535M275.5742013313375,171.9142026541757C276.018645775782,170.0919804319535,277.12975688689306,166.3142026541757,278.46309022022643,165.95864709862013C278.6408679980042,166.00309154306458,279.5297568868931,166.8030915430646,278.9519791091153,167.55864709862016C278.1964235535597,168.53642487639792,277.6630902202264,170.0919804319535,277.3519791091153,172.18086932084236C278.50753466467086,172.53642487639792,279.5742013313375,171.86975820973126,280.59642355355976,172.4030915430646C281.21864577578197,172.4030915430646,281.5742013313375,172.53642487639792,281.5742013313375,172.8030915430646C281.5297568868931,173.64753598750903,279.61864577578194,173.60309154306458,279.0408679980042,173.8253137652868C278.59642355355976,173.86975820973126,276.99642355355974,173.8253137652868,276.6408679980042,174.26975820973126C276.1964235535597,175.33642487639793,276.46309022022643,177.24753598750902,275.7519791091153,178.62531376528682C274.818645775782,178.49198043195346,274.59642355355976,178.66975820973127,274.59642355355976,177.73642487639793C274.59642355355976,177.33642487639793,274.68531244244866,176.1364248763979,274.9519791091153,174.1364248763979C274.2853124424486,173.55864709862016,271.3519791091153,174.53642487639792,271.5297568868931,172.93642487639792C271.70753466467085,171.24753598750902,274.68531244244866,173.2030915430646,275.5742013313375,171.9142026541757C275.5742013313375,171.9142026541757,275.5742013313375,171.9142026541757,275.5742013313375,171.9142026541757M283.1742013313375,169.29198043195348C283.4853124424486,170.0919804319535,283.5742013313375,170.3142026541757,282.9519791091153,170.98086932084237C281.9297568868931,170.7142026541757,282.018645775782,170.18086932084236,282.4630902202264,169.38086932084238C282.5519791091153,169.38086932084238,282.81864577578193,169.33642487639793,283.1742013313375,169.29198043195348C283.1742013313375,169.29198043195348,283.1742013313375,169.29198043195348,283.1742013313375,169.29198043195348M281.9297568868931,178.26975820973126C281.12975688689306,177.33642487639793,281.5742013313375,175.02531376528682,281.8853124424486,173.55864709862016C282.1964235535597,173.1142026541757,282.7742013313375,173.2030915430646,282.90753466467083,173.8253137652868C282.8630902202264,175.4253137652868,283.21864577578197,177.02531376528682,282.81864577578193,178.44753598750904C282.4630902202264,178.53642487639792,282.4630902202264,178.44753598750904,281.9297568868931,178.26975820973126C281.9297568868931,178.26975820973126,281.9297568868931,178.26975820973126,281.9297568868931,178.26975820973126M288.77420133133757,172.4030915430646C291.08531244244864,171.33642487639793,293.39642355355977,173.2030915430646,293.39642355355977,175.2030915430646C293.39642355355977,177.8253137652868,290.46309022022643,178.18086932084236,288.3297568868931,178.89198043195347C286.018645775782,178.8030915430646,283.218645775782,176.66975820973127,284.77420133133757,174.2253137652868C285.79642355355975,173.4253137652868,287.08531244244864,172.66975820973124,288.77420133133757,172.4030915430646C288.77420133133757,172.4030915430646,288.77420133133757,172.4030915430646,288.77420133133757,172.4030915430646M285.97420133133755,175.9142026541757C286.68531244244866,178.3142026541757,291.5297568868931,176.62531376528682,291.79642355355975,174.89198043195347C291.26309022022645,172.26975820973126,286.06309022022646,174.53642487639792,285.97420133133755,175.9142026541757C285.97420133133755,175.9142026541757,285.97420133133755,175.9142026541757,285.97420133133755,175.9142026541757M298.99642355355974,172.53642487639792C300.6408679980042,172.8030915430646,301.75197910911527,174.93642487639792,301.75197910911527,177.46975820973125C301.75197910911527,178.89198043195347,301.04086799800416,178.58086932084237,300.3742013313375,178.2253137652868C299.5742013313375,176.89198043195347,300.1519791091153,176.2253137652868,299.3964235535597,174.44753598750904C297.75197910911527,173.86975820973126,296.24086799800415,176.89198043195347,295.3075346646708,177.33642487639793C294.41864577578195,177.2030915430646,293.5742013313375,175.60309154306458,294.3742013313375,174.58086932084237C294.4630902202264,174.04753598750904,294.50753466467086,173.9142026541757,294.8630902202264,173.24753598750902C295.3964235535597,172.89198043195347,295.75197910911527,173.73642487639793,296.1519791091153,173.78086932084236C296.1519791091153,173.78086932084236,298.99642355355974,172.53642487639792,298.99642355355974,172.53642487639792" stroke="none" fill="#000000" style=""></path><rect style="" stroke="none" fill="#ffffff" ry="0" rx="0" r="0" height="12.629355281207097" width="10.923649526129708" y="202.7550805691277" x="189.83792418901191"></rect><path d="M197.92753882565592,202.89554696144592C199.43864993676704,202.45110251700146,201.2164277145448,204.00665807255706,200.01642771454482,205.16221362811257C199.17198327010036,206.58443585033484,197.57198327010036,207.3844358503348,195.92753882565592,208.2733247392237C197.17198327010036,208.89554696144592,201.08309438121148,209.3844358503348,200.72753882565593,211.3844358503348C201.08309438121148,212.00665807255706,198.54976104787815,213.16221362811257,197.92753882565592,213.51776918366818C196.63864993676702,213.91776918366816,192.14976104787814,214.49554696144594,190.46087215898925,215.3844358503348C190.1942054923226,215.16221362811257,189.6164277145448,215.07332473922372,189.92753882565592,214.40665807255704C192.4164277145448,212.806658072557,197.7053166034337,213.4733247392237,199.26087215898926,211.02888029477924C198.86087215898925,210.13999140589038,195.34976104787813,209.16221362811257,194.94976104787813,209.5622136281126C194.06087215898924,209.51776918366818,193.1275388256559,209.6511025170015,192.46087215898925,209.25110251700147C192.46087215898925,209.25110251700147,192.68309438121148,208.31776918366813,192.68309438121148,208.31776918366813C195.17198327010036,207.20665807255705,197.26087215898926,206.71776918366817,198.77198327010035,204.8511025170015C198.8164277145448,204.806658072557,198.86087215898925,204.62888029477926,198.94976104787813,204.3622136281126C198.28309438121147,203.73999140589035,196.46087215898925,204.6733247392237,195.43864993676704,204.3622136281126C194.99420549232258,204.7622136281126,192.1942054923226,205.33999140589037,191.34976104787813,205.73999140589035C190.86087215898925,205.5622136281126,190.1053166034337,204.71776918366817,190.77198327010035,204.40665807255704C192.99420549232258,203.42888029477928,195.03864993676703,203.25110251700147,197.6164277145448,202.7622136281126C197.6164277145448,202.71776918366817,197.97198327010037,202.89554696144592,197.92753882565592,202.89554696144592C197.92753882565592,202.89554696144592,197.92753882565592,202.89554696144592,197.92753882565592,202.89554696144592" stroke="none" fill="#000000" style=""></path><path stroke-dasharray="0" marker-end="url(#raphael-marker-endblock55)" stroke-width="2" d="M239.52645230962773,216.69911349093837C173.06971951366836,213.37088130272267,180.2631690833693,219.43499185464012,156.0544717472336,217.2211831458445" stroke="#000000" fill="none" style=""></path><rect style="" stroke="none" fill="#ffffff" ry="0" rx="0" r="0" height="13.155555555555566" width="12.04610795500902" y="235.1213357131606" x="95.72617466283428"></rect><path d="M98.88339372895439,237.34355793538282C98.57228261784329,238.09911349093838,97.59450484006553,240.67689126871616,97.41672706228775,241.61022460204947C97.41672706228775,241.87689126871615,97.55006039562107,241.96578015760502,97.7722826178433,241.96578015760502C99.6833937289544,241.87689126871615,102.70561595117661,242.2324468242717,104.03894928450995,241.69911349093837C104.79450484006551,239.61022460204947,104.92783817339884,237.25466904649392,106.83894928450997,235.1213357131606C107.23894928450997,235.29911349093837,107.55006039562107,235.4324468242717,107.7722826178433,235.56578015760505C107.01672706228774,236.9435579353828,105.81672706228773,239.78800237982725,105.50561595117662,241.8324468242717C105.81672706228773,242.01022460204948,106.57228261784329,241.65466904649392,106.52783817339883,242.27689126871616C106.48339372895441,242.98800237982726,105.23894928450997,242.8102246020495,105.15006039562107,243.29911349093837C104.70561595117661,244.27689126871616,104.75006039562106,246.36578015760503,104.83894928450997,247.87689126871615C104.70561595117661,247.96578015760502,104.52783817339883,248.09911349093838,104.39450484006551,248.27689126871616C102.30561595117663,247.78800237982725,103.3722826178433,244.98800237982726,103.6833937289544,243.2102246020495C103.6833937289544,243.03244682427172,103.59450484006553,242.9435579353828,103.3722826178433,242.9435579353828C100.48339372895441,243.03244682427172,99.41672706228775,243.5213357131606,96.17228261784328,243.1213357131606C95.19450484006552,242.1435579353828,96.0833937289544,240.76578015760504,96.39450484006551,239.74355793538282C97.10561595117662,239.07689126871614,97.15006039562107,237.2102246020495,97.95006039562108,236.6324468242717C98.21672706228773,236.58800237982726,98.88339372895439,237.1213357131606,98.88339372895439,237.34355793538282C98.88339372895439,237.34355793538282,98.88339372895439,237.34355793538282,98.88339372895439,237.34355793538282" stroke="none" fill="#000000" style=""></path><path stroke-dasharray="0" marker-end="url(#raphael-marker-endblock55)" stroke-width="2" d="M151.07304559452578,249.85466904649394C145.86012597882578,253.49422725846497,80.68837078282269,247.06280090635406,57.364782248590444,249.13860272605064" stroke="#000000" fill="none" style=""></path></svg>