<?xml version="1.0" encoding="utf-8" standalone="no"?><!DOCTYPE svg PUBLIC "-//W3C//DTD SVG 20010904//EN" "http://www.w3.org/TR/2001/REC-SVG-20010904/DTD/svg10.dtd"><svg xmlns="http://www.w3.org/2000/svg" width="210" height="190" xmlns:xlink="http://www.w3.org/1999/xlink"><source><![CDATA[    UDP->Console: 1
    Console->UDP: 2]]></source><desc>Created with Raphaël 2.1.0</desc><defs><path id="raphael-marker-block" d="M5,0 0,2.5 5,5z" stroke-linecap="round"></path><marker refY="2.5" refX="2.5" orient="auto" markerWidth="5" markerHeight="5" id="raphael-marker-endblock55"><use stroke="none" fill="#000" stroke-width="1.0000" transform="rotate(180 2.5 2.5) scale(1,1)" xlink:href="#raphael-marker-block"></use></marker></defs><path stroke-width="2" d="M10,20C65.63417901796356,22.6282939345557,18.547064056343782,17.3717060654443,75.70734836389254,20C77.05453568275662,28.24111562381999,74.36016104502845,46.74636766459269,75.70734836389254,53.67968297160205C62.9365779736753,56.30797690615775,43.97634418760152,51.05138903704635,10,53.67968297160205C11.347187318864082,25.325124747034856,8.652812681135918,38.65429169043404,10,20" stroke="#000000" fill="#ffffff" style=""></path><rect style="" stroke="none" fill="#ffffff" ry="0" rx="0" r="0" height="13.505843154653679" width="45.707348363892535" y="30.08691990847419" x="20.000000000000004"></rect><path d="M35.97099850970157,31.45846902396852C36.548776287479356,33.947357912857406,34.9932207319238,36.08069124619074,34.37099850970158,37.725135690635184C33.52655406525713,38.702913468412966,33.03766517636825,39.414024579524074,31.837665176368244,40.21402457952407C31.659887398590467,41.014024579524076,29.17099850970158,41.76958013507963,28.370998509701575,42.43624680174629C26.01544295414602,43.68069124619074,22.059887398590465,42.43624680174629,21.215442954146024,40.92513569063519C19.837665176368244,38.43624680174629,19.570998509701578,36.12513569063518,20.72655406525713,33.636246801746296C21.48210962081269,32.16958013507963,22.01544295414602,31.414024579524074,22.85988739859047,32.347357912857404C22.77099850970158,32.43624680174629,22.72655406525713,32.65846902396852,22.682109620812692,32.92513569063519C20.72655406525713,34.52513569063519,20.993220731923802,39.54735791285741,22.993220731923802,40.65846902396852C24.32655406525713,41.81402457952407,25.437665176368245,41.50291346841296,27.526554065257134,40.8362468017463C30.01544295414602,40.08069124619074,30.459887398590464,39.325135690635186,32.85988739859047,37.45846902396852C33.393220731923805,36.39180235730185,35.34877628747935,34.43624680174629,34.90433184303491,32.036246801746294C34.90433184303491,32.036246801746294,34.90433184303491,31.325135690635186,34.90433184303491,31.325135690635186C34.90433184303491,31.36958013507963,34.85988739859047,31.45846902396852,34.85988739859047,31.59180235730185C35.03766517636825,31.014024579524076,35.34877628747935,31.14735791285741,35.97099850970157,31.45846902396852C35.97099850970157,31.45846902396852,35.97099850970157,31.45846902396852,35.97099850970157,31.45846902396852M49.97099850970159,39.636246801746296C49.882109620812685,39.68069124619074,49.83766517636825,39.947357912857406,49.52655406525713,39.85846902396852C49.79322073192381,39.725135690635184,49.97099850970159,39.68069124619074,49.97099850970159,39.636246801746296C49.97099850970159,39.636246801746296,49.97099850970159,39.636246801746296,49.97099850970159,39.636246801746296M36.28210962081269,31.90291346841296C36.37099850970158,30.702913468412966,39.97099850970157,30.21402457952407,40.9932207319238,30.169580135079627C46.770998509701585,29.858469023968517,52.85988739859047,30.21402457952407,53.926554065257136,35.014024579524076C53.926554065257136,35.014024579524076,53.83766517636825,35.36958013507963,53.79322073192381,36.12513569063518C53.57099850970158,36.52513569063518,53.61544295414603,37.36958013507963,52.770998509701585,37.636246801746296C52.59322073192381,37.81402457952407,52.682109620812696,37.85846902396852,52.45988739859047,37.636246801746296C52.32655406525714,37.76958013507963,51.79322073192381,37.947357912857406,52.23766517636824,38.08069124619074C52.23766517636824,38.08069124619074,51.79322073192381,38.702913468412966,51.65988739859047,38.16958013507963C51.170998509701576,38.21402457952407,51.304331843034916,38.39180235730185,50.770998509701585,38.791802357301854C50.81544295414602,38.88069124619074,51.08210962081269,38.92513569063519,51.170998509701576,38.8362468017463C50.9932207319238,39.414024579524074,50.1932207319238,39.414024579524074,50.682109620812696,39.014024579524076C50.682109620812696,38.88069124619074,50.72655406525713,38.74735791285741,50.548776287479356,38.791802357301854C48.770998509701585,40.08069124619074,45.97099850970159,40.48069124619074,44.28210962081269,41.68069124619074C44.72655406525713,41.947357912857406,45.259887398590465,41.36958013507963,45.79322073192381,41.54735791285741C43.97099850970159,42.43624680174629,40.148776287479365,43.50291346841296,38.1932207319238,43.59180235730185C37.259887398590465,43.636246801746296,36.10433184303491,42.12513569063518,37.70433184303491,41.85846902396852C38.37099850970158,41.76958013507963,39.61544295414602,41.59180235730185,40.1932207319238,41.36958013507963C39.48210962081269,36.88069124619074,39.97099850970157,35.59180235730185,40.59322073192381,32.16958013507963C40.682109620812696,32.16958013507963,40.770998509701585,32.12513569063518,40.85988739859047,32.036246801746294C40.148776287479365,31.28069124619074,36.81544295414602,33.725135690635184,36.28210962081269,31.90291346841296C36.28210962081269,31.90291346841296,36.28210962081269,31.90291346841296,36.28210962081269,31.90291346841296M49.304331843034916,40.036246801746294C48.9932207319238,40.16958013507963,48.548776287479356,40.39180235730185,48.1932207319238,40.347357912857404C48.23766517636825,40.39180235730185,48.32655406525714,40.43624680174629,48.41544295414603,40.43624680174629C48.23766517636825,40.52513569063518,47.926554065257136,40.65846902396852,47.393220731923805,40.8362468017463C47.57099850970158,40.347357912857404,48.72655406525713,39.90291346841296,49.304331843034916,40.036246801746294C49.304331843034916,40.036246801746294,49.304331843034916,40.036246801746294,49.304331843034916,40.036246801746294M46.770998509701585,40.8362468017463C47.21544295414603,40.8362468017463,47.304331843034916,40.92513569063519,46.770998509701585,41.102913468412964C46.770998509701585,41.102913468412964,46.770998509701585,40.8362468017463,46.770998509701585,40.8362468017463C46.770998509701585,40.8362468017463,46.770998509701585,40.8362468017463,46.770998509701585,40.8362468017463M45.882109620812685,41.50291346841296C45.83766517636825,41.36958013507963,46.05988739859046,41.2362468017463,46.148776287479365,41.36958013507963C46.148776287479365,41.414024579524074,46.05988739859046,41.414024579524074,45.882109620812685,41.50291346841296C45.882109620812685,41.50291346841296,45.882109620812685,41.50291346841296,45.882109620812685,41.50291346841296M41.65988739859047,40.96958013507963C42.37099850970158,41.2362468017463,47.74877628747936,38.92513569063519,48.548776287479356,38.61402457952408C49.83766517636825,37.81402457952407,53.03766517636825,36.65846902396852,52.1932207319238,34.480691246190744C51.259887398590465,32.12513569063518,48.45988739859047,31.76958013507963,44.72655406525713,31.502913468412963C43.83766517636825,31.814024579524073,42.50433184303492,31.636246801746296,41.304331843034916,31.858469023968517C42.770998509701585,34.258469023968516,40.770998509701585,37.725135690635184,41.65988739859047,40.96958013507963C41.65988739859047,40.96958013507963,41.65988739859047,40.96958013507963,41.65988739859047,40.96958013507963M43.170998509701576,42.12513569063518C42.9932207319238,42.08069124619074,42.50433184303492,41.90291346841296,42.50433184303492,42.21402457952407C42.81544295414602,42.16958013507963,43.03766517636825,42.12513569063518,43.170998509701576,42.12513569063518C43.170998509701576,42.12513569063518,43.170998509701576,42.12513569063518,43.170998509701576,42.12513569063518M56.148776287479365,33.102913468412964C55.83766517636825,32.56958013507963,54.548776287479356,33.81402457952407,53.97099850970159,33.947357912857406C53.79322073192381,33.947357912857406,53.57099850970158,33.725135690635184,53.34877628747937,33.19180235730185C54.28210962081269,31.102913468412964,58.41544295414603,30.74735791285741,60.9932207319238,30.569580135079633C62.81544295414602,30.436246801746293,66.85988739859047,32.036246801746294,65.3932207319238,34.43624680174629C64.45988739859047,35.947357912857406,62.1932207319238,37.05846902396852,58.9932207319238,37.99180235730185C58.904331843034925,38.702913468412966,55.48210962081269,38.12513569063518,55.70433184303492,40.036246801746294C55.83766517636825,41.14735791285741,55.48210962081269,42.12513569063518,55.25988739859048,43.05846902396852C54.28210962081269,43.014024579524076,54.23766517636825,41.76958013507963,54.28210962081269,40.56958013507963C54.37099850970158,39.45846902396852,53.393220731923805,39.14735791285741,53.926554065257136,38.347357912857404C54.85988739859047,38.12513569063518,54.37099850970158,36.791802357301854,55.03766517636825,35.81402457952407C55.304331843034916,34.56958013507963,55.65988739859047,33.68069124619074,56.148776287479365,33.102913468412964C56.148776287479365,33.102913468412964,56.148776287479365,33.102913468412964,56.148776287479365,33.102913468412964M56.1932207319238,32.92513569063519C58.28210962081269,33.54735791285741,56.10433184303491,35.14735791285741,56.148776287479365,37.325135690635186C57.97099850970159,37.19180235730185,61.170998509701576,35.68069124619074,63.83766517636825,33.947357912857406C64.05988739859048,33.54735791285741,64.1932207319238,33.325135690635186,64.1932207319238,33.28069124619074C62.94877628747936,31.191802357301853,58.637665176368245,31.99180235730185,56.1932207319238,32.92513569063519C56.1932207319238,32.92513569063519,56.1932207319238,32.92513569063519,56.1932207319238,32.92513569063519" stroke="none" fill="#000000" style=""></path><path stroke-width="2" d="M10,137.00811803098563C27.868709786723684,134.37982409642993,14.06264917126367,139.63641196554133,75.70734836389254,137.00811803098563C74.36016104502845,139.08139393224562,77.05453568275662,158.9884547939923,75.70734836389254,170.68780100258766C14.370988180575482,168.05950706803196,20.838506497428163,173.31609493714336,10,170.68780100258766C8.652812681135918,165.54952561981668,11.347187318864082,144.89664385325162,10,137.00811803098563" stroke="#000000" fill="#ffffff" style=""></path><rect style="" stroke="none" fill="#ffffff" ry="0" rx="0" r="0" height="13.50584315465369" width="45.707348363892535" y="147.09503793945984" x="20.000000000000004"></rect><path d="M35.97099850970157,148.46658705495418C36.548776287479356,150.95547594384306,34.9932207319238,153.0888092771764,34.37099850970158,154.73325372162086C33.52655406525713,155.71103149939862,33.03766517636825,156.42214261050972,31.837665176368244,157.22214261050974C31.659887398590467,158.02214261050972,29.17099850970158,158.77769816606528,28.370998509701575,159.44436483273196C26.01544295414602,160.6888092771764,22.059887398590465,159.44436483273196,21.215442954146024,157.93325372162084C19.837665176368244,155.44436483273196,19.570998509701578,153.13325372162083,20.72655406525713,150.64436483273195C21.48210962081269,149.17769816606528,22.01544295414602,148.42214261050972,22.85988739859047,149.35547594384306C22.77099850970158,149.44436483273196,22.72655406525713,149.66658705495416,22.682109620812692,149.93325372162084C20.72655406525713,151.53325372162084,20.993220731923802,156.55547594384308,22.993220731923802,157.66658705495416C24.32655406525713,158.82214261050973,25.437665176368245,158.51103149939863,27.526554065257134,157.84436483273194C30.01544295414602,157.0888092771764,30.459887398590464,156.33325372162085,32.85988739859047,154.46658705495418C33.393220731923805,153.3999203882875,35.34877628747935,151.44436483273196,34.90433184303491,149.04436483273196C34.90433184303491,149.04436483273196,34.90433184303491,148.33325372162085,34.90433184303491,148.33325372162085C34.90433184303491,148.3776981660653,34.85988739859047,148.46658705495418,34.85988739859047,148.5999203882875C35.03766517636825,148.02214261050975,35.34877628747935,148.15547594384307,35.97099850970157,148.46658705495418C35.97099850970157,148.46658705495418,35.97099850970157,148.46658705495418,35.97099850970157,148.46658705495418M49.97099850970159,156.64436483273195C49.882109620812685,156.6888092771764,49.83766517636825,156.95547594384306,49.52655406525713,156.86658705495418C49.79322073192381,156.73325372162086,49.97099850970159,156.6888092771764,49.97099850970159,156.64436483273195C49.97099850970159,156.64436483273195,49.97099850970159,156.64436483273195,49.97099850970159,156.64436483273195M36.28210962081269,148.91103149939863C36.37099850970158,147.71103149939862,39.97099850970157,147.22214261050974,40.9932207319238,147.17769816606528C46.770998509701585,146.86658705495418,52.85988739859047,147.22214261050974,53.926554065257136,152.02214261050975C53.926554065257136,152.02214261050975,53.83766517636825,152.3776981660653,53.79322073192381,153.13325372162083C53.57099850970158,153.53325372162084,53.61544295414603,154.3776981660653,52.770998509701585,154.64436483273195C52.59322073192381,154.82214261050973,52.682109620812696,154.86658705495418,52.45988739859047,154.64436483273195C52.32655406525714,154.77769816606528,51.79322073192381,154.95547594384306,52.23766517636824,155.0888092771764C52.23766517636824,155.0888092771764,51.79322073192381,155.71103149939862,51.65988739859047,155.17769816606528C51.170998509701576,155.22214261050974,51.304331843034916,155.3999203882875,50.770998509701585,155.79992038828752C50.81544295414602,155.8888092771764,51.08210962081269,155.93325372162084,51.170998509701576,155.84436483273194C50.9932207319238,156.42214261050972,50.1932207319238,156.42214261050972,50.682109620812696,156.02214261050972C50.682109620812696,155.8888092771764,50.72655406525713,155.75547594384307,50.548776287479356,155.79992038828752C48.770998509701585,157.0888092771764,45.97099850970159,157.4888092771764,44.28210962081269,158.6888092771764C44.72655406525713,158.95547594384306,45.259887398590465,158.3776981660653,45.79322073192381,158.55547594384308C43.97099850970159,159.44436483273196,40.148776287479365,160.51103149939863,38.1932207319238,160.5999203882875C37.259887398590465,160.64436483273195,36.10433184303491,159.13325372162083,37.70433184303491,158.86658705495418C38.37099850970158,158.77769816606528,39.61544295414602,158.5999203882875,40.1932207319238,158.3776981660653C39.48210962081269,153.8888092771764,39.97099850970157,152.5999203882875,40.59322073192381,149.17769816606528C40.682109620812696,149.17769816606528,40.770998509701585,149.13325372162083,40.85988739859047,149.04436483273196C40.148776287479365,148.2888092771764,36.81544295414602,150.73325372162086,36.28210962081269,148.91103149939863C36.28210962081269,148.91103149939863,36.28210962081269,148.91103149939863,36.28210962081269,148.91103149939863M49.304331843034916,157.04436483273196C48.9932207319238,157.17769816606528,48.548776287479356,157.3999203882875,48.1932207319238,157.35547594384306C48.23766517636825,157.3999203882875,48.32655406525714,157.44436483273196,48.41544295414603,157.44436483273196C48.23766517636825,157.53325372162084,47.926554065257136,157.66658705495416,47.393220731923805,157.84436483273194C47.57099850970158,157.35547594384306,48.72655406525713,156.91103149939863,49.304331843034916,157.04436483273196C49.304331843034916,157.04436483273196,49.304331843034916,157.04436483273196,49.304331843034916,157.04436483273196M46.770998509701585,157.84436483273194C47.21544295414603,157.84436483273194,47.304331843034916,157.93325372162084,46.770998509701585,158.11103149939862C46.770998509701585,158.11103149939862,46.770998509701585,157.84436483273194,46.770998509701585,157.84436483273194C46.770998509701585,157.84436483273194,46.770998509701585,157.84436483273194,46.770998509701585,157.84436483273194M45.882109620812685,158.51103149939863C45.83766517636825,158.3776981660653,46.05988739859046,158.24436483273195,46.148776287479365,158.3776981660653C46.148776287479365,158.42214261050972,46.05988739859046,158.42214261050972,45.882109620812685,158.51103149939863C45.882109620812685,158.51103149939863,45.882109620812685,158.51103149939863,45.882109620812685,158.51103149939863M41.65988739859047,157.9776981660653C42.37099850970158,158.24436483273195,47.74877628747936,155.93325372162084,48.548776287479356,155.62214261050974C49.83766517636825,154.82214261050973,53.03766517636825,153.66658705495416,52.1932207319238,151.4888092771764C51.259887398590465,149.13325372162083,48.45988739859047,148.77769816606528,44.72655406525713,148.51103149939863C43.83766517636825,148.82214261050973,42.50433184303492,148.64436483273195,41.304331843034916,148.86658705495418C42.770998509701585,151.2665870549542,40.770998509701585,154.73325372162086,41.65988739859047,157.9776981660653C41.65988739859047,157.9776981660653,41.65988739859047,157.9776981660653,41.65988739859047,157.9776981660653M43.170998509701576,159.13325372162083C42.9932207319238,159.0888092771764,42.50433184303492,158.91103149939863,42.50433184303492,159.22214261050974C42.81544295414602,159.17769816606528,43.03766517636825,159.13325372162083,43.170998509701576,159.13325372162083C43.170998509701576,159.13325372162083,43.170998509701576,159.13325372162083,43.170998509701576,159.13325372162083M56.148776287479365,150.11103149939862C55.83766517636825,149.5776981660653,54.548776287479356,150.82214261050973,53.97099850970159,150.95547594384306C53.79322073192381,150.95547594384306,53.57099850970158,150.73325372162086,53.34877628747937,150.1999203882875C54.28210962081269,148.11103149939862,58.41544295414603,147.75547594384307,60.9932207319238,147.5776981660653C62.81544295414602,147.44436483273196,66.85988739859047,149.04436483273196,65.3932207319238,151.44436483273196C64.45988739859047,152.95547594384306,62.1932207319238,154.06658705495417,58.9932207319238,154.9999203882875C58.904331843034925,155.71103149939862,55.48210962081269,155.13325372162083,55.70433184303492,157.04436483273196C55.83766517636825,158.15547594384307,55.48210962081269,159.13325372162083,55.25988739859048,160.06658705495417C54.28210962081269,160.02214261050972,54.23766517636825,158.77769816606528,54.28210962081269,157.5776981660653C54.37099850970158,156.46658705495418,53.393220731923805,156.15547594384307,53.926554065257136,155.35547594384306C54.85988739859047,155.13325372162083,54.37099850970158,153.79992038828752,55.03766517636825,152.82214261050973C55.304331843034916,151.5776981660653,55.65988739859047,150.6888092771764,56.148776287479365,150.11103149939862C56.148776287479365,150.11103149939862,56.148776287479365,150.11103149939862,56.148776287479365,150.11103149939862M56.1932207319238,149.93325372162084C58.28210962081269,150.55547594384308,56.10433184303491,152.15547594384307,56.148776287479365,154.33325372162085C57.97099850970159,154.1999203882875,61.170998509701576,152.6888092771764,63.83766517636825,150.95547594384306C64.05988739859048,150.55547594384308,64.1932207319238,150.33325372162085,64.1932207319238,150.2888092771764C62.94877628747936,148.1999203882875,58.637665176368245,148.9999203882875,56.1932207319238,149.93325372162084C56.1932207319238,149.93325372162084,56.1932207319238,149.93325372162084,56.1932207319238,149.93325372162084" stroke="none" fill="#000000" style=""></path><path stroke-width="2" d="M42.85367418194627,53.67968297160205C46.18681158432161,58.81441969009906,39.520536779570925,115.47112668385726,42.85367418194627,137.00811803098563" stroke="#000000" fill="none" style=""></path><path stroke-width="2" d="M95.70734836389254,20C148.4793985904332,23.39403293489214,142.25607940026816,16.60596706510786,180.55817173619607,20C181.90535905506016,51.289154674756894,179.21098441733199,47.730602325654694,180.55817173619607,53.67968297160205C114.76157407777713,50.28565003670991,170.59065036496776,57.073715906494186,95.70734836389254,53.67968297160205C97.05453568275662,36.48849566473444,94.36016104502845,44.301024676566996,95.70734836389254,20" stroke="#000000" fill="#ffffff" style=""></path><rect style="" stroke="none" fill="#ffffff" ry="0" rx="0" r="0" height="13.679682971602052" width="64.85082337230352" y="29.999999999999996" x="105.70734836389255"></rect><path d="M107.59672926810572,38.301905193824275C107.06339593477236,41.635238527157604,111.86339593477237,41.67968297160205,114.97450704588348,41.45746074937983C114.97450704588348,41.45746074937983,121.41895149032794,41.013016304935384,121.41895149032794,41.013016304935384C121.81895149032792,41.10190519382427,121.81895149032792,41.235238527157605,121.81895149032792,41.81301630493538C120.17450704588347,42.613016304935385,118.04117371255015,43.05746074937983,116.97450704588348,42.79079408271316C116.17450704588347,43.235238527157605,114.88561815699458,43.235238527157605,113.81895149032792,43.235238527157605C112.53006260143903,43.235238527157605,110.79672926810571,43.27968297160205,109.15228482366126,42.74634963826872C108.88561815699458,42.701905193824274,108.7078403792168,42.613016304935385,108.7078403792168,42.390794082713164C107.24117371255014,41.81301630493538,106.57450704588348,40.924127416046495,105.7745070458835,39.76857186049094C104.93006260143903,34.701905193824274,112.26339593477238,33.10190519382427,115.73006260143904,31.90190519382427C117.28561815699459,31.90190519382427,119.64117371255014,30.524127416046497,120.13006260143905,32.21301630493538C120.0856181569946,33.50190519382427,117.95228482366127,32.83523852715761,116.75228482366126,33.45746074937983C114.30784037921683,33.81301630493538,111.64117371255014,35.013016304935384,108.97450704588348,36.613016304935385C108.3967292681057,36.96857186049094,107.95228482366127,37.546349638268715,107.59672926810572,38.301905193824275C107.59672926810572,38.301905193824275,107.59672926810572,38.301905193824275,107.59672926810572,38.301905193824275M126.84117371255016,37.19079408271316C129.15228482366126,36.1241274160465,131.46339593477236,37.99079408271316,131.46339593477236,39.990794082713165C131.46339593477236,42.613016304935385,128.53006260143903,42.96857186049094,126.3967292681057,43.67968297160205C124.0856181569946,43.59079408271316,121.28561815699459,41.45746074937983,122.84117371255016,39.013016304935384C123.86339593477237,38.21301630493539,125.15228482366126,37.45746074937983,126.84117371255016,37.19079408271316C126.84117371255016,37.19079408271316,126.84117371255016,37.19079408271316,126.84117371255016,37.19079408271316M124.04117371255015,40.701905193824274C124.75228482366126,43.10190519382427,129.5967292681057,41.41301630493538,129.86339593477237,39.67968297160205C129.33006260143904,37.05746074937983,124.13006260143905,39.324127416046494,124.04117371255015,40.701905193824274C124.04117371255015,40.701905193824274,124.04117371255015,40.701905193824274,124.04117371255015,40.701905193824274M137.06339593477236,37.324127416046494C138.7078403792168,37.59079408271316,139.81895149032792,39.72412741604649,139.81895149032792,42.25746074937983C139.81895149032792,43.67968297160205,139.1078403792168,43.36857186049094,138.44117371255015,43.013016304935384C137.64117371255014,41.67968297160205,138.21895149032792,41.013016304935384,137.46339593477236,39.235238527157605C135.81895149032792,38.65746074937983,134.30784037921683,41.67968297160205,133.3745070458835,42.1241274160465C132.4856181569946,41.990794082713165,131.64117371255014,40.390794082713164,132.44117371255015,39.36857186049094C132.53006260143903,38.83523852715761,132.57450704588348,38.701905193824274,132.93006260143903,38.0352385271576C133.46339593477236,37.67968297160205,133.81895149032792,38.5241274160465,134.21895149032792,38.56857186049094C134.21895149032792,38.56857186049094,137.06339593477236,37.324127416046494,137.06339593477236,37.324127416046494M147.15228482366126,36.65746074937983C147.99672926810572,36.701905193824274,148.35228482366128,37.72412741604649,147.73006260143904,38.079682971602054C147.55228482366127,38.1241274160465,146.75228482366128,38.25746074937983,145.3745070458835,38.390794082713164C144.66339593477238,38.74634963826872,144.39672926810573,38.301905193824275,143.64117371255017,38.79079408271316C144.66339593477238,39.72412741604649,147.59672926810572,39.50190519382427,147.90784037921682,41.546349638268715C147.33006260143904,42.613016304935385,144.13006260143905,43.10190519382427,142.39672926810573,43.41301630493538C141.99672926810572,43.27968297160205,141.59672926810572,43.27968297160205,141.1967292681057,43.41301630493538C140.93006260143906,43.235238527157605,140.26339593477238,42.701905193824274,140.84117371255016,42.301905193824275C142.1745070458835,42.03523852715761,144.53006260143906,41.72412741604649,145.3745070458835,41.235238527157605C144.61895149032793,40.5241274160465,141.81895149032795,39.76857186049094,141.0633959347724,39.10190519382427C140.93006260143906,39.013016304935384,140.8856181569946,38.79079408271316,140.8856181569946,38.43523852715761C140.61895149032793,38.16857186049094,141.01895149032794,37.857460749379825,141.55228482366127,37.635238527157604C142.53006260143906,37.235238527157605,145.73006260143904,36.613016304935385,147.15228482366126,36.65746074937983C147.15228482366126,36.65746074937983,147.15228482366126,36.65746074937983,147.15228482366126,36.65746074937983M153.4633959347724,37.19079408271316C155.7745070458835,36.1241274160465,158.0856181569946,37.99079408271316,158.0856181569946,39.990794082713165C158.0856181569946,42.613016304935385,155.15228482366126,42.96857186049094,153.01895149032794,43.67968297160205C150.70784037921683,43.59079408271316,147.90784037921682,41.45746074937983,149.4633959347724,39.013016304935384C150.4856181569946,38.21301630493539,151.7745070458835,37.45746074937983,153.4633959347724,37.19079408271316C153.4633959347724,37.19079408271316,153.4633959347724,37.19079408271316,153.4633959347724,37.19079408271316M150.66339593477238,40.701905193824274C151.3745070458835,43.10190519382427,156.21895149032792,41.41301630493538,156.4856181569946,39.67968297160205C155.95228482366127,37.05746074937983,150.75228482366128,39.324127416046494,150.66339593477238,40.701905193824274C150.66339593477238,40.701905193824274,150.66339593477238,40.701905193824274,150.66339593477238,40.701905193824274M161.24117371255016,30.035238527157603C162.1745070458835,29.768571860490937,162.8856181569946,31.05746074937983,162.5745070458835,32.47968297160205C162.13006260143905,34.74634963826872,161.33006260143904,38.47968297160205,161.33006260143904,41.72412741604649C161.33006260143904,42.21301630493539,161.59672926810572,43.324127416046494,160.75228482366128,43.36857186049094C159.4633959347724,43.14634963826872,159.41895149032794,41.235238527157605,159.64117371255017,39.67968297160205C159.64117371255017,39.67968297160205,160.8856181569946,31.81301630493538,160.8856181569946,31.81301630493538C160.61895149032793,31.05746074937983,160.93006260143906,30.524127416046497,161.24117371255016,30.035238527157603C161.24117371255016,30.035238527157603,161.24117371255016,30.035238527157603,161.24117371255016,30.035238527157603M163.01895149032794,40.83523852715761C163.01895149032794,38.25746074937983,165.28561815699462,37.67968297160205,167.90784037921682,37.546349638268715C169.3745070458835,37.50190519382427,169.90784037921682,38.25746074937983,170.53006260143906,39.10190519382427C170.57450704588348,39.72412741604649,170.61895149032793,40.83523852715761,170.21895149032792,40.96857186049094C169.15228482366126,40.87968297160205,166.97450704588348,41.546349638268715,165.81895149032795,41.45746074937983C165.73006260143904,41.546349638268715,165.73006260143904,41.59079408271316,165.73006260143904,41.59079408271316C165.73006260143904,41.72412741604649,166.26339593477238,41.94634963826872,167.3745070458835,42.25746074937983C168.30784037921683,42.25746074937983,170.44117371255015,42.65746074937983,168.75228482366126,43.235238527157605C168.35228482366128,43.857460749379825,167.24117371255016,43.50190519382427,166.26339593477238,43.50190519382427C165.0633959347724,43.27968297160205,163.01895149032794,42.25746074937983,163.01895149032794,40.83523852715761C163.01895149032794,40.83523852715761,163.01895149032794,40.83523852715761,163.01895149032794,40.83523852715761M168.30784037921683,38.83523852715761C167.33006260143904,38.924127416046495,165.28561815699462,39.05746074937983,165.41895149032794,39.990794082713165C166.4856181569946,39.90190519382427,168.35228482366128,40.21301630493539,168.93006260143906,39.72412741604649C168.70784037921683,39.14634963826872,168.8856181569946,39.14634963826872,168.30784037921683,38.83523852715761C168.30784037921683,38.83523852715761,168.30784037921683,38.83523852715761,168.30784037921683,38.83523852715761" stroke="none" fill="#000000" style=""></path><path stroke-width="2" d="M95.70734836389254,137.00811803098563C144.90713365002503,133.61408509609348,119.61376892532053,140.40215096587778,180.55817173619607,137.00811803098563C181.90535905506016,163.28155997967977,179.21098441733199,144.4090814445848,180.55817173619607,170.68780100258766C151.15265434931905,174.08183393747981,108.33546108473627,167.2937680676955,95.70734836389254,170.68780100258766C94.36016104502845,145.12582671560708,97.05453568275662,147.24300729420753,95.70734836389254,137.00811803098563" stroke="#000000" fill="#ffffff" style=""></path><rect style="" stroke="none" fill="#ffffff" ry="0" rx="0" r="0" height="13.679682971602034" width="64.85082337230352" y="147.00811803098566" x="105.70734836389255"></rect><path d="M107.59672926810572,155.31002322480992C107.06339593477236,158.64335655814327,111.86339593477237,158.6878010025877,114.97450704588348,158.4655787803655C114.97450704588348,158.4655787803655,121.41895149032794,158.02113433592103,121.41895149032794,158.02113433592103C121.81895149032792,158.1100232248099,121.81895149032792,158.24335655814326,121.81895149032792,158.82113433592104C120.17450704588347,159.62113433592103,118.04117371255015,160.06557878036548,116.97450704588348,159.7989121136988C116.17450704588347,160.24335655814326,114.88561815699458,160.24335655814326,113.81895149032792,160.24335655814326C112.53006260143903,160.24335655814326,110.79672926810571,160.28780100258768,109.15228482366126,159.75446766925435C108.88561815699458,159.71002322480993,108.7078403792168,159.62113433592103,108.7078403792168,159.3989121136988C107.24117371255014,158.82113433592104,106.57450704588348,157.93224544703213,105.7745070458835,156.7766898914766C104.93006260143903,151.71002322480993,112.26339593477238,150.1100232248099,115.73006260143904,148.91002322480992C117.28561815699459,148.91002322480992,119.64117371255014,147.53224544703215,120.13006260143905,149.22113433592102C120.0856181569946,150.5100232248099,117.95228482366127,149.84335655814326,116.75228482366126,150.46557878036546C114.30784037921683,150.82113433592104,111.64117371255014,152.02113433592103,108.97450704588348,153.62113433592103C108.3967292681057,153.97668989147658,107.95228482366127,154.55446766925436,107.59672926810572,155.31002322480992C107.59672926810572,155.31002322480992,107.59672926810572,155.31002322480992,107.59672926810572,155.31002322480992M126.84117371255016,154.1989121136988C129.15228482366126,153.13224544703215,131.46339593477236,154.99891211369882,131.46339593477236,156.99891211369882C131.46339593477236,159.62113433592103,128.53006260143903,159.97668989147658,126.3967292681057,160.6878010025877C124.0856181569946,160.59891211369882,121.28561815699459,158.4655787803655,122.84117371255016,156.02113433592103C123.86339593477237,155.22113433592102,125.15228482366126,154.46557878036546,126.84117371255016,154.1989121136988C126.84117371255016,154.1989121136988,126.84117371255016,154.1989121136988,126.84117371255016,154.1989121136988M124.04117371255015,157.71002322480993C124.75228482366126,160.1100232248099,129.5967292681057,158.42113433592104,129.86339593477237,156.6878010025877C129.33006260143904,154.06557878036548,124.13006260143905,156.33224544703214,124.04117371255015,157.71002322480993C124.04117371255015,157.71002322480993,124.04117371255015,157.71002322480993,124.04117371255015,157.71002322480993M137.06339593477236,154.33224544703214C138.7078403792168,154.59891211369882,139.81895149032792,156.73224544703214,139.81895149032792,159.26557878036547C139.81895149032792,160.6878010025877,139.1078403792168,160.3766898914766,138.44117371255015,160.02113433592103C137.64117371255014,158.6878010025877,138.21895149032792,158.02113433592103,137.46339593477236,156.24335655814326C135.81895149032792,155.66557878036548,134.30784037921683,158.6878010025877,133.3745070458835,159.13224544703215C132.4856181569946,158.99891211369882,131.64117371255014,157.3989121136988,132.44117371255015,156.3766898914766C132.53006260143903,155.84335655814326,132.57450704588348,155.71002322480993,132.93006260143903,155.04335655814324C133.46339593477236,154.6878010025877,133.81895149032792,155.53224544703215,134.21895149032792,155.57668989147658C134.21895149032792,155.57668989147658,137.06339593477236,154.33224544703214,137.06339593477236,154.33224544703214M147.15228482366126,153.66557878036548C147.99672926810572,153.71002322480993,148.35228482366128,154.73224544703214,147.73006260143904,155.0878010025877C147.55228482366127,155.13224544703215,146.75228482366128,155.26557878036547,145.3745070458835,155.3989121136988C144.66339593477238,155.75446766925435,144.39672926810573,155.31002322480992,143.64117371255017,155.7989121136988C144.66339593477238,156.73224544703214,147.59672926810572,156.5100232248099,147.90784037921682,158.55446766925436C147.33006260143904,159.62113433592103,144.13006260143905,160.1100232248099,142.39672926810573,160.42113433592104C141.99672926810572,160.28780100258768,141.59672926810572,160.28780100258768,141.1967292681057,160.42113433592104C140.93006260143906,160.24335655814326,140.26339593477238,159.71002322480993,140.84117371255016,159.31002322480992C142.1745070458835,159.04335655814324,144.53006260143906,158.73224544703214,145.3745070458835,158.24335655814326C144.61895149032793,157.53224544703215,141.81895149032795,156.7766898914766,141.0633959347724,156.1100232248099C140.93006260143906,156.02113433592103,140.8856181569946,155.7989121136988,140.8856181569946,155.44335655814325C140.61895149032793,155.1766898914766,141.01895149032794,154.86557878036547,141.55228482366127,154.64335655814327C142.53006260143906,154.24335655814326,145.73006260143904,153.62113433592103,147.15228482366126,153.66557878036548C147.15228482366126,153.66557878036548,147.15228482366126,153.66557878036548,147.15228482366126,153.66557878036548M153.4633959347724,154.1989121136988C155.7745070458835,153.13224544703215,158.0856181569946,154.99891211369882,158.0856181569946,156.99891211369882C158.0856181569946,159.62113433592103,155.15228482366126,159.97668989147658,153.01895149032794,160.6878010025877C150.70784037921683,160.59891211369882,147.90784037921682,158.4655787803655,149.4633959347724,156.02113433592103C150.4856181569946,155.22113433592102,151.7745070458835,154.46557878036546,153.4633959347724,154.1989121136988C153.4633959347724,154.1989121136988,153.4633959347724,154.1989121136988,153.4633959347724,154.1989121136988M150.66339593477238,157.71002322480993C151.3745070458835,160.1100232248099,156.21895149032792,158.42113433592104,156.4856181569946,156.6878010025877C155.95228482366127,154.06557878036548,150.75228482366128,156.33224544703214,150.66339593477238,157.71002322480993C150.66339593477238,157.71002322480993,150.66339593477238,157.71002322480993,150.66339593477238,157.71002322480993M161.24117371255016,147.04335655814324C162.1745070458835,146.7766898914766,162.8856181569946,148.06557878036548,162.5745070458835,149.4878010025877C162.13006260143905,151.75446766925435,161.33006260143904,155.4878010025877,161.33006260143904,158.73224544703214C161.33006260143904,159.22113433592102,161.59672926810572,160.33224544703214,160.75228482366128,160.3766898914766C159.4633959347724,160.15446766925436,159.41895149032794,158.24335655814326,159.64117371255017,156.6878010025877C159.64117371255017,156.6878010025877,160.8856181569946,148.82113433592104,160.8856181569946,148.82113433592104C160.61895149032793,148.06557878036548,160.93006260143906,147.53224544703215,161.24117371255016,147.04335655814324C161.24117371255016,147.04335655814324,161.24117371255016,147.04335655814324,161.24117371255016,147.04335655814324M163.01895149032794,157.84335655814326C163.01895149032794,155.26557878036547,165.28561815699462,154.6878010025877,167.90784037921682,154.55446766925436C169.3745070458835,154.5100232248099,169.90784037921682,155.26557878036547,170.53006260143906,156.1100232248099C170.57450704588348,156.73224544703214,170.61895149032793,157.84335655814326,170.21895149032792,157.97668989147658C169.15228482366126,157.8878010025877,166.97450704588348,158.55446766925436,165.81895149032795,158.4655787803655C165.73006260143904,158.55446766925436,165.73006260143904,158.59891211369882,165.73006260143904,158.59891211369882C165.73006260143904,158.73224544703214,166.26339593477238,158.95446766925437,167.3745070458835,159.26557878036547C168.30784037921683,159.26557878036547,170.44117371255015,159.66557878036548,168.75228482366126,160.24335655814326C168.35228482366128,160.86557878036547,167.24117371255016,160.5100232248099,166.26339593477238,160.5100232248099C165.0633959347724,160.28780100258768,163.01895149032794,159.26557878036547,163.01895149032794,157.84335655814326C163.01895149032794,157.84335655814326,163.01895149032794,157.84335655814326,163.01895149032794,157.84335655814326M168.30784037921683,155.84335655814326C167.33006260143904,155.93224544703213,165.28561815699462,156.06557878036548,165.41895149032794,156.99891211369882C166.4856181569946,156.91002322480992,168.35228482366128,157.22113433592102,168.93006260143906,156.73224544703214C168.70784037921683,156.15446766925436,168.8856181569946,156.15446766925436,168.30784037921683,155.84335655814326C168.30784037921683,155.84335655814326,168.30784037921683,155.84335655814326,168.30784037921683,155.84335655814326" stroke="none" fill="#000000" style=""></path><path stroke-width="2" d="M138.1327600500443,53.67968297160205C134.79962264766897,69.18616127833737,141.46589745241965,98.01384461476519,138.1327600500443,137.00811803098563" stroke="#000000" fill="none" style=""></path><rect style="" stroke="none" fill="#ffffff" ry="0" rx="0" r="0" height="11.008049653975348" width="2.3198385828117836" y="73.17565814461437" x="89.33329782458941"></rect><path d="M89.91980307406786,75.13313314280047C89.91980307406786,74.51091092057825,90.18646974073452,72.51091092057825,91.20869196295675,73.39979980946714C91.34202529629007,73.57757758724492,91.47535862962341,73.97757758724492,91.65313640740119,74.4664664761338C91.65313640740119,74.4664664761338,90.67535862962342,80.15535536502269,90.67535862962342,80.15535536502269C90.67535862962342,80.15535536502269,91.03091418517897,84.02202203168936,91.03091418517897,84.02202203168936C90.8531364074012,84.28868869835603,90.63091418517897,84.15535536502269,90.31980307406786,84.11091092057825C88.3642475185123,82.42202203168935,89.91980307406786,78.02202203168936,89.91980307406786,75.13313314280047C89.91980307406786,75.13313314280047,89.91980307406786,75.13313314280047,89.91980307406786,75.13313314280047" stroke="none" fill="#000000" style=""></path><path stroke-dasharray="0" marker-end="url(#raphael-marker-endblock55)" stroke-width="2" d="M42.85367418194627,84.6877326255774C106.17461156281081,80.99706373792299,84.50644453241138,88.02834661507416,133.13920086532065,85.01565270473533" stroke="#000000" fill="none" style=""></path><rect style="" stroke="none" fill="#ffffff" ry="0" rx="0" r="0" height="12.320385405408246" width="11.002557811793736" y="103.52753992287327" x="84.99193821009843"></rect><path d="M88.52782935522549,114.47014755050373C90.6167182441144,114.0257031060593,93.81671824411438,113.40348088383706,95.99449602189216,114.07014755050372C95.99449602189216,114.60348088383708,94.97227379966995,114.6479253282815,94.43894046633662,114.78125866161486C94.48338491078107,114.82570310605928,94.57227379966994,114.82570310605928,94.66116268855885,114.82570310605928C91.37227379966995,115.18125866161483,89.41671824411438,115.84792532828152,86.03894046633661,115.84792532828152C85.41671824411438,115.84792532828152,85.15005157744773,115.27014755050374,85.10560713300328,114.60348088383708C87.55005157744773,112.82570310605928,88.79449602189217,111.89236977272594,90.57227379966994,109.98125866161485C91.72782935522551,109.40348088383706,93.46116268855883,107.00348088383706,93.72782935522551,105.44792532828151C93.68338491078106,105.04792532828151,93.2389404663366,104.7368142171704,92.75005157744772,104.7368142171704C91.86116268855884,104.69236977272595,87.41671824411438,106.0257031060593,85.81671824411438,106.91459199494818C85.37227379966995,106.82570310605928,84.48338491078104,106.0257031060593,85.37227379966995,105.67014755050374C87.59449602189216,104.7368142171704,90.30560713300326,103.40348088383706,93.28338491078105,103.53681421717039C94.39449602189217,103.98125866161485,95.2389404663366,104.51459199494818,94.88338491078105,105.27014755050374C95.41671824411438,106.60348088383708,94.03894046633661,108.11459199494817,93.37227379966995,108.95903643939263C91.6389404663366,111.09236977272596,91.72782935522551,110.69236977272595,88.26116268855884,113.80348088383707C88.26116268855884,114.0257031060593,88.12782935522549,114.15903643939262,87.90560713300329,114.29236977272595C88.08338491078106,114.4257031060593,88.26116268855884,114.47014755050373,88.52782935522549,114.47014755050373C88.52782935522549,114.47014755050373,88.52782935522549,114.47014755050373,88.52782935522549,114.47014755050373" stroke="none" fill="#000000" style=""></path><path stroke-dasharray="0" marker-end="url(#raphael-marker-endblock55)" stroke-width="2" d="M138.1327600500443,117.00811803098563C86.59445797685466,113.27906767563533,121.06574670451688,120.49613662813792,47.849046626785174,117.2387635330015" stroke="#000000" fill="none" style=""></path></svg>