<?xml version="1.0" encoding="utf-8" standalone="no"?><!DOCTYPE svg PUBLIC "-//W3C//DTD SVG 20010904//EN" "http://www.w3.org/TR/2001/REC-SVG-20010904/DTD/svg10.dtd"><svg xmlns="http://www.w3.org/2000/svg" width="670" height="1007" xmlns:xlink="http://www.w3.org/1999/xlink"><source><![CDATA[    participant A
    participant Filter
    participant Console
    participant B
    participant EchoB
    participant C
    participant EchoC

    Note over Console: Console to the\n network
    Console->Filter: 1
    Filter->A: 2

    A->B: 3
    B->EchoB: 4
    Note over EchoB: swap src/dst
    EchoB->B: 5
    B->A: 6
    A->Filter: 7
    Note over Filter: Accepted from B
    Filter->Console: 8
    Note over Console: print echo
    A->C: 9
    C->EchoC: 10
    Note over EchoC: swap src/dst
    EchoC->C: 11
    C->A: 12
    A->Filter: 13
    Note over Filter: reject from C
    Note over Console: no output
]]></source><desc>Created with Raphaël 2.1.0</desc><defs><path id="raphael-marker-block" d="M5,0 0,2.5 5,5z" stroke-linecap="round"></path><marker refY="2.5" refX="2.5" orient="auto" markerWidth="5" markerHeight="5" id="raphael-marker-endblock55"><use stroke="none" fill="#000" stroke-width="1.0000" transform="rotate(180 2.5 2.5) scale(1,1)" xlink:href="#raphael-marker-block"></use></marker></defs><rect stroke-width="2" style="" stroke="#000000" fill="none" ry="0" rx="0" r="0" height="39" width="30" y="20" x="10"></rect><rect style="" stroke="none" fill="#ffffff" ry="0" rx="0" r="0" height="19" width="10" y="30" x="20"></rect><text font-family="Andale Mono, monospace" font-size="16px" fill="#000000" stroke="none" font="10px &quot;Arial&quot;" text-anchor="middle" y="39.5" x="25" style="text-anchor: middle; font: 16px Andale Mono,monospace;"><tspan dy="5.5">A</tspan></text><rect stroke-width="2" style="" stroke="#000000" fill="none" ry="0" rx="0" r="0" height="39" width="30" y="948.2000007629395" x="10"></rect><rect style="" stroke="none" fill="#ffffff" ry="0" rx="0" r="0" height="19" width="10" y="958.2000122070312" x="20"></rect><text font-family="Andale Mono, monospace" font-size="16px" fill="#000000" stroke="none" font="10px &quot;Arial&quot;" text-anchor="middle" y="967.7000007629395" x="25" style="text-anchor: middle; font: 16px Andale Mono,monospace;"><tspan dy="5.499988555908203">A</tspan></text><path stroke-width="2" d="M25,59L25,948.2000007629395" stroke="#000000" fill="none" style=""></path><rect stroke-width="2" style="" stroke="#000000" fill="none" ry="0" rx="0" r="0" height="39" width="80" y="20" x="75"></rect><rect style="" stroke="none" fill="#ffffff" ry="0" rx="0" r="0" height="19" width="60" y="30" x="85"></rect><text font-family="Andale Mono, monospace" font-size="16px" fill="#000000" stroke="none" font="10px &quot;Arial&quot;" text-anchor="middle" y="39.5" x="115" style="text-anchor: middle; font: 16px Andale Mono,monospace;"><tspan dy="5.5">Filter</tspan></text><rect stroke-width="2" style="" stroke="#000000" fill="none" ry="0" rx="0" r="0" height="39" width="80" y="948.2000007629395" x="75"></rect><rect style="" stroke="none" fill="#ffffff" ry="0" rx="0" r="0" height="19" width="60" y="958.2000122070312" x="85"></rect><text font-family="Andale Mono, monospace" font-size="16px" fill="#000000" stroke="none" font="10px &quot;Arial&quot;" text-anchor="middle" y="967.7000007629395" x="115" style="text-anchor: middle; font: 16px Andale Mono,monospace;"><tspan dy="5.499988555908203">Filter</tspan></text><path stroke-width="2" d="M115,59L115,948.2000007629395" stroke="#000000" fill="none" style=""></path><rect stroke-width="2" style="" stroke="#000000" fill="none" ry="0" rx="0" r="0" height="39" width="90" y="20" x="175"></rect><rect style="" stroke="none" fill="#ffffff" ry="0" rx="0" r="0" height="19" width="70" y="30" x="185"></rect><text font-family="Andale Mono, monospace" font-size="16px" fill="#000000" stroke="none" font="10px &quot;Arial&quot;" text-anchor="middle" y="39.5" x="220" style="text-anchor: middle; font: 16px Andale Mono,monospace;"><tspan dy="5.5">Console</tspan></text><rect stroke-width="2" style="" stroke="#000000" fill="none" ry="0" rx="0" r="0" height="39" width="90" y="948.2000007629395" x="175"></rect><rect style="" stroke="none" fill="#ffffff" ry="0" rx="0" r="0" height="19" width="70" y="958.2000122070312" x="185"></rect><text font-family="Andale Mono, monospace" font-size="16px" fill="#000000" stroke="none" font="10px &quot;Arial&quot;" text-anchor="middle" y="967.7000007629395" x="220" style="text-anchor: middle; font: 16px Andale Mono,monospace;"><tspan dy="5.499988555908203">Console</tspan></text><path stroke-width="2" d="M220,59L220,948.2000007629395" stroke="#000000" fill="none" style=""></path><rect stroke-width="2" style="" stroke="#000000" fill="none" ry="0" rx="0" r="0" height="39" width="30" y="20" x="290"></rect><rect style="" stroke="none" fill="#ffffff" ry="0" rx="0" r="0" height="19" width="10" y="30" x="300"></rect><text font-family="Andale Mono, monospace" font-size="16px" fill="#000000" stroke="none" font="10px &quot;Arial&quot;" text-anchor="middle" y="39.5" x="305" style="text-anchor: middle; font: 16px Andale Mono,monospace;"><tspan dy="5.5">B</tspan></text><rect stroke-width="2" style="" stroke="#000000" fill="none" ry="0" rx="0" r="0" height="39" width="30" y="948.2000007629395" x="290"></rect><rect style="" stroke="none" fill="#ffffff" ry="0" rx="0" r="0" height="19" width="10" y="958.2000122070312" x="300"></rect><text font-family="Andale Mono, monospace" font-size="16px" fill="#000000" stroke="none" font="10px &quot;Arial&quot;" text-anchor="middle" y="967.7000007629395" x="305" style="text-anchor: middle; font: 16px Andale Mono,monospace;"><tspan dy="5.499988555908203">B</tspan></text><path stroke-width="2" d="M305,59L305,948.2000007629395" stroke="#000000" fill="none" style=""></path><rect stroke-width="2" style="" stroke="#000000" fill="none" ry="0" rx="0" r="0" height="39" width="70" y="20" x="345"></rect><rect style="" stroke="none" fill="#ffffff" ry="0" rx="0" r="0" height="19" width="50" y="30" x="355"></rect><text font-family="Andale Mono, monospace" font-size="16px" fill="#000000" stroke="none" font="10px &quot;Arial&quot;" text-anchor="middle" y="39.5" x="380" style="text-anchor: middle; font: 16px Andale Mono,monospace;"><tspan dy="5.5">EchoB</tspan></text><rect stroke-width="2" style="" stroke="#000000" fill="none" ry="0" rx="0" r="0" height="39" width="70" y="948.2000007629395" x="345"></rect><rect style="" stroke="none" fill="#ffffff" ry="0" rx="0" r="0" height="19" width="50" y="958.2000122070312" x="355"></rect><text font-family="Andale Mono, monospace" font-size="16px" fill="#000000" stroke="none" font="10px &quot;Arial&quot;" text-anchor="middle" y="967.7000007629395" x="380" style="text-anchor: middle; font: 16px Andale Mono,monospace;"><tspan dy="5.499988555908203">EchoB</tspan></text><path stroke-width="2" d="M380,59L380,948.2000007629395" stroke="#000000" fill="none" style=""></path><rect stroke-width="2" style="" stroke="#000000" fill="none" ry="0" rx="0" r="0" height="39" width="30" y="20" x="440"></rect><rect style="" stroke="none" fill="#ffffff" ry="0" rx="0" r="0" height="19" width="10" y="30" x="450"></rect><text font-family="Andale Mono, monospace" font-size="16px" fill="#000000" stroke="none" font="10px &quot;Arial&quot;" text-anchor="middle" y="39.5" x="455" style="text-anchor: middle; font: 16px Andale Mono,monospace;"><tspan dy="5.5">C</tspan></text><rect stroke-width="2" style="" stroke="#000000" fill="none" ry="0" rx="0" r="0" height="39" width="30" y="948.2000007629395" x="440"></rect><rect style="" stroke="none" fill="#ffffff" ry="0" rx="0" r="0" height="19" width="10" y="958.2000122070312" x="450"></rect><text font-family="Andale Mono, monospace" font-size="16px" fill="#000000" stroke="none" font="10px &quot;Arial&quot;" text-anchor="middle" y="967.7000007629395" x="455" style="text-anchor: middle; font: 16px Andale Mono,monospace;"><tspan dy="5.499988555908203">C</tspan></text><path stroke-width="2" d="M455,59L455,948.2000007629395" stroke="#000000" fill="none" style=""></path><rect stroke-width="2" style="" stroke="#000000" fill="none" ry="0" rx="0" r="0" height="39" width="70" y="20" x="495"></rect><rect style="" stroke="none" fill="#ffffff" ry="0" rx="0" r="0" height="19" width="50" y="30" x="505"></rect><text font-family="Andale Mono, monospace" font-size="16px" fill="#000000" stroke="none" font="10px &quot;Arial&quot;" text-anchor="middle" y="39.5" x="530" style="text-anchor: middle; font: 16px Andale Mono,monospace;"><tspan dy="5.5">EchoC</tspan></text><rect stroke-width="2" style="" stroke="#000000" fill="none" ry="0" rx="0" r="0" height="39" width="70" y="948.2000007629395" x="495"></rect><rect style="" stroke="none" fill="#ffffff" ry="0" rx="0" r="0" height="19" width="50" y="958.2000122070312" x="505"></rect><text font-family="Andale Mono, monospace" font-size="16px" fill="#000000" stroke="none" font="10px &quot;Arial&quot;" text-anchor="middle" y="967.7000007629395" x="530" style="text-anchor: middle; font: 16px Andale Mono,monospace;"><tspan dy="5.499988555908203">EchoC</tspan></text><path stroke-width="2" d="M530,59L530,948.2000007629395" stroke="#000000" fill="none" style=""></path><rect stroke-width="2" style="" stroke="#000000" fill="none" ry="0" rx="0" r="0" height="48.20000076293945" width="150" y="79" x="145"></rect><rect style="" stroke="none" fill="#ffffff" ry="0" rx="0" r="0" height="38.19999694824219" width="140" y="84" x="150"></rect><text font-family="Andale Mono, monospace" font-size="16px" fill="#000000" stroke="none" font="10px &quot;Arial&quot;" text-anchor="middle" y="103.10000038146973" x="220" style="text-anchor: middle; font: 16px Andale Mono,monospace;"><tspan dy="-4.100000381469727">Console to the</tspan><tspan x="220" dy="19.2"> network</tspan></text><rect style="" stroke="none" fill="#ffffff" ry="0" rx="0" r="0" height="19" width="10" y="142.6999969482422" x="162.5"></rect><text font-family="Andale Mono, monospace" font-size="16px" fill="#000000" stroke="none" font="10px &quot;Arial&quot;" text-anchor="middle" y="152.20000076293945" x="167.5" style="text-anchor: middle; font: 16px Andale Mono,monospace;"><tspan dy="5.500003814697266">1</tspan></text><path stroke-dasharray="0" marker-end="url(#raphael-marker-endblock55)" stroke-width="2" d="M220,166.20000076293945C220,166.20000076293945,140.8605718612671,166.20000076293945,119.99373045749962,166.20000076293945" stroke="#000000" fill="none" style=""></path><rect style="" stroke="none" fill="#ffffff" ry="0" rx="0" r="0" height="19" width="10" y="181.6999969482422" x="65"></rect><text font-family="Andale Mono, monospace" font-size="16px" fill="#000000" stroke="none" font="10px &quot;Arial&quot;" text-anchor="middle" y="191.20000076293945" x="70" style="text-anchor: middle; font: 16px Andale Mono,monospace;"><tspan dy="5.500003814697266">2</tspan></text><path stroke-dasharray="0" marker-end="url(#raphael-marker-endblock55)" stroke-width="2" d="M115,205.20000076293945C115,205.20000076293945,48.9098334312439,205.20000076293945,29.999268192332238,205.20000076293945" stroke="#000000" fill="none" style=""></path><rect style="" stroke="none" fill="#ffffff" ry="0" rx="0" r="0" height="19" width="10" y="220.6999969482422" x="160"></rect><text font-family="Andale Mono, monospace" font-size="16px" fill="#000000" stroke="none" font="10px &quot;Arial&quot;" text-anchor="middle" y="230.20000076293945" x="165" style="text-anchor: middle; font: 16px Andale Mono,monospace;"><tspan dy="5.500003814697266">3</tspan></text><path stroke-dasharray="0" marker-end="url(#raphael-marker-endblock55)" stroke-width="2" d="M25,244.20000076293945C25,244.20000076293945,262.3292136192322,244.20000076293945,299.9913202726748,244.20000076293945" stroke="#000000" fill="none" style=""></path><rect style="" stroke="none" fill="#ffffff" ry="0" rx="0" r="0" height="19" width="10" y="259.70001220703125" x="337.5"></rect><text font-family="Andale Mono, monospace" font-size="16px" fill="#000000" stroke="none" font="10px &quot;Arial&quot;" text-anchor="middle" y="269.20000076293945" x="342.5" style="text-anchor: middle; font: 16px Andale Mono,monospace;"><tspan dy="5.499988555908203">4</tspan></text><path stroke-dasharray="0" marker-end="url(#raphael-marker-endblock55)" stroke-width="2" d="M305,283.20000076293945C305,283.20000076293945,358.2083213329315,283.20000076293945,374.9918055033777,283.20000076293945" stroke="#000000" fill="none" style=""></path><rect stroke-width="2" style="" stroke="#000000" fill="none" ry="0" rx="0" r="0" height="29" width="130" y="303.20000076293945" x="315"></rect><rect style="" stroke="none" fill="#ffffff" ry="0" rx="0" r="0" height="19" width="120" y="308.20001220703125" x="320"></rect><text font-family="Andale Mono, monospace" font-size="16px" fill="#000000" stroke="none" font="10px &quot;Arial&quot;" text-anchor="middle" y="317.70000076293945" x="380" style="text-anchor: middle; font: 16px Andale Mono,monospace;"><tspan dy="5.499988555908203">swap src/dst</tspan></text><rect style="" stroke="none" fill="#ffffff" ry="0" rx="0" r="0" height="19" width="10" y="347.70001220703125" x="337.5"></rect><text font-family="Andale Mono, monospace" font-size="16px" fill="#000000" stroke="none" font="10px &quot;Arial&quot;" text-anchor="middle" y="357.20000076293945" x="342.5" style="text-anchor: middle; font: 16px Andale Mono,monospace;"><tspan dy="5.499988555908203">5</tspan></text><path stroke-dasharray="0" marker-end="url(#raphael-marker-endblock55)" stroke-width="2" d="M380,371.20000076293945C380,371.20000076293945,326.7916786670685,371.20000076293945,310.0081944966223,371.20000076293945" stroke="#000000" fill="none" style=""></path><rect style="" stroke="none" fill="#ffffff" ry="0" rx="0" r="0" height="19" width="10" y="386.70001220703125" x="160"></rect><text font-family="Andale Mono, monospace" font-size="16px" fill="#000000" stroke="none" font="10px &quot;Arial&quot;" text-anchor="middle" y="396.20000076293945" x="165" style="text-anchor: middle; font: 16px Andale Mono,monospace;"><tspan dy="5.499988555908203">6</tspan></text><path stroke-dasharray="0" marker-end="url(#raphael-marker-endblock55)" stroke-width="2" d="M305,410.20000076293945C305,410.20000076293945,67.67078638076782,410.20000076293945,30.008679727325216,410.20000076293945" stroke="#000000" fill="none" style=""></path><rect style="" stroke="none" fill="#ffffff" ry="0" rx="0" r="0" height="19" width="10" y="425.70001220703125" x="65"></rect><text font-family="Andale Mono, monospace" font-size="16px" fill="#000000" stroke="none" font="10px &quot;Arial&quot;" text-anchor="middle" y="435.20000076293945" x="70" style="text-anchor: middle; font: 16px Andale Mono,monospace;"><tspan dy="5.499988555908203">7</tspan></text><path stroke-dasharray="0" marker-end="url(#raphael-marker-endblock55)" stroke-width="2" d="M25,449.20000076293945C25,449.20000076293945,91.0901665687561,449.20000076293945,110.00073180766776,449.20000076293945" stroke="#000000" fill="none" style=""></path><rect stroke-width="2" style="" stroke="#000000" fill="none" ry="0" rx="0" r="0" height="29" width="160" y="469.20000076293945" x="35"></rect><rect style="" stroke="none" fill="#ffffff" ry="0" rx="0" r="0" height="19" width="150" y="474.20001220703125" x="40"></rect><text font-family="Andale Mono, monospace" font-size="16px" fill="#000000" stroke="none" font="10px &quot;Arial&quot;" text-anchor="middle" y="483.70000076293945" x="115" style="text-anchor: middle; font: 16px Andale Mono,monospace;"><tspan dy="5.499988555908203">Accepted from B</tspan></text><rect style="" stroke="none" fill="#ffffff" ry="0" rx="0" r="0" height="19" width="10" y="513.7000122070312" x="162.5"></rect><text font-family="Andale Mono, monospace" font-size="16px" fill="#000000" stroke="none" font="10px &quot;Arial&quot;" text-anchor="middle" y="523.2000007629395" x="167.5" style="text-anchor: middle; font: 16px Andale Mono,monospace;"><tspan dy="5.499988555908203">8</tspan></text><path stroke-dasharray="0" marker-end="url(#raphael-marker-endblock55)" stroke-width="2" d="M115,537.2000007629395C115,537.2000007629395,194.1394281387329,537.2000007629395,215.00626954250038,537.2000007629395" stroke="#000000" fill="none" style=""></path><rect stroke-width="2" style="" stroke="#000000" fill="none" ry="0" rx="0" r="0" height="29" width="110" y="557.2000007629395" x="165"></rect><rect style="" stroke="none" fill="#ffffff" ry="0" rx="0" r="0" height="19" width="100" y="562.2000122070312" x="170"></rect><text font-family="Andale Mono, monospace" font-size="16px" fill="#000000" stroke="none" font="10px &quot;Arial&quot;" text-anchor="middle" y="571.7000007629395" x="220" style="text-anchor: middle; font: 16px Andale Mono,monospace;"><tspan dy="5.499988555908203">print echo</tspan></text><rect style="" stroke="none" fill="#ffffff" ry="0" rx="0" r="0" height="19" width="10" y="601.7000122070312" x="235"></rect><text font-family="Andale Mono, monospace" font-size="16px" fill="#000000" stroke="none" font="10px &quot;Arial&quot;" text-anchor="middle" y="611.2000007629395" x="240" style="text-anchor: middle; font: 16px Andale Mono,monospace;"><tspan dy="5.499988555908203">9</tspan></text><path stroke-dasharray="0" marker-end="url(#raphael-marker-endblock55)" stroke-width="2" d="M25,625.2000007629395C25,625.2000007629395,402.04443380236626,625.2000007629395,450.00345480115357,625.2000007629395" stroke="#000000" fill="none" style=""></path><rect style="" stroke="none" fill="#ffffff" ry="0" rx="0" r="0" height="19" width="20" y="640.7000122070312" x="482.5"></rect><text font-family="Andale Mono, monospace" font-size="16px" fill="#000000" stroke="none" font="10px &quot;Arial&quot;" text-anchor="middle" y="650.2000007629395" x="492.5" style="text-anchor: middle; font: 16px Andale Mono,monospace;"><tspan dy="5.499988555908203">10</tspan></text><path stroke-dasharray="0" marker-end="url(#raphael-marker-endblock55)" stroke-width="2" d="M455,664.2000007629395C455,664.2000007629395,508.2083213329315,664.2000007629395,524.9918055033777,664.2000007629395" stroke="#000000" fill="none" style=""></path><rect stroke-width="2" style="" stroke="#000000" fill="none" ry="0" rx="0" r="0" height="29" width="130" y="684.2000007629395" x="465"></rect><rect style="" stroke="none" fill="#ffffff" ry="0" rx="0" r="0" height="19" width="120" y="689.2000122070312" x="470"></rect><text font-family="Andale Mono, monospace" font-size="16px" fill="#000000" stroke="none" font="10px &quot;Arial&quot;" text-anchor="middle" y="698.7000007629395" x="530" style="text-anchor: middle; font: 16px Andale Mono,monospace;"><tspan dy="5.499988555908203">swap src/dst</tspan></text><rect style="" stroke="none" fill="#ffffff" ry="0" rx="0" r="0" height="19" width="20" y="728.7000122070312" x="482.5"></rect><text font-family="Andale Mono, monospace" font-size="16px" fill="#000000" stroke="none" font="10px &quot;Arial&quot;" text-anchor="middle" y="738.2000007629395" x="492.5" style="text-anchor: middle; font: 16px Andale Mono,monospace;"><tspan dy="5.499988555908203">11</tspan></text><path stroke-dasharray="0" marker-end="url(#raphael-marker-endblock55)" stroke-width="2" d="M530,752.2000007629395C530,752.2000007629395,476.7916786670685,752.2000007629395,460.0081944966223,752.2000007629395" stroke="#000000" fill="none" style=""></path><rect style="" stroke="none" fill="#ffffff" ry="0" rx="0" r="0" height="19" width="20" y="767.7000122070312" x="230"></rect><text font-family="Andale Mono, monospace" font-size="16px" fill="#000000" stroke="none" font="10px &quot;Arial&quot;" text-anchor="middle" y="777.2000007629395" x="240" style="text-anchor: middle; font: 16px Andale Mono,monospace;"><tspan dy="5.499988555908203">12</tspan></text><path stroke-dasharray="0" marker-end="url(#raphael-marker-endblock55)" stroke-width="2" d="M455,791.2000007629395C455,791.2000007629395,77.95556619763374,791.2000007629395,29.996545198846434,791.2000007629395" stroke="#000000" fill="none" style=""></path><rect style="" stroke="none" fill="#ffffff" ry="0" rx="0" r="0" height="19" width="20" y="806.7000122070312" x="60"></rect><text font-family="Andale Mono, monospace" font-size="16px" fill="#000000" stroke="none" font="10px &quot;Arial&quot;" text-anchor="middle" y="816.2000007629395" x="70" style="text-anchor: middle; font: 16px Andale Mono,monospace;"><tspan dy="5.499988555908203">13</tspan></text><path stroke-dasharray="0" marker-end="url(#raphael-marker-endblock55)" stroke-width="2" d="M25,830.2000007629395C25,830.2000007629395,91.0901665687561,830.2000007629395,110.00073180766776,830.2000007629395" stroke="#000000" fill="none" style=""></path><rect stroke-width="2" style="" stroke="#000000" fill="none" ry="0" rx="0" r="0" height="29" width="140" y="850.2000007629395" x="45"></rect><rect style="" stroke="none" fill="#ffffff" ry="0" rx="0" r="0" height="19" width="130" y="855.2000122070312" x="50"></rect><text font-family="Andale Mono, monospace" font-size="16px" fill="#000000" stroke="none" font="10px &quot;Arial&quot;" text-anchor="middle" y="864.7000007629395" x="115" style="text-anchor: middle; font: 16px Andale Mono,monospace;"><tspan dy="5.499988555908203">reject from C</tspan></text><rect stroke-width="2" style="" stroke="#000000" fill="none" ry="0" rx="0" r="0" height="29" width="100" y="899.2000007629395" x="170"></rect><rect style="" stroke="none" fill="#ffffff" ry="0" rx="0" r="0" height="19" width="90" y="904.2000122070312" x="175"></rect><text font-family="Andale Mono, monospace" font-size="16px" fill="#000000" stroke="none" font="10px &quot;Arial&quot;" text-anchor="middle" y="913.7000007629395" x="220" style="text-anchor: middle; font: 16px Andale Mono,monospace;"><tspan dy="5.499988555908203">no output</tspan></text></svg>