<?xml version="1.0" encoding="utf-8" standalone="no"?><!DOCTYPE svg PUBLIC "-//W3C//DTD SVG 20010904//EN" "http://www.w3.org/TR/2001/REC-SVG-20010904/DTD/svg10.dtd"><svg xmlns="http://www.w3.org/2000/svg" width="465" height="398" xmlns:xlink="http://www.w3.org/1999/xlink"><source><![CDATA[    participant A
    participant B
    participant C
    participant Debug
    participant Console
    participant Echo
    Console->B: 1
    B->A: 2
    B->C: 3
    A->Debug: 4
    C->Echo: 5
    Echo->C: 6
    C->B: 7
    B->Console: 8]]></source><desc>Created with Raphaël 2.1.0</desc><defs><path id="raphael-marker-block" d="M5,0 0,2.5 5,5z" stroke-linecap="round"></path><marker refY="2.5" refX="2.5" orient="auto" markerWidth="5" markerHeight="5" id="raphael-marker-endblock55"><use stroke="none" fill="#000" stroke-width="1.0000" transform="rotate(180 2.5 2.5) scale(1,1)" xlink:href="#raphael-marker-block"></use></marker></defs><path stroke-width="2" d="M10,20C12.209732348259799,18.71389832354772,10.240388831181006,21.28610167645228,42.152541911307004,20C43.79623750398758,48.91056242038775,40.50884631862643,40.32165840644833,42.152541911307004,61.09238981701434C18.764965195264967,59.80628814056206,27.119370655571554,62.378491493466626,10,61.09238981701434C11.643695592680574,34.586313013109574,8.356304407319426,37.05512900693414,10,20" stroke="#000000" fill="#ffffff" style=""></path><rect style="" stroke="none" fill="#ffffff" ry="0" rx="0" r="0" height="13.555555555555557" width="12.152541911307004" y="33.7684171307294" x="20"></rect><path d="M24.063653022418116,43.857306019618285C23.041430800195897,43.41286157517384,22.33031968908478,45.546194908507175,21.752541911307006,46.52397268628496C21.39698635575145,46.79063935295162,21.39698635575145,46.79063935295162,20.774764133529224,47.323972686284954C19.79698635575145,47.012861575173844,19.752541911307006,45.67952824184051,20.596986355751447,45.14619490850718C20.908097466862557,44.79063935295162,21.085875244640334,44.47952824184051,21.26365302241812,44.12397268628495C21.26365302241812,44.12397268628495,21.219208577973674,44.168417130729395,21.219208577973674,44.168417130729395C20.596986355751447,43.012861575173844,22.241430800195893,42.879528241840504,22.596986355751447,42.390639352951624C22.64143080019589,42.34619490850717,23.26365302241812,41.10175046406273,23.752541911307006,40.790639352951615C24.50809746686256,39.41286157517384,25.48587524464034,38.21286157517384,26.152541911307004,36.70175046406273C26.86365302241812,35.81286157517384,27.041430800195897,34.43508379739606,27.974764133529227,33.7684171307294C29.26365302241812,33.99063935295162,29.48587524464034,36.52397268628495,29.974764133529227,37.857306019618285C30.374764133529226,40.70175046406273,30.908097466862564,42.43508379739606,32.152541911307004,44.74619490850718C32.01920857797367,45.857306019618285,30.19698635575145,45.235083797396065,29.752541911307006,44.74619490850718C28.241430800195893,44.21286157517384,25.441430800195896,43.45730601961829,24.063653022418116,43.857306019618285C24.063653022418116,43.857306019618285,24.063653022418116,43.857306019618285,24.063653022418116,43.857306019618285M24.50809746686256,42.21286157517385C25.39698635575145,42.47952824184051,28.063653022418116,42.65730601961829,29.441430800195896,42.9684171307294C29.70809746686256,42.65730601961829,29.26365302241812,42.301750464062735,29.130319689084786,41.90175046406273C28.64143080019589,40.65730601961829,28.73031968908478,37.81286157517384,27.79698635575145,36.70175046406273C27.39698635575145,37.10175046406273,26.95254191130701,38.65730601961829,26.285875244640337,39.14619490850718C25.88587524464034,40.168417130729395,25.08587524464034,40.923972686284955,24.50809746686256,42.21286157517385C24.50809746686256,42.21286157517385,24.50809746686256,42.21286157517385,24.50809746686256,42.21286157517385" stroke="none" fill="#000000" style=""></path><path stroke-width="2" d="M10,337.649320219811C18.826224020043842,338.9354218962633,25.372611215442134,336.3632185433587,42.152541911307004,337.649320219811C43.79623750398758,352.826299759772,40.50884631862643,362.3975316727356,42.152541911307004,378.74171003682534C36.4627081112346,380.02781171327763,22.069413624152073,377.45560836037305,10,378.74171003682534C8.356304407319426,344.3798110190547,11.643695592680574,375.31397102553126,10,337.649320219811" stroke="#000000" fill="#ffffff" style=""></path><rect style="" stroke="none" fill="#ffffff" ry="0" rx="0" r="0" height="13.555555555555543" width="12.152541911307004" y="351.4177373505404" x="20"></rect><path d="M24.063653022418116,361.50662623942924C23.041430800195897,361.06218179498484,22.33031968908478,363.19551512831816,21.752541911307006,364.1732929060959C21.39698635575145,364.4399595727626,21.39698635575145,364.4399595727626,20.774764133529224,364.97329290609593C19.79698635575145,364.6621817949848,19.752541911307006,363.3288484616515,20.596986355751447,362.79551512831813C20.908097466862557,362.4399595727626,21.085875244640334,362.1288484616515,21.26365302241812,361.77329290609595C21.26365302241812,361.77329290609595,21.219208577973674,361.81773735054037,21.219208577973674,361.81773735054037C20.596986355751447,360.6621817949848,22.241430800195893,360.5288484616515,22.596986355751447,360.0399595727626C22.64143080019589,359.9955151283182,23.26365302241812,358.7510706838737,23.752541911307006,358.4399595727626C24.50809746686256,357.06218179498484,25.48587524464034,355.8621817949848,26.152541911307004,354.35107068387373C26.86365302241812,353.4621817949848,27.041430800195897,352.084404017207,27.974764133529227,351.4177373505404C29.26365302241812,351.6399595727626,29.48587524464034,354.1732929060959,29.974764133529227,355.50662623942924C30.374764133529226,358.35107068387373,30.908097466862564,360.084404017207,32.152541911307004,362.39551512831815C32.01920857797367,363.50662623942924,30.19698635575145,362.88440401720703,29.752541911307006,362.39551512831815C28.241430800195893,361.8621817949848,25.441430800195896,361.10662623942926,24.063653022418116,361.50662623942924C24.063653022418116,361.50662623942924,24.063653022418116,361.50662623942924,24.063653022418116,361.50662623942924M24.50809746686256,359.8621817949848C25.39698635575145,360.1288484616515,28.063653022418116,360.30662623942925,29.441430800195896,360.6177373505404C29.70809746686256,360.30662623942925,29.26365302241812,359.9510706838737,29.130319689084786,359.5510706838737C28.64143080019589,358.30662623942925,28.73031968908478,355.4621817949848,27.79698635575145,354.35107068387373C27.39698635575145,354.7510706838737,26.95254191130701,356.30662623942925,26.285875244640337,356.79551512831813C25.88587524464034,357.81773735054037,25.08587524464034,358.5732929060959,24.50809746686256,359.8621817949848C24.50809746686256,359.8621817949848,24.50809746686256,359.8621817949848,24.50809746686256,359.8621817949848" stroke="none" fill="#000000" style=""></path><path stroke-width="2" d="M26.076270955653502,61.09238981701435C37.138548171765365,188.78349458418933,15.013993739541636,82.27928318222719,26.076270955653502,337.649320219811" stroke="#000000" fill="none" style=""></path><path stroke-width="2" d="M62.152541911307004,20C92.81186743644878,18.581894740922877,68.22463212979459,21.418105259077123,97.60517338823507,20C99.24886898091565,23.198826001090964,95.9614777955545,44.74934280013729,97.60517338823507,61.09238981701434C95.3589277206784,62.510495076091466,87.91171845605022,59.67428455793722,62.152541911307004,61.09238981701434C60.50884631862643,51.277652317416724,63.79623750398758,59.26944313212939,62.152541911307004,20" stroke="#000000" fill="#ffffff" style=""></path><rect style="" stroke="none" fill="#ffffff" ry="0" rx="0" r="0" height="13.97797923394532" width="15.452631476928062" y="33.557205291534515" x="72.15254191130701"></rect><path d="M83.35254191130701,39.15144305703852C85.17476413352924,39.59588750148296,88.46365302241813,40.66255416814963,87.39698635575145,43.195887501482964C87.13031968908479,43.3292208348163,86.77476413352923,43.729220834816296,86.55254191130702,44.08477639037185C84.90809746686257,44.9292208348163,84.33031968908479,45.59588750148296,83.752541911307,45.195887501482964C83.35254191130701,45.64033194592741,83.21920857797367,45.68477639037185,82.2414308001959,45.77366527926074C82.2414308001959,45.77366527926074,82.37476413352924,45.64033194592741,82.37476413352924,45.64033194592741C82.19698635575146,45.46255416814963,81.84143080019591,45.46255416814963,81.57476413352923,45.64033194592741C81.57476413352923,45.64033194592741,81.66365302241813,45.729220834816296,81.79698635575146,45.818109723705184C80.86365302241812,46.44033194592741,80.6414308001959,46.08477639037185,79.84143080019591,46.484776390371856C79.66365302241812,46.484776390371856,79.53031968908479,46.39588750148297,79.48587524464034,46.262554168149634C79.21920857797367,46.75144305703852,78.59698635575145,46.040331945927406,78.68587524464034,46.75144305703852C77.08587524464035,46.9292208348163,74.6414308001959,48.30699861259408,73.61920857797368,46.9292208348163C73.30809746686256,44.17366527926074,73.17476413352924,40.795887501482966,73.79698635575146,38.08477639037185C73.752541911307,37.24033194592741,72.15254191130701,38.17366527926074,72.15254191130701,36.884776390371854C72.15254191130701,36.5292208348163,72.2414308001959,36.30699861259407,72.41920857797368,36.21810972370518C75.4414308001959,34.84033194592741,82.68587524464034,32.129220834816294,86.2414308001959,34.48477639037185C86.59698635575145,35.01810972370519,86.77476413352923,35.37366527926074,86.77476413352923,35.59588750148296C86.41920857797368,37.46255416814963,85.35254191130701,37.77366527926074,83.35254191130701,39.15144305703852C83.35254191130701,39.15144305703852,83.35254191130701,39.15144305703852,83.35254191130701,39.15144305703852M75.48587524464034,39.99588750148296C78.68587524464034,39.24033194592741,81.48587524464034,38.26255416814963,83.66365302241813,36.884776390371854C84.55254191130702,36.30699861259407,85.0414308001959,35.86255416814963,85.0414308001959,35.68477639037185C85.08587524464035,35.418109723705186,83.70809746686257,35.106998612594076,83.35254191130701,35.15144305703852C80.95254191130701,35.15144305703852,78.19698635575146,35.729220834816296,75.08587524464035,36.97366527926074C75.57476413352923,37.90699861259407,75.13031968908479,39.106998612594076,75.48587524464034,39.99588750148296C75.48587524464034,39.99588750148296,75.48587524464034,39.99588750148296,75.48587524464034,39.99588750148296M83.61920857797368,45.195887501482964C83.61920857797368,45.01810972370519,83.752541911307,44.9292208348163,83.4414308001959,44.97366527926074C83.4414308001959,45.01810972370519,83.48587524464034,45.06255416814963,83.61920857797368,45.195887501482964C83.61920857797368,45.195887501482964,83.61920857797368,45.195887501482964,83.61920857797368,45.195887501482964M81.35254191130701,40.884776390371854C79.84143080019591,41.195887501482964,77.17476413352924,41.95144305703852,75.17476413352924,41.55144305703852C74.90809746686257,42.440331945927404,74.99698635575146,44.040331945927406,74.99698635575146,45.195887501482964C74.99698635575146,46.484776390371856,76.90809746686257,45.24033194592741,77.48587524464034,45.28477639037185C79.61920857797368,44.795887501482966,82.28587524464035,44.17366527926074,84.33031968908479,43.15144305703852C85.21920857797367,42.70699861259408,85.752541911307,42.39588750148296,85.752541911307,42.040331945927406C85.752541911307,41.24033194592741,84.28587524464035,40.884776390371854,81.35254191130701,40.884776390371854C81.35254191130701,40.884776390371854,81.35254191130701,40.884776390371854,81.35254191130701,40.884776390371854M80.6414308001959,46.21810972370519C80.90809746686257,46.262554168149634,80.90809746686257,46.1292208348163,80.86365302241812,45.90699861259407C80.7303196890848,45.99588750148296,80.55254191130702,45.99588750148296,80.6414308001959,46.21810972370519C80.6414308001959,46.21810972370519,80.6414308001959,46.21810972370519,80.6414308001959,46.21810972370519" stroke="none" fill="#000000" style=""></path><path stroke-width="2" d="M62.152541911307004,337.649320219811C85.38518187971708,339.0674254788881,75.05545219169292,336.2312149607339,97.60517338823507,337.649320219811C95.9614777955545,361.8847835544787,99.24886898091565,367.7674186910966,97.60517338823507,378.74171003682534C83.73950565592928,380.15981529590243,86.65460637784751,377.32360477774824,62.152541911307004,378.74171003682534C60.50884631862643,374.88929184745587,63.79623750398758,347.4638425128193,62.152541911307004,337.649320219811" stroke="#000000" fill="#ffffff" style=""></path><rect style="" stroke="none" fill="#ffffff" ry="0" rx="0" r="0" height="13.977979233945291" width="15.452631476928062" y="351.2065255113455" x="72.15254191130701"></rect><path d="M83.35254191130701,356.80076327684947C85.17476413352924,357.2452077212939,88.46365302241813,358.3118743879606,87.39698635575145,360.84520772129395C87.13031968908479,360.97854105462727,86.77476413352923,361.37854105462725,86.55254191130702,361.7340966101828C84.90809746686257,362.57854105462724,84.33031968908479,363.2452077212939,83.752541911307,362.84520772129395C83.35254191130701,363.2896521657384,83.21920857797367,363.3340966101828,82.2414308001959,363.42298549907173C82.2414308001959,363.42298549907173,82.37476413352924,363.2896521657384,82.37476413352924,363.2896521657384C82.19698635575146,363.1118743879606,81.84143080019591,363.1118743879606,81.57476413352923,363.2896521657384C81.57476413352923,363.2896521657384,81.66365302241813,363.37854105462725,81.79698635575146,363.46742994351615C80.86365302241812,364.08965216573836,80.6414308001959,363.7340966101828,79.84143080019591,364.13409661018284C79.66365302241812,364.13409661018284,79.53031968908479,364.04520772129393,79.48587524464034,363.9118743879606C79.21920857797367,364.4007632768495,78.59698635575145,363.6896521657384,78.68587524464034,364.4007632768495C77.08587524464035,364.57854105462724,74.6414308001959,365.95631883240503,73.61920857797368,364.57854105462724C73.30809746686256,361.8229854990717,73.17476413352924,358.4452077212939,73.79698635575146,355.7340966101828C73.752541911307,354.88965216573837,72.15254191130701,355.8229854990717,72.15254191130701,354.5340966101828C72.15254191130701,354.17854105462726,72.2414308001959,353.95631883240503,72.41920857797368,353.86742994351613C75.4414308001959,352.4896521657384,82.68587524464034,349.7785410546273,86.2414308001959,352.13409661018284C86.59698635575145,352.66742994351614,86.77476413352923,353.0229854990717,86.77476413352923,353.2452077212939C86.41920857797368,355.1118743879606,85.35254191130701,355.42298549907173,83.35254191130701,356.80076327684947C83.35254191130701,356.80076327684947,83.35254191130701,356.80076327684947,83.35254191130701,356.80076327684947M75.48587524464034,357.64520772129396C78.68587524464034,356.88965216573837,81.48587524464034,355.9118743879606,83.66365302241813,354.5340966101828C84.55254191130702,353.95631883240503,85.0414308001959,353.5118743879606,85.0414308001959,353.3340966101828C85.08587524464035,353.0674299435162,83.70809746686257,352.75631883240504,83.35254191130701,352.80076327684947C80.95254191130701,352.80076327684947,78.19698635575146,353.37854105462725,75.08587524464035,354.6229854990717C75.57476413352923,355.55631883240505,75.13031968908479,356.75631883240504,75.48587524464034,357.64520772129396C75.48587524464034,357.64520772129396,75.48587524464034,357.64520772129396,75.48587524464034,357.64520772129396M83.61920857797368,362.84520772129395C83.61920857797368,362.66742994351614,83.752541911307,362.57854105462724,83.4414308001959,362.6229854990717C83.4414308001959,362.66742994351614,83.48587524464034,362.7118743879606,83.61920857797368,362.84520772129395C83.61920857797368,362.84520772129395,83.61920857797368,362.84520772129395,83.61920857797368,362.84520772129395M81.35254191130701,358.5340966101828C79.84143080019591,358.84520772129395,77.17476413352924,359.6007632768495,75.17476413352924,359.2007632768495C74.90809746686257,360.08965216573836,74.99698635575146,361.6896521657384,74.99698635575146,362.84520772129395C74.99698635575146,364.13409661018284,76.90809746686257,362.88965216573837,77.48587524464034,362.93409661018285C79.61920857797368,362.4452077212939,82.28587524464035,361.8229854990717,84.33031968908479,360.80076327684947C85.21920857797367,360.35631883240507,85.752541911307,360.04520772129393,85.752541911307,359.6896521657384C85.752541911307,358.88965216573837,84.28587524464035,358.5340966101828,81.35254191130701,358.5340966101828C81.35254191130701,358.5340966101828,81.35254191130701,358.5340966101828,81.35254191130701,358.5340966101828M80.6414308001959,363.86742994351613C80.90809746686257,363.9118743879606,80.90809746686257,363.7785410546273,80.86365302241812,363.55631883240505C80.7303196890848,363.64520772129396,80.55254191130702,363.64520772129396,80.6414308001959,363.86742994351613C80.6414308001959,363.86742994351613,80.6414308001959,363.86742994351613,80.6414308001959,363.86742994351613" stroke="none" fill="#000000" style=""></path><path stroke-width="2" d="M79.87885764977104,61.09238981701435C90.9411348658829,134.49567042347644,68.81658043365917,217.6327870569733,79.87885764977104,337.649320219811" stroke="#000000" fill="none" style=""></path><path stroke-width="2" d="M117.60517338823507,20C135.74273544032943,18.555535874942585,138.53192045995172,21.444464125057415,153.71677651467047,20C155.36047210735106,38.463967979306986,152.07308092198988,37.26404642336979,153.71677651467047,61.09238981701434C121.79388819095435,59.64792569195693,144.53074871280825,62.53685394207176,117.60517338823507,61.09238981701434C119.24886898091565,22.59563670491972,115.9614777955545,47.78336938596404,117.60517338823507,20" stroke="#000000" fill="#ffffff" style=""></path><rect style="" stroke="none" fill="#ffffff" ry="0" rx="0" r="0" height="11.863858140589578" width="16.111603126435384" y="34.61426583821239" x="127.60517338823509"></rect><path d="M129.49455429244824,41.54388361599017C128.96122095911488,44.8772169493235,133.7612209591149,44.92166139376794,136.87233207022604,44.69943917154572C136.87233207022604,44.69943917154572,143.3167765146705,44.25499472710128,143.3167765146705,44.25499472710128C143.71677651467047,44.343883615990165,143.71677651467047,44.4772169493235,143.71677651467047,45.054994727101274C142.07233207022603,45.85499472710128,139.9389987368927,46.29943917154572,138.87233207022604,46.032772504879055C138.07233207022603,46.4772169493235,136.78344318133713,46.4772169493235,135.71677651467047,46.4772169493235C134.42788762578158,46.4772169493235,132.69455429244823,46.52166139376794,131.05010984800379,45.98832806043461C130.78344318133713,45.94388361599017,130.60566540355933,45.85499472710128,130.60566540355933,45.63277250487906C129.1389987368927,45.054994727101274,128.472332070226,44.16610583821239,127.67233207022603,43.01055028265683C126.82788762578157,37.94388361599017,134.16122095911493,36.343883615990165,137.62788762578157,35.14388361599016C139.1834431813371,35.14388361599016,141.53899873689267,33.76610583821239,142.0278876257816,35.45499472710127C141.98344318133712,36.743883615990164,139.8501098480038,36.0772169493235,138.6501098480038,36.69943917154572C136.20566540355935,37.054994727101274,133.53899873689267,38.25499472710128,130.87233207022604,39.85499472710128C130.29455429244825,40.21055028265683,129.8501098480038,40.78832806043461,129.49455429244824,41.54388361599017C129.49455429244824,41.54388361599017,129.49455429244824,41.54388361599017,129.49455429244824,41.54388361599017" stroke="none" fill="#000000" style=""></path><path stroke-width="2" d="M117.60517338823507,337.649320219811C122.53632939841674,336.20485609475355,146.02244690969047,339.0937843448684,153.71677651467047,337.649320219811C155.36047210735106,371.15509629515986,152.07308092198988,337.8920470288777,153.71677651467047,378.74171003682534C131.48792066258656,380.1861741618828,147.2988953473163,377.2972459117679,117.60517338823507,378.74171003682534C119.24886898091565,342.5872123922362,115.9614777955545,350.13381576952185,117.60517338823507,337.649320219811" stroke="#000000" fill="#ffffff" style=""></path><rect style="" stroke="none" fill="#ffffff" ry="0" rx="0" r="0" height="11.863858140589457" width="16.111603126435384" y="352.2635860580234" x="127.60517338823509"></rect><path d="M129.49455429244824,359.1932038358011C128.96122095911488,362.5265371691345,133.7612209591149,362.57098161357897,136.87233207022604,362.3487593913567C136.87233207022604,362.3487593913567,143.3167765146705,361.9043149469122,143.3167765146705,361.9043149469122C143.71677651467047,361.9932038358012,143.71677651467047,362.1265371691345,143.71677651467047,362.7043149469123C142.07233207022603,363.50431494691225,139.9389987368927,363.9487593913567,138.87233207022604,363.68209272469005C138.07233207022603,364.1265371691345,136.78344318133713,364.1265371691345,135.71677651467047,364.1265371691345C134.42788762578158,364.1265371691345,132.69455429244823,364.1709816135789,131.05010984800379,363.63764828024557C130.78344318133713,363.5932038358011,130.60566540355933,363.50431494691225,130.60566540355933,363.2820927246901C129.1389987368927,362.7043149469123,128.472332070226,361.8154260580234,127.67233207022603,360.6598705024678C126.82788762578157,355.5932038358011,134.16122095911493,353.9932038358012,137.62788762578157,352.79320383580114C139.1834431813371,352.79320383580114,141.53899873689267,351.4154260580234,142.0278876257816,353.10431494691227C141.98344318133712,354.39320383580116,139.8501098480038,353.7265371691344,138.6501098480038,354.3487593913567C136.20566540355935,354.7043149469123,133.53899873689267,355.9043149469122,130.87233207022604,357.50431494691225C130.29455429244825,357.85987050246786,129.8501098480038,358.43764828024564,129.49455429244824,359.1932038358011C129.49455429244824,359.1932038358011,129.49455429244824,359.1932038358011,129.49455429244824,359.1932038358011" stroke="none" fill="#000000" style=""></path><path stroke-width="2" d="M135.66097495145277,61.09238981701435C124.5986977353409,245.26623952215886,146.72325216756462,274.921532562651,135.66097495145277,337.649320219811" stroke="#000000" fill="none" style=""></path><path stroke-width="2" d="M173.71677651467047,20C193.96806206785874,22.89777777777778,199.0631001176843,17.10222222222222,246.16122095911493,20C244.51752536643434,56.558109844356046,247.80491655179551,56.140419619745,246.16122095911493,61.09238981701434C184.01392555564527,63.99016759479212,225.85788893261667,58.19461203923657,173.71677651467047,61.09238981701434C175.36047210735106,20.230579710352558,172.07308092198988,56.17026237061648,173.71677651467047,20" stroke="#000000" fill="#ffffff" style=""></path><rect style="" stroke="none" fill="#ffffff" ry="0" rx="0" r="0" height="21.092389817014347" width="52.44444444444446" y="30.000000000000004" x="183.71677651467047"></rect><path d="M197.4056654035594,39.5493268932721C197.3167765146705,39.59377133771655,197.27233207022607,39.86043800438321,196.96122095911494,39.771549115494324C197.2278876257816,39.63821578216099,197.4056654035594,39.59377133771655,197.4056654035594,39.5493268932721C197.4056654035594,39.5493268932721,197.4056654035594,39.5493268932721,197.4056654035594,39.5493268932721M183.71677651467047,31.815993559938768C183.80566540355937,30.615993559938772,187.4056654035594,30.127104671049885,188.42788762578158,30.08266022660544C194.20566540355935,29.771549115494324,200.29455429244825,30.127104671049885,201.36122095911492,34.92710467104988C201.36122095911492,34.92710467104988,201.27233207022607,35.28266022660544,201.2278876257816,36.038215782161C201.00566540355936,36.438215782160995,201.05010984800384,37.28266022660544,200.20566540355935,37.5493268932721C200.0278876257816,37.72710467104989,200.1167765146705,37.77154911549433,199.89455429244828,37.5493268932721C199.76122095911495,37.682660226605435,199.2278876257816,37.86043800438322,199.67233207022605,37.99377133771655C199.67233207022605,37.99377133771655,199.2278876257816,38.61599355993877,199.09455429244827,38.08266022660544C198.60566540355939,38.127104671049885,198.7389987368927,38.30488244882766,198.20566540355935,38.70488244882766C198.25010984800383,38.79377133771655,198.51677651467048,38.838215782160994,198.60566540355939,38.749326893272105C198.42788762578158,39.32710467104988,197.62788762578163,39.32710467104988,198.1167765146705,38.92710467104988C198.1167765146705,38.79377133771655,198.16122095911493,38.66043800438322,197.98344318133718,38.70488244882766C196.20566540355935,39.993771337716545,193.4056654035594,40.39377133771655,191.71677651467047,41.59377133771655C192.16122095911493,41.86043800438321,192.6945542924483,41.28266022660544,193.2278876257816,41.460438004383214C191.4056654035594,42.34932689327211,187.58344318133715,43.41599355993877,185.62788762578163,43.50488244882766C184.6945542924483,43.5493268932721,183.53899873689272,42.038215782161,185.1389987368927,41.771549115494324C185.80566540355937,41.682660226605435,187.05010984800384,41.50488244882766,187.62788762578163,41.28266022660544C186.91677651467046,36.79377133771655,187.4056654035594,35.50488244882766,188.0278876257816,32.08266022660544C188.1167765146705,32.08266022660544,188.20566540355935,32.038215782161,188.29455429244825,31.949326893272108C187.58344318133715,31.193771337716548,184.25010984800383,33.63821578216099,183.71677651467047,31.815993559938768C183.71677651467047,31.815993559938768,183.71677651467047,31.815993559938768,183.71677651467047,31.815993559938768M196.7389987368927,39.9493268932721C196.42788762578158,40.082660226605434,195.98344318133718,40.30488244882766,195.62788762578163,40.26043800438322C195.67233207022605,40.30488244882766,195.76122095911495,40.34932689327211,195.8501098480038,40.34932689327211C195.67233207022605,40.438215782160995,195.36122095911492,40.57154911549433,194.8278876257816,40.749326893272105C195.00566540355936,40.26043800438322,196.16122095911493,39.81599355993877,196.7389987368927,39.9493268932721C196.7389987368927,39.9493268932721,196.7389987368927,39.9493268932721,196.7389987368927,39.9493268932721M194.20566540355935,40.749326893272105C194.6501098480038,40.749326893272105,194.7389987368927,40.838215782160994,194.20566540355935,41.01599355993877C194.20566540355935,41.01599355993877,194.20566540355935,40.749326893272105,194.20566540355935,40.749326893272105C194.20566540355935,40.749326893272105,194.20566540355935,40.749326893272105,194.20566540355935,40.749326893272105M193.3167765146705,41.41599355993877C193.27233207022607,41.28266022660544,193.49455429244824,41.149326893272104,193.58344318133715,41.28266022660544C193.58344318133715,41.32710467104988,193.49455429244824,41.32710467104988,193.3167765146705,41.41599355993877C193.3167765146705,41.41599355993877,193.3167765146705,41.41599355993877,193.3167765146705,41.41599355993877M189.09455429244827,40.88266022660544C189.80566540355937,41.149326893272104,195.18344318133717,38.838215782160994,195.98344318133718,38.527104671049884C197.27233207022607,37.72710467104989,200.47233207022606,36.57154911549433,199.62788762578163,34.39377133771655C198.6945542924483,32.038215782161,195.89455429244828,31.682660226605435,192.16122095911493,31.41599355993877C191.272332070226,31.72710467104988,189.9389987368927,31.549326893272102,188.7389987368927,31.771549115494324C190.20566540355935,34.17154911549433,188.20566540355935,37.63821578216099,189.09455429244827,40.88266022660544C189.09455429244827,40.88266022660544,189.09455429244827,40.88266022660544,189.09455429244827,40.88266022660544M190.60566540355939,42.038215782161C190.42788762578158,41.993771337716545,189.9389987368927,41.81599355993877,189.9389987368927,42.127104671049885C190.25010984800383,42.08266022660544,190.47233207022606,42.038215782161,190.60566540355939,42.038215782161C190.60566540355939,42.038215782161,190.60566540355939,42.038215782161,190.60566540355939,42.038215782161M200.6501098480038,40.48266022660544C200.6501098480038,37.904882448827664,202.91677651467052,37.32710467104988,205.53899873689272,37.19377133771655C207.00566540355936,37.149326893272104,207.53899873689272,37.904882448827664,208.16122095911493,38.749326893272105C208.20566540355935,39.371549115494325,208.25010984800383,40.48266022660544,207.8501098480038,40.61599355993877C206.78344318133713,40.527104671049884,204.60566540355939,41.19377133771655,203.45010984800382,41.10488244882766C203.36122095911492,41.19377133771655,203.36122095911492,41.23821578216099,203.36122095911492,41.23821578216099C203.36122095911492,41.371549115494325,203.89455429244828,41.59377133771655,205.00566540355936,41.90488244882766C205.9389987368927,41.90488244882766,208.07233207022603,42.30488244882766,206.38344318133716,42.88266022660544C205.98344318133718,43.50488244882766,204.87233207022604,43.149326893272104,203.89455429244828,43.149326893272104C202.6945542924483,42.92710467104988,200.6501098480038,41.90488244882766,200.6501098480038,40.48266022660544C200.6501098480038,40.48266022660544,200.6501098480038,40.48266022660544,200.6501098480038,40.48266022660544M205.9389987368927,38.48266022660544C204.96122095911494,38.57154911549433,202.91677651467052,38.70488244882766,203.05010984800384,39.63821578216099C204.1167765146705,39.5493268932721,205.98344318133718,39.86043800438321,206.56122095911496,39.371549115494325C206.33899873689273,38.79377133771655,206.51677651467048,38.79377133771655,205.9389987368927,38.48266022660544C205.9389987368927,38.48266022660544,205.9389987368927,38.48266022660544,205.9389987368927,38.48266022660544M212.1167765146705,36.79377133771655C215.18344318133717,36.838215782160994,217.58344318133715,36.79377133771655,218.07233207022608,39.10488244882766C218.2945542924483,40.26043800438322,214.91677651467052,42.26043800438322,213.76122095911495,42.215993559938774C213.27233207022607,42.70488244882766,209.85010984800385,43.19377133771655,209.58344318133715,43.19377133771655C209.09455429244827,43.060438004383215,208.42788762578164,42.39377133771655,209.3167765146705,42.127104671049885C210.16122095911493,41.90488244882766,209.2278876257816,41.28266022660544,209.27233207022607,40.57154911549433C209.3167765146705,39.771549115494324,209.76122095911495,38.97154911549433,209.05010984800384,38.48266022660544C208.7834431813372,37.72710467104989,208.7834431813372,37.5493268932721,209.67233207022605,37.060438004383215C209.9389987368927,35.060438004383215,210.47233207022606,33.10488244882766,210.91677651467052,31.549326893272102C211.00566540355942,31.238215782160992,211.27233207022607,31.01599355993877,211.67233207022605,30.882660226605438C211.89455429244828,31.01599355993877,212.1167765146705,31.371549115494325,212.38344318133716,32.127104671049885C211.85010984800385,33.32710467104988,211.80566540355937,34.92710467104988,211.36122095911497,36.39377133771655C211.36122095911497,36.66043800438322,211.62788762578163,36.79377133771655,212.1167765146705,36.79377133771655C212.1167765146705,36.79377133771655,212.1167765146705,36.79377133771655,212.1167765146705,36.79377133771655M212.42788762578164,38.26043800438322C210.65010984800386,37.86043800438322,211.05010984800384,39.63821578216099,210.6945542924483,40.66043800438322C211.05010984800384,41.32710467104988,210.6945542924483,41.771549115494324,211.2278876257816,41.63821578216099C212.56122095911496,41.28266022660544,213.89455429244828,40.838215782160994,215.13899873689275,40.215993559938774C216.87233207022604,39.41599355993877,217.3167765146705,38.749326893272105,215.09455429244827,38.34932689327211C214.2056654035594,38.17154911549433,213.09455429244827,38.038215782161,212.42788762578164,38.26043800438322C212.42788762578164,38.26043800438322,212.42788762578164,38.26043800438322,212.42788762578164,38.26043800438322M227.4056654035594,36.97154911549433C227.36122095911497,36.88266022660544,227.89455429244828,36.34932689327211,228.02788762578166,36.39377133771655C228.2945542924483,36.39377133771655,228.47233207022606,36.70488244882766,228.47233207022606,37.371549115494325C228.33899873689273,39.149326893272104,227.45010984800388,39.86043800438321,226.6945542924483,41.01599355993877C226.1167765146705,41.86043800438321,223.9389987368927,42.92710467104988,222.56122095911496,42.92710467104988C219.58344318133715,42.838215782160994,217.62788762578163,39.59377133771655,219.4056654035594,37.01599355993877C220.56122095911496,36.88266022660544,220.33899873689273,38.30488244882766,220.25010984800383,39.19377133771655C220.2056654035594,40.39377133771655,221.4056654035594,41.149326893272104,222.7834431813372,41.060438004383215C224.60566540355939,40.97154911549433,226.91677651467052,38.61599355993877,227.4056654035594,36.97154911549433C227.4056654035594,36.97154911549433,227.4056654035594,36.97154911549433,227.4056654035594,36.97154911549433M234.8278876257816,38.70488244882766C236.16122095911493,39.90488244882766,235.76122095911495,42.038215782161,236.16122095911493,43.90488244882766C235.62788762578163,45.28266022660544,235.67233207022605,46.838215782160994,234.56122095911496,48.48266022660544C233.13899873689275,50.527104671049884,229.89455429244828,52.17154911549433,227.13899873689275,50.215993559938774C225.76122095911495,49.28266022660544,224.96122095911494,48.92710467104988,224.87233207022604,46.88266022660544C224.78344318133713,45.23821578216099,228.29455429244825,44.66043800438322,230.25010984800383,44.34932689327211C231.89455429244828,44.08266022660544,233.27233207022607,43.90488244882766,234.47233207022606,43.86043800438321C234.78344318133713,43.59377133771655,234.60566540355939,42.438215782160995,234.6501098480038,41.81599355993877C234.6501098480038,41.81599355993877,234.60566540355939,41.86043800438321,234.60566540355939,41.90488244882766C234.60566540355939,41.10488244882766,234.38344318133716,40.527104671049884,233.98344318133718,39.90488244882766C232.0278876257816,40.127104671049885,230.47233207022606,40.79377133771655,229.80566540355937,39.10488244882766C229.9389987368927,36.70488244882766,233.05010984800384,36.70488244882766,235.36122095911492,36.88266022660544C235.89455429244828,37.19377133771655,235.89455429244828,37.460438004383214,235.53899873689272,37.99377133771655C234.2056654035594,37.50488244882766,232.16122095911493,38.34932689327211,231.53899873689272,38.88266022660544C232.56122095911496,39.01599355993877,233.76122095911495,38.17154911549433,234.8278876257816,38.70488244882766C234.8278876257816,38.70488244882766,234.8278876257816,38.70488244882766,234.8278876257816,38.70488244882766M227.45010984800382,48.39377133771655C230.1167765146705,50.749326893272105,234.91677651467052,48.438215782160995,234.51677651467048,44.57154911549433C232.42788762578158,44.26043800438322,230.38344318133716,45.63821578216099,228.2056654035594,45.90488244882766C227.67233207022605,46.215993559938774,226.2056654035594,46.749326893272105,226.33899873689273,47.19377133771655C226.33899873689273,47.63821578216099,226.6945542924483,48.038215782161,227.45010984800382,48.39377133771655C227.45010984800382,48.39377133771655,227.45010984800382,48.39377133771655,227.45010984800382,48.39377133771655" stroke="none" fill="#000000" style=""></path><path stroke-width="2" d="M173.71677651467047,337.649320219811C229.77653569273474,334.7515424420332,186.8753834044186,340.54709799758876,246.16122095911493,337.649320219811C244.51752536643434,358.937350450088,247.80491655179551,340.1302945503218,246.16122095911493,378.74171003682534C196.5053155090345,375.84393225904756,222.04813350462115,381.6394878146031,173.71677651467047,378.74171003682534C175.36047210735106,350.25401870451043,172.07308092198988,372.0904411537236,173.71677651467047,337.649320219811" stroke="#000000" fill="#ffffff" style=""></path><rect style="" stroke="none" fill="#ffffff" ry="0" rx="0" r="0" height="21.09238981701435" width="52.44444444444446" y="347.649320219811" x="183.71677651467047"></rect><path d="M197.4056654035594,357.1986471130831C197.3167765146705,357.2430915575276,197.27233207022607,357.50975822419423,196.96122095911494,357.42086933530527C197.2278876257816,357.28753600197194,197.4056654035594,357.2430915575276,197.4056654035594,357.1986471130831C197.4056654035594,357.1986471130831,197.4056654035594,357.1986471130831,197.4056654035594,357.1986471130831M183.71677651467047,349.46531377974975C183.80566540355937,348.2653137797498,187.4056654035594,347.7764248908609,188.42788762578158,347.7319804464164C194.20566540355935,347.42086933530527,200.29455429244825,347.7764248908609,201.36122095911492,352.57642489086084C201.36122095911492,352.57642489086084,201.27233207022607,352.93198044641645,201.2278876257816,353.68753600197203C201.00566540355936,354.087536001972,201.05010984800384,354.93198044641645,200.20566540355935,355.1986471130831C200.0278876257816,355.3764248908609,200.1167765146705,355.42086933530527,199.89455429244828,355.1986471130831C199.76122095911495,355.3319804464164,199.2278876257816,355.50975822419423,199.67233207022605,355.64309155752755C199.67233207022605,355.64309155752755,199.2278876257816,356.2653137797498,199.09455429244827,355.7319804464164C198.60566540355939,355.7764248908609,198.7389987368927,355.9542026686387,198.20566540355935,356.35420266863866C198.25010984800383,356.4430915575275,198.51677651467048,356.487536001972,198.60566540355939,356.39864711308314C198.42788762578158,356.9764248908609,197.62788762578163,356.9764248908609,198.1167765146705,356.57642489086084C198.1167765146705,356.4430915575275,198.16122095911493,356.3097582241942,197.98344318133718,356.35420266863866C196.20566540355935,357.64309155752755,193.4056654035594,358.04309155752753,191.71677651467047,359.2430915575276C192.16122095911493,359.50975822419423,192.6945542924483,358.93198044641645,193.2278876257816,359.10975822419425C191.4056654035594,359.99864711308305,187.58344318133715,361.0653137797498,185.62788762578163,361.1542026686386C184.6945542924483,361.1986471130831,183.53899873689272,359.68753600197203,185.1389987368927,359.42086933530527C185.80566540355937,359.3319804464164,187.05010984800384,359.1542026686386,187.62788762578163,358.93198044641645C186.91677651467046,354.4430915575275,187.4056654035594,353.1542026686386,188.0278876257816,349.7319804464164C188.1167765146705,349.7319804464164,188.20566540355935,349.68753600197203,188.29455429244825,349.5986471130831C187.58344318133715,348.8430915575276,184.25010984800383,351.28753600197194,183.71677651467047,349.46531377974975C183.71677651467047,349.46531377974975,183.71677651467047,349.46531377974975,183.71677651467047,349.46531377974975M196.7389987368927,357.5986471130831C196.42788762578158,357.7319804464164,195.98344318133718,357.9542026686387,195.62788762578163,357.9097582241942C195.67233207022605,357.9542026686387,195.76122095911495,357.99864711308305,195.8501098480038,357.99864711308305C195.67233207022605,358.087536001972,195.36122095911492,358.22086933530534,194.8278876257816,358.39864711308314C195.00566540355936,357.9097582241942,196.16122095911493,357.46531377974975,196.7389987368927,357.5986471130831C196.7389987368927,357.5986471130831,196.7389987368927,357.5986471130831,196.7389987368927,357.5986471130831M194.20566540355935,358.39864711308314C194.6501098480038,358.39864711308314,194.7389987368927,358.487536001972,194.20566540355935,358.6653137797498C194.20566540355935,358.6653137797498,194.20566540355935,358.39864711308314,194.20566540355935,358.39864711308314C194.20566540355935,358.39864711308314,194.20566540355935,358.39864711308314,194.20566540355935,358.39864711308314M193.3167765146705,359.0653137797498C193.27233207022607,358.93198044641645,193.49455429244824,358.7986471130831,193.58344318133715,358.93198044641645C193.58344318133715,358.9764248908609,193.49455429244824,358.9764248908609,193.3167765146705,359.0653137797498C193.3167765146705,359.0653137797498,193.3167765146705,359.0653137797498,193.3167765146705,359.0653137797498M189.09455429244827,358.53198044641647C189.80566540355937,358.7986471130831,195.18344318133717,356.487536001972,195.98344318133718,356.17642489086086C197.27233207022607,355.3764248908609,200.47233207022606,354.22086933530534,199.62788762578163,352.04309155752753C198.6945542924483,349.68753600197203,195.89455429244828,349.3319804464164,192.16122095911493,349.0653137797498C191.272332070226,349.3764248908609,189.9389987368927,349.1986471130831,188.7389987368927,349.42086933530527C190.20566540355935,351.82086933530536,188.20566540355935,355.28753600197194,189.09455429244827,358.53198044641647C189.09455429244827,358.53198044641647,189.09455429244827,358.53198044641647,189.09455429244827,358.53198044641647M190.60566540355939,359.68753600197203C190.42788762578158,359.64309155752755,189.9389987368927,359.46531377974975,189.9389987368927,359.7764248908609C190.25010984800383,359.7319804464164,190.47233207022606,359.68753600197203,190.60566540355939,359.68753600197203C190.60566540355939,359.68753600197203,190.60566540355939,359.68753600197203,190.60566540355939,359.68753600197203M200.6501098480038,358.1319804464164C200.6501098480038,355.5542026686387,202.91677651467052,354.9764248908609,205.53899873689272,354.8430915575276C207.00566540355936,354.7986471130831,207.53899873689272,355.5542026686387,208.16122095911493,356.39864711308314C208.20566540355935,357.0208693353053,208.25010984800383,358.1319804464164,207.8501098480038,358.2653137797498C206.78344318133713,358.17642489086086,204.60566540355939,358.8430915575276,203.45010984800382,358.75420266863864C203.36122095911492,358.8430915575276,203.36122095911492,358.88753600197197,203.36122095911492,358.88753600197197C203.36122095911492,359.0208693353053,203.89455429244828,359.2430915575276,205.00566540355936,359.5542026686387C205.9389987368927,359.5542026686387,208.07233207022603,359.9542026686387,206.38344318133716,360.53198044641647C205.98344318133718,361.1542026686386,204.87233207022604,360.7986471130831,203.89455429244828,360.7986471130831C202.6945542924483,360.57642489086084,200.6501098480038,359.5542026686387,200.6501098480038,358.1319804464164C200.6501098480038,358.1319804464164,200.6501098480038,358.1319804464164,200.6501098480038,358.1319804464164M205.9389987368927,356.1319804464164C204.96122095911494,356.22086933530534,202.91677651467052,356.35420266863866,203.05010984800384,357.28753600197194C204.1167765146705,357.1986471130831,205.98344318133718,357.50975822419423,206.56122095911496,357.0208693353053C206.33899873689273,356.4430915575275,206.51677651467048,356.4430915575275,205.9389987368927,356.1319804464164C205.9389987368927,356.1319804464164,205.9389987368927,356.1319804464164,205.9389987368927,356.1319804464164M212.1167765146705,354.4430915575275C215.18344318133717,354.487536001972,217.58344318133715,354.4430915575275,218.07233207022608,356.75420266863864C218.2945542924483,357.9097582241942,214.91677651467052,359.9097582241942,213.76122095911495,359.8653137797497C213.27233207022607,360.35420266863866,209.85010984800385,360.8430915575276,209.58344318133715,360.8430915575276C209.09455429244827,360.70975822419416,208.42788762578164,360.04309155752753,209.3167765146705,359.7764248908609C210.16122095911493,359.5542026686387,209.2278876257816,358.93198044641645,209.27233207022607,358.22086933530534C209.3167765146705,357.42086933530527,209.76122095911495,356.6208693353053,209.05010984800384,356.1319804464164C208.7834431813372,355.3764248908609,208.7834431813372,355.1986471130831,209.67233207022605,354.70975822419416C209.9389987368927,352.70975822419416,210.47233207022606,350.75420266863864,210.91677651467052,349.1986471130831C211.00566540355942,348.88753600197197,211.27233207022607,348.6653137797498,211.67233207022605,348.53198044641647C211.89455429244828,348.6653137797498,212.1167765146705,349.0208693353053,212.38344318133716,349.7764248908609C211.85010984800385,350.9764248908609,211.80566540355937,352.57642489086084,211.36122095911497,354.04309155752753C211.36122095911497,354.3097582241942,211.62788762578163,354.4430915575275,212.1167765146705,354.4430915575275C212.1167765146705,354.4430915575275,212.1167765146705,354.4430915575275,212.1167765146705,354.4430915575275M212.42788762578164,355.9097582241942C210.65010984800386,355.50975822419423,211.05010984800384,357.28753600197194,210.6945542924483,358.3097582241942C211.05010984800384,358.9764248908609,210.6945542924483,359.42086933530527,211.2278876257816,359.28753600197194C212.56122095911496,358.93198044641645,213.89455429244828,358.487536001972,215.13899873689275,357.8653137797497C216.87233207022604,357.0653137797498,217.3167765146705,356.39864711308314,215.09455429244827,355.99864711308305C214.2056654035594,355.82086933530536,213.09455429244827,355.68753600197203,212.42788762578164,355.9097582241942C212.42788762578164,355.9097582241942,212.42788762578164,355.9097582241942,212.42788762578164,355.9097582241942M227.4056654035594,354.6208693353053C227.36122095911497,354.53198044641647,227.89455429244828,353.99864711308305,228.02788762578166,354.04309155752753C228.2945542924483,354.04309155752753,228.47233207022606,354.35420266863866,228.47233207022606,355.0208693353053C228.33899873689273,356.7986471130831,227.45010984800388,357.50975822419423,226.6945542924483,358.6653137797498C226.1167765146705,359.50975822419423,223.9389987368927,360.57642489086084,222.56122095911496,360.57642489086084C219.58344318133715,360.487536001972,217.62788762578163,357.2430915575276,219.4056654035594,354.6653137797498C220.56122095911496,354.53198044641647,220.33899873689273,355.9542026686387,220.25010984800383,356.8430915575276C220.2056654035594,358.04309155752753,221.4056654035594,358.7986471130831,222.7834431813372,358.70975822419416C224.60566540355939,358.6208693353053,226.91677651467052,356.2653137797498,227.4056654035594,354.6208693353053C227.4056654035594,354.6208693353053,227.4056654035594,354.6208693353053,227.4056654035594,354.6208693353053M234.8278876257816,356.35420266863866C236.16122095911493,357.5542026686387,235.76122095911495,359.68753600197203,236.16122095911493,361.5542026686387C235.62788762578163,362.93198044641645,235.67233207022605,364.487536001972,234.56122095911496,366.1319804464164C233.13899873689275,368.17642489086086,229.89455429244828,369.82086933530536,227.13899873689275,367.8653137797497C225.76122095911495,366.93198044641645,224.96122095911494,366.57642489086084,224.87233207022604,364.53198044641647C224.78344318133713,362.88753600197197,228.29455429244825,362.3097582241942,230.25010984800383,361.99864711308305C231.89455429244828,361.7319804464164,233.27233207022607,361.5542026686387,234.47233207022606,361.50975822419423C234.78344318133713,361.2430915575276,234.60566540355939,360.087536001972,234.6501098480038,359.46531377974975C234.6501098480038,359.46531377974975,234.60566540355939,359.50975822419423,234.60566540355939,359.5542026686387C234.60566540355939,358.75420266863864,234.38344318133716,358.17642489086086,233.98344318133718,357.5542026686387C232.0278876257816,357.7764248908609,230.47233207022606,358.4430915575275,229.80566540355937,356.75420266863864C229.9389987368927,354.35420266863866,233.05010984800384,354.35420266863866,235.36122095911492,354.53198044641647C235.89455429244828,354.8430915575276,235.89455429244828,355.10975822419425,235.53899873689272,355.64309155752755C234.2056654035594,355.1542026686386,232.16122095911493,355.99864711308305,231.53899873689272,356.53198044641647C232.56122095911496,356.6653137797498,233.76122095911495,355.82086933530536,234.8278876257816,356.35420266863866C234.8278876257816,356.35420266863866,234.8278876257816,356.35420266863866,234.8278876257816,356.35420266863866M227.45010984800382,366.04309155752753C230.1167765146705,368.39864711308314,234.91677651467052,366.087536001972,234.51677651467048,362.22086933530534C232.42788762578158,361.9097582241942,230.38344318133716,363.28753600197194,228.2056654035594,363.5542026686387C227.67233207022605,363.8653137797497,226.2056654035594,364.39864711308314,226.33899873689273,364.8430915575276C226.33899873689273,365.28753600197194,226.6945542924483,365.68753600197203,227.45010984800382,366.04309155752753C227.45010984800382,366.04309155752753,227.45010984800382,366.04309155752753,227.45010984800382,366.04309155752753" stroke="none" fill="#000000" style=""></path><path stroke-width="2" d="M209.9389987368927,61.09238981701435C221.00127595300455,100.91916490084594,198.87672152078085,310.64142542621653,209.9389987368927,337.649320219811" stroke="#000000" fill="none" style=""></path><path stroke-width="2" d="M266.1612209591149,20C344.77632852360887,16.60596706510786,300.1686193479791,23.39403293489214,351.01204433141845,20C349.3683487387379,37.23153321943456,352.655739924099,28.442687805485267,351.01204433141845,61.09238981701434C271.543412485947,57.698356882122205,279.9265656619763,64.48642275190649,266.1612209591149,61.09238981701434C264.51752536643437,35.412424407401076,267.8049165517955,35.83033516493564,266.1612209591149,20" stroke="#000000" fill="#ffffff" style=""></path><rect style="" stroke="none" fill="#ffffff" ry="0" rx="0" r="0" height="13.679682971602055" width="64.85082337230364" y="33.70635342270615" x="276.16122095911487"></rect><path d="M278.050601863328,42.008258616530426C277.5172685299947,45.341591949863755,282.31726852999475,45.386036394308206,285.42837964110583,45.16381417208598C285.42837964110583,45.16381417208598,291.8728240855503,44.719369727641535,291.8728240855503,44.719369727641535C292.27282408555027,44.80825861653042,292.27282408555027,44.94159194986376,292.27282408555027,45.51936972764153C290.62837964110577,46.31936972764154,288.49504630777244,46.763814172085986,287.42837964110583,46.49714750541932C286.62837964110577,46.94159194986376,285.3394907522169,46.94159194986376,284.27282408555027,46.94159194986376C282.9839351966614,46.94159194986376,281.25060186332803,46.9860363943082,279.6061574188835,46.45270306097487C279.3394907522169,46.40825861653043,279.1617129744392,46.31936972764154,279.1617129744392,46.097147505419315C277.6950463077725,45.51936972764153,277.02837964110586,44.630480838752646,276.2283796411058,43.474925283197095C275.38393519666135,38.408258616530425,282.7172685299947,36.80825861653042,286.1839351966613,35.60825861653042C287.73949075221697,35.60825861653042,290.09504630777246,34.23048083875265,290.5839351966614,35.91936972764154C290.5394907522169,37.20825861653043,288.4061574188836,36.54159194986376,287.20615741888355,37.16381417208598C284.7617129744391,37.51936972764153,282.09504630777246,38.719369727641535,279.42837964110583,40.319369727641536C278.85060186332805,40.6749252831971,278.4061574188836,41.252703060974866,278.050601863328,42.008258616530426C278.050601863328,42.008258616530426,278.050601863328,42.008258616530426,278.050601863328,42.008258616530426M297.2950463077725,40.89714750541931C299.6061574188835,39.83048083875265,301.91726852999466,41.69714750541931,301.91726852999466,43.69714750541931C301.91726852999466,46.31936972764154,298.9839351966614,46.6749252831971,296.85060186332805,47.386036394308206C294.5394907522169,47.29714750541932,291.73949075221697,45.16381417208598,293.2950463077725,42.719369727641535C294.31726852999464,41.91936972764154,295.6061574188835,41.16381417208598,297.2950463077725,40.89714750541931C297.2950463077725,40.89714750541931,297.2950463077725,40.89714750541931,297.2950463077725,40.89714750541931M294.49504630777244,44.40825861653043C295.20615741888355,46.80825861653042,300.050601863328,45.11936972764154,300.31726852999464,43.386036394308206C299.78393519666133,40.763814172085986,294.5839351966614,43.03048083875265,294.49504630777244,44.40825861653043C294.49504630777244,44.40825861653043,294.49504630777244,44.40825861653043,294.49504630777244,44.40825861653043M307.5172685299947,41.03048083875265C309.1617129744392,41.29714750541932,310.27282408555027,43.43048083875264,310.27282408555027,45.963814172085975C310.27282408555027,47.386036394308206,309.56171297443916,47.07492528319709,308.8950463077724,46.719369727641535C308.09504630777246,45.386036394308206,308.67282408555025,44.719369727641535,307.91726852999466,42.94159194986376C306.27282408555027,42.36381417208598,304.7617129744391,45.386036394308206,303.8283796411058,45.83048083875265C302.9394907522169,45.69714750541931,302.09504630777246,44.097147505419315,302.8950463077724,43.07492528319709C302.9839351966614,42.54159194986376,303.02837964110586,42.408258616530425,303.38393519666135,41.74159194986376C303.91726852999466,41.386036394308206,304.27282408555027,42.23048083875265,304.67282408555025,42.27492528319709C304.67282408555025,42.27492528319709,307.5172685299947,41.03048083875265,307.5172685299947,41.03048083875265M317.6061574188835,40.36381417208598C318.45060186332796,40.408258616530425,318.8061574188836,41.43048083875264,318.1839351966613,41.786036394308205C318.0061574188836,41.83048083875265,317.20615741888355,41.96381417208598,315.8283796411058,42.097147505419315C315.1172685299947,42.45270306097487,314.85060186332805,42.008258616530426,314.09504630777246,42.49714750541931C315.1172685299947,43.43048083875264,318.050601863328,43.20825861653043,318.3617129744391,45.252703060974866C317.78393519666133,46.31936972764154,314.5839351966613,46.80825861653042,312.85060186332805,47.11936972764154C312.45060186332796,46.9860363943082,312.050601863328,46.9860363943082,311.650601863328,47.11936972764154C311.38393519666135,46.94159194986376,310.7172685299947,46.40825861653043,311.2950463077725,46.008258616530426C312.62837964110577,45.74159194986376,314.9839351966614,45.43048083875264,315.8283796411058,44.94159194986376C315.0728240855502,44.230480838752655,312.27282408555027,43.474925283197095,311.5172685299947,42.80825861653042C311.38393519666135,42.719369727641535,311.3394907522169,42.49714750541931,311.3394907522169,42.14159194986376C311.0728240855502,41.87492528319709,311.4728240855502,41.56381417208598,312.0061574188836,41.341591949863755C312.9839351966614,40.94159194986376,316.1839351966613,40.319369727641536,317.6061574188835,40.36381417208598C317.6061574188835,40.36381417208598,317.6061574188835,40.36381417208598,317.6061574188835,40.36381417208598M323.91726852999466,40.89714750541931C326.2283796411058,39.83048083875265,328.5394907522169,41.69714750541931,328.5394907522169,43.69714750541931C328.5394907522169,46.31936972764154,325.6061574188835,46.6749252831971,323.4728240855502,47.386036394308206C321.16171297443907,47.29714750541932,318.3617129744391,45.16381417208598,319.91726852999466,42.719369727641535C320.9394907522169,41.91936972764154,322.2283796411058,41.16381417208598,323.91726852999466,40.89714750541931C323.91726852999466,40.89714750541931,323.91726852999466,40.89714750541931,323.91726852999466,40.89714750541931M321.1172685299947,44.40825861653043C321.8283796411058,46.80825861653042,326.67282408555025,45.11936972764154,326.9394907522169,43.386036394308206C326.4061574188836,40.763814172085986,321.20615741888355,43.03048083875265,321.1172685299947,44.40825861653043C321.1172685299947,44.40825861653043,321.1172685299947,44.40825861653043,321.1172685299947,44.40825861653043M331.6950463077725,33.74159194986376C332.62837964110577,33.474925283197095,333.3394907522169,34.763814172085986,333.02837964110574,36.1860363943082C332.5839351966613,38.45270306097487,331.78393519666133,42.1860363943082,331.78393519666133,45.43048083875264C331.78393519666133,45.91936972764154,332.050601863328,47.03048083875265,331.20615741888355,47.07492528319709C329.91726852999466,46.852703060974875,329.8728240855502,44.94159194986376,330.09504630777246,43.386036394308206C330.09504630777246,43.386036394308206,331.3394907522169,35.51936972764153,331.3394907522169,35.51936972764153C331.0728240855502,34.763814172085986,331.38393519666135,34.23048083875265,331.6950463077725,33.74159194986376C331.6950463077725,33.74159194986376,331.6950463077725,33.74159194986376,331.6950463077725,33.74159194986376M333.4728240855503,44.54159194986376C333.4728240855503,41.96381417208598,335.73949075221697,41.386036394308206,338.3617129744391,41.252703060974866C339.8283796411058,41.20825861653043,340.3617129744391,41.96381417208598,340.9839351966614,42.80825861653042C341.02837964110586,43.43048083875264,341.0728240855502,44.54159194986376,340.67282408555025,44.6749252831971C339.60615741888364,44.58603639430821,337.42837964110583,45.252703060974866,336.27282408555027,45.16381417208598C336.1839351966614,45.252703060974866,336.1839351966614,45.29714750541932,336.1839351966614,45.29714750541932C336.1839351966614,45.43048083875264,336.7172685299947,45.65270306097487,337.8283796411058,45.963814172085975C338.7617129744391,45.963814172085975,340.89504630777253,46.36381417208598,339.20615741888355,46.94159194986376C338.8061574188836,47.56381417208598,337.6950463077725,47.20825861653043,336.7172685299947,47.20825861653043C335.5172685299947,46.9860363943082,333.4728240855503,45.963814172085975,333.4728240855503,44.54159194986376C333.4728240855503,44.54159194986376,333.4728240855503,44.54159194986376,333.4728240855503,44.54159194986376M338.7617129744391,42.54159194986376C337.78393519666133,42.630480838752646,335.73949075221697,42.763814172085986,335.8728240855503,43.69714750541931C336.9394907522169,43.60825861653042,338.8061574188836,43.91936972764154,339.38393519666135,43.43048083875264C339.1617129744392,42.852703060974875,339.3394907522169,42.852703060974875,338.7617129744391,42.54159194986376C338.7617129744391,42.54159194986376,338.7617129744391,42.54159194986376,338.7617129744391,42.54159194986376" stroke="none" fill="#000000" style=""></path><path stroke-width="2" d="M266.1612209591149,337.649320219811C287.08244103055785,341.04335315470314,288.03048960010625,334.25528728491884,351.01204433141845,337.649320219811C349.3683487387379,361.60965953582456,352.655739924099,368.6420541826143,351.01204433141845,378.74171003682534C319.2490061010041,382.1357429717175,278.1932779509772,375.3476771019332,266.1612209591149,378.74171003682534C264.51752536643437,375.4890876099295,267.8049165517955,341.8432337538669,266.1612209591149,337.649320219811" stroke="#000000" fill="#ffffff" style=""></path><rect style="" stroke="none" fill="#ffffff" ry="0" rx="0" r="0" height="13.679682971602006" width="64.85082337230364" y="351.3556736425172" x="276.16122095911487"></rect><path d="M278.050601863328,359.6575788363415C277.5172685299947,362.99091216967474,282.31726852999475,363.0353566141192,285.42837964110583,362.81313439189705C285.42837964110583,362.81313439189705,291.8728240855503,362.3686899474526,291.8728240855503,362.3686899474526C292.27282408555027,362.45757883634144,292.27282408555027,362.59091216967477,292.27282408555027,363.16868994745255C290.62837964110577,363.9686899474526,288.49504630777244,364.41313439189696,287.42837964110583,364.1464677252303C286.62837964110577,364.59091216967477,285.3394907522169,364.59091216967477,284.27282408555027,364.59091216967477C282.9839351966614,364.59091216967477,281.25060186332803,364.63535661411925,279.6061574188835,364.10202328078594C279.3394907522169,364.05757883634146,279.1617129744392,363.9686899474526,279.1617129744392,363.74646772523033C277.6950463077725,363.16868994745255,277.02837964110586,362.27980105856363,276.2283796411058,361.12424550300807C275.38393519666135,356.05757883634146,282.7172685299947,354.45757883634144,286.1839351966613,353.2575788363415C287.73949075221697,353.2575788363415,290.09504630777246,351.87980105856366,290.5839351966614,353.5686899474525C290.5394907522169,354.8575788363414,288.4061574188836,354.1909121696748,287.20615741888355,354.81313439189705C284.7617129744391,355.16868994745255,282.09504630777246,356.3686899474526,279.42837964110583,357.9686899474526C278.85060186332805,358.3242455030081,278.4061574188836,358.9020232807859,278.050601863328,359.6575788363415C278.050601863328,359.6575788363415,278.050601863328,359.6575788363415,278.050601863328,359.6575788363415M297.2950463077725,358.5464677252303C299.6061574188835,357.4798010585637,301.91726852999466,359.34646772523035,301.91726852999466,361.34646772523035C301.91726852999466,363.9686899474526,298.9839351966614,364.3242455030081,296.85060186332805,365.0353566141192C294.5394907522169,364.9464677252304,291.73949075221697,362.81313439189705,293.2950463077725,360.3686899474526C294.31726852999464,359.5686899474525,295.6061574188835,358.81313439189705,297.2950463077725,358.5464677252303C297.2950463077725,358.5464677252303,297.2950463077725,358.5464677252303,297.2950463077725,358.5464677252303M294.49504630777244,362.05757883634146C295.20615741888355,364.45757883634144,300.050601863328,362.7686899474526,300.31726852999464,361.0353566141192C299.78393519666133,358.41313439189696,294.5839351966614,360.6798010585637,294.49504630777244,362.05757883634146C294.49504630777244,362.05757883634146,294.49504630777244,362.05757883634146,294.49504630777244,362.05757883634146M307.5172685299947,358.6798010585637C309.1617129744392,358.9464677252304,310.27282408555027,361.0798010585637,310.27282408555027,363.613134391897C310.27282408555027,365.0353566141192,309.56171297443916,364.7242455030081,308.8950463077724,364.3686899474526C308.09504630777246,363.0353566141192,308.67282408555025,362.3686899474526,307.91726852999466,360.59091216967477C306.27282408555027,360.013134391897,304.7617129744391,363.0353566141192,303.8283796411058,363.4798010585637C302.9394907522169,363.34646772523035,302.09504630777246,361.74646772523033,302.8950463077724,360.7242455030081C302.9839351966614,360.1909121696748,303.02837964110586,360.05757883634146,303.38393519666135,359.39091216967483C303.91726852999466,359.0353566141192,304.27282408555027,359.87980105856366,304.67282408555025,359.92424550300814C304.67282408555025,359.92424550300814,307.5172685299947,358.6798010585637,307.5172685299947,358.6798010585637M317.6061574188835,358.013134391897C318.45060186332796,358.05757883634146,318.8061574188836,359.0798010585637,318.1839351966613,359.4353566141192C318.0061574188836,359.4798010585637,317.20615741888355,359.613134391897,315.8283796411058,359.74646772523033C315.1172685299947,360.10202328078594,314.85060186332805,359.6575788363415,314.09504630777246,360.1464677252303C315.1172685299947,361.0798010585637,318.050601863328,360.8575788363414,318.3617129744391,362.9020232807859C317.78393519666133,363.9686899474526,314.5839351966613,364.45757883634144,312.85060186332805,364.7686899474526C312.45060186332796,364.63535661411925,312.050601863328,364.63535661411925,311.650601863328,364.7686899474526C311.38393519666135,364.59091216967477,310.7172685299947,364.05757883634146,311.2950463077725,363.6575788363415C312.62837964110577,363.39091216967483,314.9839351966614,363.0798010585637,315.8283796411058,362.59091216967477C315.0728240855502,361.87980105856366,312.27282408555027,361.12424550300807,311.5172685299947,360.45757883634144C311.38393519666135,360.3686899474526,311.3394907522169,360.1464677252303,311.3394907522169,359.7909121696748C311.0728240855502,359.52424550300816,311.4728240855502,359.21313439189703,312.0061574188836,358.99091216967474C312.9839351966614,358.59091216967477,316.1839351966613,357.9686899474526,317.6061574188835,358.013134391897C317.6061574188835,358.013134391897,317.6061574188835,358.013134391897,317.6061574188835,358.013134391897M323.91726852999466,358.5464677252303C326.2283796411058,357.4798010585637,328.5394907522169,359.34646772523035,328.5394907522169,361.34646772523035C328.5394907522169,363.9686899474526,325.6061574188835,364.3242455030081,323.4728240855502,365.0353566141192C321.16171297443907,364.9464677252304,318.3617129744391,362.81313439189705,319.91726852999466,360.3686899474526C320.9394907522169,359.5686899474525,322.2283796411058,358.81313439189705,323.91726852999466,358.5464677252303C323.91726852999466,358.5464677252303,323.91726852999466,358.5464677252303,323.91726852999466,358.5464677252303M321.1172685299947,362.05757883634146C321.8283796411058,364.45757883634144,326.67282408555025,362.7686899474526,326.9394907522169,361.0353566141192C326.4061574188836,358.41313439189696,321.20615741888355,360.6798010585637,321.1172685299947,362.05757883634146C321.1172685299947,362.05757883634146,321.1172685299947,362.05757883634146,321.1172685299947,362.05757883634146M331.6950463077725,351.39091216967483C332.62837964110577,351.12424550300807,333.3394907522169,352.41313439189696,333.02837964110574,353.8353566141192C332.5839351966613,356.10202328078594,331.78393519666133,359.8353566141192,331.78393519666133,363.0798010585637C331.78393519666133,363.5686899474525,332.050601863328,364.6798010585637,331.20615741888355,364.7242455030081C329.91726852999466,364.5020232807859,329.8728240855502,362.59091216967477,330.09504630777246,361.0353566141192C330.09504630777246,361.0353566141192,331.3394907522169,353.16868994745255,331.3394907522169,353.16868994745255C331.0728240855502,352.41313439189696,331.38393519666135,351.87980105856366,331.6950463077725,351.39091216967483C331.6950463077725,351.39091216967483,331.6950463077725,351.39091216967483,331.6950463077725,351.39091216967483M333.4728240855503,362.1909121696748C333.4728240855503,359.613134391897,335.73949075221697,359.0353566141192,338.3617129744391,358.9020232807859C339.8283796411058,358.8575788363414,340.3617129744391,359.613134391897,340.9839351966614,360.45757883634144C341.02837964110586,361.0798010585637,341.0728240855502,362.1909121696748,340.67282408555025,362.3242455030081C339.60615741888364,362.23535661411927,337.42837964110583,362.9020232807859,336.27282408555027,362.81313439189705C336.1839351966614,362.9020232807859,336.1839351966614,362.9464677252304,336.1839351966614,362.9464677252304C336.1839351966614,363.0798010585637,336.7172685299947,363.3020232807859,337.8283796411058,363.613134391897C338.7617129744391,363.613134391897,340.89504630777253,364.013134391897,339.20615741888355,364.59091216967477C338.8061574188836,365.21313439189703,337.6950463077725,364.8575788363414,336.7172685299947,364.8575788363414C335.5172685299947,364.63535661411925,333.4728240855503,363.613134391897,333.4728240855503,362.1909121696748C333.4728240855503,362.1909121696748,333.4728240855503,362.1909121696748,333.4728240855503,362.1909121696748M338.7617129744391,360.1909121696748C337.78393519666133,360.27980105856363,335.73949075221697,360.41313439189696,335.8728240855503,361.34646772523035C336.9394907522169,361.2575788363415,338.8061574188836,361.5686899474525,339.38393519666135,361.0798010585637C339.1617129744392,360.5020232807859,339.3394907522169,360.5020232807859,338.7617129744391,360.1909121696748C338.7617129744391,360.1909121696748,338.7617129744391,360.1909121696748,338.7617129744391,360.1909121696748" stroke="none" fill="#000000" style=""></path><path stroke-width="2" d="M308.5866326452667,61.09238981701435C319.64890986137857,258.99326747328246,297.52435542915487,285.43462749487594,308.5866326452667,337.649320219811" stroke="#000000" fill="none" style=""></path><path stroke-width="2" d="M371.01204433141845,20C379.049185554807,17.421505240569623,437.04194073289233,22.578494759430377,435.4744133171779,20C437.11810890985845,48.11997524629612,433.83071772449733,38.690136509059954,435.4744133171779,61.09238981701434C411.05498953225356,63.67088457644472,374.4704644477004,58.513895057583966,371.01204433141845,61.09238981701434C369.3683487387379,24.72075015763231,372.655739924099,54.51551742754458,371.01204433141845,20" stroke="#000000" fill="#ffffff" style=""></path><rect style="" stroke="none" fill="#ffffff" ry="0" rx="0" r="0" height="14.361520167041554" width="44.46236898575938" y="33.3654348249864" x="381.0120443314185"></rect><path d="M382.585524428289,37.41584388091684C381.74107998384454,35.815843880916844,384.09663553940015,35.593621658694616,385.38552442828905,35.815843880916844C387.34107998384457,35.3713994364724,391.2966355394001,35.46028832536129,394.0077466505112,35.14917721425017C394.1410799838445,35.23806610313906,395.69663553940006,35.63806610313907,396.3188577616223,35.815843880916844C393.0744133171779,36.66028832536129,388.7188577616223,36.74917721425018,385.38552442828905,37.50473276980573C384.98552442828895,37.99362165869462,384.67441331717794,38.92695499202796,384.49663553940013,40.21584388091684C386.0521910949557,40.70473276980573,390.4077466505113,39.94917721425018,392.62996887273346,40.349177214250176C392.67441331717794,40.61584388091684,392.7188577616223,40.66028832536129,392.7633022060668,40.971399436472396C390.7188577616223,42.038066103139066,387.51885776162237,41.682510547583504,384.185524428289,42.1713994364724C383.51885776162237,42.74917721425018,383.20774665051124,44.482510547583516,383.20774665051124,45.104732769805736C385.87441331717787,45.14917721425017,388.585524428289,44.215843880916836,391.56330220606674,44.215843880916836C392.5410799838446,44.66028832536129,393.91885776162235,43.90473276980573,394.85219109495563,44.438066103139064C395.56330220606674,45.726954992027956,393.8299688727335,45.593621658694616,392.9410799838446,45.86028832536128C389.69663553940006,46.03806610313906,386.7633022060668,46.438066103139064,383.34107998384457,47.060288325361284C383.34107998384457,47.060288325361284,381.02996887273343,46.61584388091684,381.02996887273343,46.61584388091684C380.85219109495563,45.63806610313907,382.0521910949557,43.54917721425018,382.185524428289,42.26028832536129C382.0521910949557,42.26028832536129,381.74107998384454,41.593621658694616,381.6521910949557,41.193621658694624C382.5410799838446,40.66028832536129,383.16330220606676,40.1713994364724,383.20774665051124,38.21584388091684C383.2966355394001,38.1713994364724,383.4299688727334,37.99362165869462,383.4299688727334,37.90473276980573C383.4299688727334,37.726954992027956,382.80774665051126,37.41584388091684,382.585524428289,37.41584388091684C382.585524428289,37.41584388091684,382.585524428289,37.41584388091684,382.585524428289,37.41584388091684M401.9633022060667,41.682510547583504C403.2521910949556,41.3713994364724,403.6077466505112,42.971399436472396,402.49663553940013,43.14917721425017C401.2966355394001,42.971399436472396,400.7188577616223,43.41584388091684,398.98552442828895,44.26028832536129C398.62996887273346,44.438066103139064,398.40774665051117,44.74917721425018,398.27441331717785,45.23806610313906C399.6077466505112,46.66028832536129,402.3188577616223,45.3713994364724,404.2299688727335,45.726954992027956C404.45219109495565,46.30473276980574,403.87441331717787,46.88251054758351,403.2521910949556,46.571399436472404C400.98552442828895,47.682510547583504,397.0744133171779,47.815843880916844,396.585524428289,45.23806610313906C396.85219109495563,43.01584388091685,399.6521910949557,41.593621658694616,401.9633022060667,41.682510547583504C401.9633022060667,41.682510547583504,401.9633022060667,41.682510547583504,401.9633022060667,41.682510547583504M409.34107998384457,33.3713994364724C409.8299688727335,33.28251054758351,409.785524428289,34.21584388091684,409.8299688727335,34.26028832536129C409.34107998384457,36.571399436472404,408.0521910949557,40.1713994364724,407.4744133171779,42.66028832536129C407.20774665051124,43.99362165869462,407.0744133171779,44.30473276980574,407.0744133171779,44.74917721425018C408.27441331717796,44.74917721425018,412.09663553940015,43.23806610313906,413.4299688727335,43.23806610313906C415.2966355394001,43.23806610313906,414.80774665051126,45.32695499202795,415.16330220606676,46.74917721425018C415.16330220606676,46.92695499202796,414.9410799838446,47.50473276980573,414.45219109495565,47.46028832536129C414.62996887273346,47.54917721425018,414.9410799838446,47.593621658694616,414.62996887273346,47.726954992027956C413.56330220606685,47.682510547583504,413.38552442828905,46.21584388091685,413.51885776162237,44.88251054758351C413.4744133171779,44.83806610313907,413.4299688727335,44.74917721425018,413.2966355394001,44.66028832536129C411.02996887273343,44.66028832536129,408.4077466505113,46.349177214250176,406.09663553940015,46.92695499202796C405.6966355394002,46.971399436472396,405.4299688727335,46.26028832536129,405.38552442828905,45.90473276980573C406.14107998384463,41.94917721425018,407.1188577616224,39.63806610313907,408.5410799838446,34.1713994364724C408.5410799838446,33.77139943647239,408.80774665051126,33.32695499202795,409.34107998384457,33.3713994364724C409.34107998384457,33.3713994364724,409.34107998384457,33.3713994364724,409.34107998384457,33.3713994364724M420.85219109495563,40.971399436472396C423.16330220606676,39.90473276980573,425.4744133171779,41.77139943647239,425.4744133171779,43.77139943647239C425.4744133171779,46.39362165869463,422.5410799838445,46.74917721425018,420.40774665051117,47.46028832536129C418.09663553940004,47.3713994364724,415.2966355394001,45.23806610313906,416.85219109495563,42.79362165869462C417.87441331717787,41.99362165869462,419.16330220606676,41.23806610313906,420.85219109495563,40.971399436472396C420.85219109495563,40.971399436472396,420.85219109495563,40.971399436472396,420.85219109495563,40.971399436472396M418.0521910949557,44.482510547583516C418.7633022060668,46.88251054758351,423.6077466505112,45.193621658694624,423.87441331717787,43.46028832536129C423.34107998384457,40.83806610313907,418.1410799838445,43.104732769805736,418.0521910949557,44.482510547583516C418.0521910949557,44.482510547583516,418.0521910949557,44.482510547583516,418.0521910949557,44.482510547583516" stroke="none" fill="#000000" style=""></path><path stroke-width="2" d="M371.01204433141845,337.649320219811C386.97531745496843,335.0708254603806,375.4525473890079,340.2278149792414,435.4744133171779,337.649320219811C437.11810890985845,343.48086490512185,433.83071772449733,352.7939491588347,435.4744133171779,378.74171003682534C399.9669154271988,381.3202047962557,406.23419663423886,376.16321527739495,371.01204433141845,378.74171003682534C372.655739924099,374.73600409239043,369.3683487387379,341.44879585022477,371.01204433141845,337.649320219811" stroke="#000000" fill="#ffffff" style=""></path><rect style="" stroke="none" fill="#ffffff" ry="0" rx="0" r="0" height="14.361520167041533" width="44.46236898575938" y="351.01475504479737" x="381.0120443314185"></rect><path d="M382.585524428289,355.06516410072777C381.74107998384454,353.46516410072786,384.09663553940015,353.2429418785056,385.38552442828905,353.46516410072786C387.34107998384457,353.0207196562834,391.2966355394001,353.10960854517225,394.0077466505112,352.7984974340611C394.1410799838445,352.8873863229501,395.69663553940006,353.28738632295006,396.3188577616223,353.46516410072786C393.0744133171779,354.3096085451723,388.7188577616223,354.39849743406114,385.38552442828905,355.15405298961673C384.98552442828895,355.64294187850555,384.67441331717794,356.57627521183895,384.49663553940013,357.86516410072784C386.0521910949557,358.35405298961666,390.4077466505113,357.5984974340612,392.62996887273346,357.99849743406116C392.67441331717794,358.2651641007278,392.7188577616223,358.3096085451723,392.7633022060668,358.6207196562833C390.7188577616223,359.68738632295003,387.51885776162237,359.33183076739454,384.185524428289,359.82071965628336C383.51885776162237,360.39849743406114,383.20774665051124,362.1318307673945,383.20774665051124,362.75405298961675C385.87441331717787,362.7984974340611,388.585524428289,361.86516410072784,391.56330220606674,361.86516410072784C392.5410799838446,362.3096085451723,393.91885776162235,361.5540529896167,394.85219109495563,362.08738632295C395.56330220606674,363.3762752118389,393.8299688727335,363.2429418785056,392.9410799838446,363.5096085451722C389.69663553940006,363.68738632295003,386.7633022060668,364.08738632295,383.34107998384457,364.7096085451723C383.34107998384457,364.7096085451723,381.02996887273343,364.2651641007278,381.02996887273343,364.2651641007278C380.85219109495563,363.28738632295006,382.0521910949557,361.1984974340611,382.185524428289,359.9096085451722C382.0521910949557,359.9096085451722,381.74107998384454,359.2429418785056,381.6521910949557,358.8429418785056C382.5410799838446,358.3096085451723,383.16330220606676,357.82071965628336,383.20774665051124,355.86516410072784C383.2966355394001,355.82071965628336,383.4299688727334,355.64294187850555,383.4299688727334,355.5540529896167C383.4299688727334,355.3762752118389,382.80774665051126,355.06516410072777,382.585524428289,355.06516410072777C382.585524428289,355.06516410072777,382.585524428289,355.06516410072777,382.585524428289,355.06516410072777M401.9633022060667,359.33183076739454C403.2521910949556,359.0207196562834,403.6077466505112,360.6207196562833,402.49663553940013,360.7984974340611C401.2966355394001,360.6207196562833,400.7188577616223,361.06516410072777,398.98552442828895,361.9096085451722C398.62996887273346,362.08738632295,398.40774665051117,362.39849743406114,398.27441331717785,362.8873863229501C399.6077466505112,364.3096085451723,402.3188577616223,363.0207196562834,404.2299688727335,363.3762752118389C404.45219109495565,363.9540529896167,403.87441331717787,364.53183076739447,403.2521910949556,364.22071965628334C400.98552442828895,365.33183076739454,397.0744133171779,365.46516410072786,396.585524428289,362.8873863229501C396.85219109495563,360.6651641007278,399.6521910949557,359.2429418785056,401.9633022060667,359.33183076739454C401.9633022060667,359.33183076739454,401.9633022060667,359.33183076739454,401.9633022060667,359.33183076739454M409.34107998384457,351.0207196562834C409.8299688727335,350.93183076739444,409.785524428289,351.86516410072784,409.8299688727335,351.9096085451722C409.34107998384457,354.22071965628334,408.0521910949557,357.82071965628336,407.4744133171779,360.3096085451723C407.20774665051124,361.64294187850555,407.0744133171779,361.9540529896167,407.0744133171779,362.39849743406114C408.27441331717796,362.39849743406114,412.09663553940015,360.8873863229501,413.4299688727335,360.8873863229501C415.2966355394001,360.8873863229501,414.80774665051126,362.9762752118389,415.16330220606676,364.39849743406114C415.16330220606676,364.57627521183895,414.9410799838446,365.15405298961673,414.45219109495565,365.10960854517225C414.62996887273346,365.1984974340611,414.9410799838446,365.2429418785056,414.62996887273346,365.3762752118389C413.56330220606685,365.33183076739454,413.38552442828905,363.86516410072784,413.51885776162237,362.53183076739447C413.4744133171779,362.48738632295,413.4299688727335,362.39849743406114,413.2966355394001,362.3096085451723C411.02996887273343,362.3096085451723,408.4077466505113,363.99849743406116,406.09663553940015,364.57627521183895C405.6966355394002,364.6207196562833,405.4299688727335,363.9096085451722,405.38552442828905,363.5540529896167C406.14107998384463,359.5984974340612,407.1188577616224,357.28738632295006,408.5410799838446,351.82071965628336C408.5410799838446,351.4207196562834,408.80774665051126,350.9762752118389,409.34107998384457,351.0207196562834C409.34107998384457,351.0207196562834,409.34107998384457,351.0207196562834,409.34107998384457,351.0207196562834M420.85219109495563,358.6207196562833C423.16330220606676,357.5540529896167,425.4744133171779,359.4207196562834,425.4744133171779,361.4207196562834C425.4744133171779,364.04294187850564,422.5410799838445,364.39849743406114,420.40774665051117,365.10960854517225C418.09663553940004,365.0207196562834,415.2966355394001,362.8873863229501,416.85219109495563,360.4429418785056C417.87441331717787,359.64294187850555,419.16330220606676,358.8873863229501,420.85219109495563,358.6207196562833C420.85219109495563,358.6207196562833,420.85219109495563,358.6207196562833,420.85219109495563,358.6207196562833M418.0521910949557,362.1318307673945C418.7633022060668,364.53183076739447,423.6077466505112,362.8429418785056,423.87441331717787,361.10960854517225C423.34107998384457,358.48738632295,418.1410799838445,360.75405298961675,418.0521910949557,362.1318307673945C418.0521910949557,362.1318307673945,418.0521910949557,362.1318307673945,418.0521910949557,362.1318307673945" stroke="none" fill="#000000" style=""></path><path stroke-width="2" d="M403.24322882429817,61.09238981701435C392.1809516081863,109.57304235680374,414.30550604041,294.09036401167975,403.24322882429817,337.649320219811" stroke="#000000" fill="none" style=""></path><rect style="" stroke="none" fill="#ffffff" ry="0" rx="0" r="0" height="11.008049653975363" width="2.319838582811798" y="80.58836499002666" x="193.07282585611298"></rect><path d="M193.65933110559143,82.54583998821278C193.65933110559143,81.92361776599054,193.92599777225809,79.92361776599054,194.94821999448033,80.81250665487946C195.08155332781365,80.99028443265723,195.21488666114698,81.39028443265721,195.39266443892478,81.87917332154612C195.39266443892478,81.87917332154612,194.41488666114697,87.56806221043499,194.41488666114697,87.56806221043499C194.41488666114697,87.56806221043499,194.77044221670252,91.43472887710166,194.77044221670252,91.43472887710166C194.59266443892477,91.70139554376834,194.37044221670254,91.56806221043499,194.0593311055914,91.52361776599056C192.1037755500359,89.83472887710167,193.65933110559143,85.43472887710166,193.65933110559143,82.54583998821278C193.65933110559143,82.54583998821278,193.65933110559143,82.54583998821278,193.65933110559143,82.54583998821278" stroke="none" fill="#000000" style=""></path><path stroke-dasharray="0" marker-end="url(#raphael-marker-endblock55)" stroke-width="2" d="M308.5866326452667,92.1004394709897C167.93490276074388,83.14923258389791,158.63928345605592,100.47307408675395,84.84929401068993,92.65408058853566" stroke="#000000" fill="none" style=""></path><rect style="" stroke="none" fill="#ffffff" ry="0" rx="0" r="0" height="12.320385405408231" width="11.00255781179375" y="110.94024676828558" x="47.47628539681539"></rect><path d="M51.01217654194247,121.88285439591603C53.10106543083136,121.43840995147158,56.301065430831365,120.81618772924936,58.47884320860914,121.48285439591604C58.47884320860914,122.01618772924937,57.456620986386916,122.0606321736938,56.923287653053585,122.19396550702714C56.967732097498036,122.23840995147158,57.05662098638691,122.23840995147158,57.14550987527581,122.23840995147158C53.856620986386915,122.59396550702714,51.90106543083136,123.2606321736938,48.523287653053586,123.2606321736938C47.90106543083136,123.2606321736938,47.63439876416469,122.68285439591602,47.58995431972025,122.01618772924937C50.0343987641647,120.23840995147158,51.27884320860914,119.30507661813824,53.05662098638692,117.39396550702713C54.212176541942476,116.81618772924936,55.94550987527581,114.41618772924936,56.212176541942476,112.8606321736938C56.167732097498025,112.46063217369381,55.72328765305358,112.14952106258269,55.23439876416469,112.14952106258269C54.3455098752758,112.10507661813826,49.90106543083136,113.43840995147158,48.301065430831365,114.32729884036047C47.856620986386915,114.23840995147158,46.96773209749803,113.43840995147158,47.856620986386915,113.08285439591603C50.078843208609136,112.14952106258269,52.78995431972025,110.81618772924936,55.76773209749803,110.94952106258269C56.87884320860913,111.39396550702713,57.72328765305358,111.92729884036048,57.36773209749803,112.68285439591602C57.90106543083136,114.01618772924937,56.52328765305358,115.52729884036047,55.85662098638692,116.37174328480492C54.12328765305359,118.50507661813825,54.212176541942476,118.10507661813826,50.74550987527581,121.21618772924936C50.74550987527581,121.43840995147158,50.612176541942475,121.57174328480492,50.38995431972025,121.70507661813825C50.56773209749803,121.83840995147159,50.74550987527581,121.88285439591603,51.01217654194247,121.88285439591603C51.01217654194247,121.88285439591603,51.01217654194247,121.88285439591603,51.01217654194247,121.88285439591603" stroke="none" fill="#000000" style=""></path><path stroke-dasharray="0" marker-end="url(#raphael-marker-endblock55)" stroke-width="2" d="M79.87885764977104,124.42082487639792C74.93552602599446,126.29866125183518,45.002052385889996,123.26093082614004,31.042801769823193,123.88587371027305" stroke="#000000" fill="none" style=""></path><rect style="" stroke="none" fill="#ffffff" ry="0" rx="0" r="0" height="12.629355281207097" width="10.923649526129623" y="143.10614723579437" x="102.30809153754709"></rect><path d="M110.39770617419106,143.24661362811258C111.90881728530218,142.80216918366813,113.68659506307995,144.35772473922373,112.48659506307995,145.51328029477924C111.6421506186355,146.9355025170015,110.0421506186355,147.73550251700146,108.39770617419106,148.62439140589038C109.6421506186355,149.24661362811258,113.55326172974661,149.73550251700146,113.19770617419105,151.73550251700146C113.55326172974661,152.35772473922373,111.01992839641328,153.51328029477924,110.39770617419106,153.86883585033485C109.10881728530217,154.26883585033482,104.61992839641329,154.8466136281126,102.93103950752439,155.73550251700146C102.66437284085772,155.51328029477924,102.08659506307995,155.4243914058904,102.39770617419106,154.7577247392237C104.88659506307995,153.15772473922368,110.17548395196883,153.82439140589037,111.7310395075244,151.3799469614459C111.3310395075244,150.49105807255705,107.81992839641327,149.51328029477924,107.41992839641328,149.91328029477927C106.5310395075244,149.86883585033485,105.59770617419106,150.00216918366817,104.93103950752439,149.60216918366814C104.93103950752439,149.60216918366814,105.15326172974662,148.6688358503348,105.15326172974662,148.6688358503348C107.6421506186355,147.55772473922372,109.73103950752439,147.06883585033484,111.2421506186355,145.20216918366816C111.28659506307994,145.15772473922368,111.3310395075244,144.97994696144593,111.41992839641328,144.71328029477928C110.75326172974661,144.09105807255702,108.93103950752439,145.02439140589036,107.90881728530218,144.71328029477928C107.46437284085772,145.11328029477926,104.66437284085772,145.69105807255704,103.81992839641327,146.09105807255702C103.3310395075244,145.91328029477927,102.57548395196883,145.06883585033484,103.2421506186355,144.7577247392237C105.46437284085772,143.77994696144594,107.50881728530217,143.60216918366814,110.08659506307995,143.11328029477926C110.08659506307995,143.06883585033484,110.44215061863551,143.24661362811258,110.39770617419106,143.24661362811258C110.39770617419106,143.24661362811258,110.39770617419106,143.24661362811258,110.39770617419106,143.24661362811258" stroke="none" fill="#000000" style=""></path><path stroke-dasharray="0" marker-end="url(#raphael-marker-endblock55)" stroke-width="2" d="M79.87885764977104,157.05018015760504C123.09156657880507,159.08208736009797,116.10801867567912,155.56295901671788,130.68076403628953,156.60283545271201" stroke="#000000" fill="none" style=""></path><rect style="" stroke="none" fill="#ffffff" ry="0" rx="0" r="0" height="13.155555555555566" width="12.046107955009035" y="175.47240237982726" x="111.98458086876857"></rect><path d="M115.14179993488871,177.6946246020495C114.8306888237776,178.45018015760505,113.85291104599983,181.02795793538283,113.67513326822205,181.96129126871614C113.67513326822205,182.22795793538282,113.80846660155538,182.3168468242717,114.03068882377761,182.3168468242717C115.94179993488872,182.22795793538282,118.96402215711095,182.58351349093837,120.29735549044426,182.05018015760504C121.05291104599982,179.96129126871614,121.18624437933315,177.60573571316058,123.09735549044427,175.47240237982726C123.49735549044428,175.65018015760504,123.80846660155538,175.78351349093836,124.03068882377761,175.91684682427172C123.27513326822205,177.29462460204948,122.07513326822206,180.13906904649392,121.76402215711093,182.18351349093837C122.07513326822206,182.36129126871614,122.83068882377759,182.0057357131606,122.78624437933317,182.62795793538282C122.74179993488872,183.33906904649393,121.49735549044428,183.16129126871616,121.40846660155538,183.65018015760504C120.96402215711095,184.62795793538282,121.00846660155537,186.7168468242717,121.09735549044427,188.22795793538282C120.96402215711095,188.3168468242717,120.78624437933317,188.45018015760505,120.65291104599982,188.62795793538282C118.56402215711094,188.13906904649392,119.6306888237776,185.33906904649393,119.9417999348887,183.56129126871616C119.9417999348887,183.38351349093838,119.85291104599983,183.29462460204948,119.6306888237776,183.29462460204948C116.74179993488872,183.38351349093838,115.67513326822205,183.87240237982726,112.4306888237776,183.47240237982726C111.45291104599983,182.49462460204947,112.34179993488871,181.1168468242717,112.65291104599983,180.0946246020495C113.36402215711094,179.4279579353828,113.40846660155538,177.56129126871616,114.20846660155539,176.98351349093838C114.47513326822205,176.93906904649393,115.14179993488871,177.47240237982726,115.14179993488871,177.6946246020495C115.14179993488871,177.6946246020495,115.14179993488871,177.6946246020495,115.14179993488871,177.6946246020495" stroke="none" fill="#000000" style=""></path><path stroke-dasharray="0" marker-end="url(#raphael-marker-endblock55)" stroke-width="2" d="M26.076270955653502,190.2057357131606C88.3967937391846,197.36004273312494,145.8924462808732,183.63568545544678,204.97512124341534,189.6532878517846" stroke="#000000" fill="none" style=""></path><rect style="" stroke="none" fill="#ffffff" ry="0" rx="0" r="0" height="12.270509348886634" width="11.945084069764278" y="209.07048103871728" x="263.47955985299336"></rect><path d="M271.4784559337969,209.2021127114454C272.8117892671303,209.5132238225565,273.4784559337969,208.84655715588983,273.8340114893525,210.0021127114454C273.8784559337969,210.7132238225565,273.07845593379693,210.8021127114454,272.32290037824134,210.62433493366763C272.32290037824134,210.62433493366763,268.10067815601917,210.13544604477872,266.589567044908,210.66877937811205C266.32290037824134,211.06877937811205,265.5229003782414,212.13544604477872,265.3006781560191,213.06877937811205C268.67845593379695,213.5132238225565,272.9006781560191,213.29100160033428,274.8117892671303,215.15766826700096C275.3006781560191,215.64655715588984,275.78956704490804,216.49100160033427,275.03401148935245,217.46877937811206C274.4117892671303,218.0021127114454,273.7006781560192,218.0910016003343,273.5229003782414,218.66877937811205C272.3673448226858,219.15766826700096,267.25623371157474,221.46877937811206,266.5451226004636,221.33544604477873C265.8340114893525,221.24655715588983,265.43401148935254,220.49100160033427,266.3673448226858,220.13544604477872C268.50067815601915,219.33544604477873,272.0562337115747,218.4021127114454,273.92290037824137,216.3132238225565C274.10067815601917,215.6910016003343,271.03401148935245,214.49100160033427,270.14512260046365,214.49100160033427C270.14512260046365,214.49100160033427,266.0562337115747,214.49100160033427,266.0562337115747,214.49100160033427C265.61178926713023,214.3132238225565,263.1229003782414,214.44655715588985,263.5229003782414,213.46877937811206C263.5229003782414,212.44655715588985,264.5451226004636,211.2021127114454,265.07845593379693,209.77989048922316C265.56734482268587,208.53544604477872,270.9895670449081,209.33544604477873,271.4784559337969,209.2021127114454C271.4784559337969,209.2021127114454,271.4784559337969,209.2021127114454,271.4784559337969,209.2021127114454" stroke="none" fill="#000000" style=""></path><path stroke-dasharray="0" marker-end="url(#raphael-marker-endblock55)" stroke-width="2" d="M135.66097495145277,222.4762450620472C214.84877535443573,211.84775512214424,163.8257507198639,232.88190258652315,398.2512153855779,222.69596293748813" stroke="#000000" fill="none" style=""></path><rect style="" stroke="none" fill="#ffffff" ry="0" rx="0" r="0" height="12.29088448128175" width="13.076460280327069" y="241.33080282140634" x="262.91387174771194"></rect><path d="M265.590332028039,250.70858059918413C265.990332028039,248.44191393251745,268.390332028039,247.41969171029524,271.05699869470567,247.55302504362857C272.96810980581677,247.64191393251744,275.9014431391501,247.6863583769619,275.990332028039,249.3752472658508C275.990332028039,249.3752472658508,274.87922091692786,251.46413615473966,274.87922091692786,251.46413615473966C274.87922091692786,251.5085805991841,274.92366536137234,251.55302504362857,274.96810980581677,251.59746948807302C274.74588758359454,251.59746948807302,273.2347764724834,252.04191393251745,273.1458875835946,252.4863583769619C272.4792209169279,252.61969171029523,272.16810980581675,252.66413615473968,272.16810980581675,252.97524726585078C270.43477647248346,253.01969171029523,268.74588758359454,253.86413615473967,266.87922091692786,253.55302504362857C265.01255425026125,253.24191393251746,265.3236653613723,253.15302504362856,263.45699869470565,251.5085805991841C260.96810980581677,246.26413615473967,267.63477647248345,242.57524726585078,271.2792209169279,241.33080282140634C271.590332028039,241.33080282140634,272.21255425026123,241.6863583769619,272.16810980581675,241.99746948807302C272.0792209169279,242.75302504362855,271.1458875835946,242.66413615473968,270.25699869470566,243.06413615473969C267.190332028039,244.44191393251745,264.96810980581677,246.26413615473967,264.3014431391501,249.5085805991841C264.0792209169279,250.61969171029523,265.9014431391501,252.53080282140635,267.7681098058168,252.35302504362858C270.390332028039,252.0863583769619,273.45699869470565,251.55302504362857,274.5681098058168,249.64191393251744C274.25699869470566,249.01969171029523,273.990332028039,249.24191393251746,273.1458875835946,248.70858059918413C270.16810980581675,248.04191393251745,267.9014431391501,248.4863583769619,266.4792209169279,250.61969171029523C266.4792209169279,250.61969171029523,266.4792209169279,251.15302504362856,266.4792209169279,251.15302504362856C265.9014431391501,251.33080282140634,265.72366536137235,251.01969171029523,265.590332028039,250.70858059918413C265.590332028039,250.70858059918413,265.590332028039,250.70858059918413,265.590332028039,250.70858059918413" stroke="none" fill="#000000" style=""></path><path stroke-dasharray="0" marker-end="url(#raphael-marker-endblock55)" stroke-width="2" d="M403.24322882429817,254.76712954332896C297.9542058726415,244.42706139318395,189.16615491240316,264.05451009127415,140.55791388959548,255.74837008659043" stroke="#000000" fill="none" style=""></path><rect style="" stroke="none" fill="#ffffff" ry="0" rx="0" r="0" height="10.978795904750712" width="10.11911257763063" y="274.2777315909536" x="102.71036001179658"></rect><path d="M103.86591556735212,275.12319416237096C105.33258223401879,274.5009719401488,111.55480445624102,274.3676386068154,111.91036001179657,274.27874971792653C113.15480445624101,274.23430527348205,112.97702667846323,275.65652749570427,112.31036001179658,276.27874971792653C111.55480445624102,276.94541638459316,110.31036001179658,278.45652749570434,109.68813778957434,279.34541638459325C108.93258223401878,280.5009719401488,107.24369334512991,282.323194162371,106.97702667846323,284.3676386068154C106.5325822340188,284.94541638459316,106.57702667846323,284.98986082903764,106.35480445624103,285.2565274957043C104.88813778957436,284.6787497179265,105.46591556735211,284.1454163845932,105.86591556735212,282.9009719401488C106.57702667846323,280.76763860681547,109.11036001179656,277.7898608290377,110.71036001179658,275.9676386068154C110.79924890068546,275.65652749570427,110.93258223401878,275.34541638459325,110.26591556735212,275.4343052734821C109.11036001179656,275.6120830512599,107.86591556735212,275.70097194014875,106.88813778957436,276.0120830512599C105.86591556735212,275.7898608290377,103.19924890068546,277.3898608290376,102.71036001179658,275.6120830512599C102.79924890068546,275.2565274957043,103.51036001179656,274.76763860681547,103.86591556735212,275.12319416237096C103.86591556735212,275.12319416237096,103.86591556735212,275.12319416237096,103.86591556735212,275.12319416237096" stroke="none" fill="#000000" style=""></path><path stroke-dasharray="0" marker-end="url(#raphael-marker-endblock55)" stroke-width="2" d="M135.66097495145277,285.7459254480797C107.55088729217725,287.7843696174439,101.34971042208198,284.2360036683309,84.86169180009685,285.3087589793255" stroke="#000000" fill="none" style=""></path><rect style="" stroke="none" fill="#ffffff" ry="0" rx="0" r="0" height="11.903394771731314" width="12.053574940788849" y="304.7942280622141" x="188.20595767712445"></rect><path d="M190.2948465660133,306.53866586019274C192.07262434379106,304.31644363797056,197.67262434379109,304.2719991935261,199.76151323268,306.0942214157483C200.73929101045775,307.3386658601928,200.20595767712445,308.89422141574835,198.78373545490217,309.560888082415C198.78373545490217,309.560888082415,197.22817989934663,310.31644363797056,197.22817989934663,310.31644363797056C197.58373545490218,310.53866586019274,199.62817989934666,311.38311030463717,199.58373545490218,312.2719991935261C199.36151323267995,312.89422141574835,199.40595767712443,313.7386658601928,198.78373545490217,314.13866586019276C198.20595767712445,314.71644363797054,197.22817989934663,314.9386658601927,196.82817989934665,315.6497769713038C194.16151323267997,316.84977697130387,188.3837354549022,317.8275547490816,188.20595767712445,313.78311030463715C188.51706878823552,311.96088808241495,188.96151323267998,311.38311030463717,190.82817989934665,310.67199919352606C190.82817989934665,310.67199919352606,190.82817989934665,310.49422141574826,190.82817989934665,310.49422141574826C189.40595767712443,310.0942214157483,187.58373545490218,307.7386658601928,189.67262434379109,306.71644363797054C189.8504021215689,306.71644363797054,190.02817989934664,306.6275547490817,190.2948465660133,306.53866586019274C190.2948465660133,306.53866586019274,190.2948465660133,306.53866586019274,190.2948465660133,306.53866586019274M194.07262434379106,309.9164436379706C195.13929101045773,309.8275547490816,201.1837354549022,308.53866586019274,198.4726243437911,306.71644363797054C197.22817989934663,305.9164436379706,193.67262434379109,305.24977697130385,191.98373545490222,306.49422141574826C191.2726243437911,307.0275547490817,190.73929101045775,307.8275547490816,190.51706878823552,309.1164436379705C191.58373545490218,309.6497769713038,192.16151323267997,310.00533252685943,194.07262434379106,309.9164436379706C194.07262434379106,309.9164436379706,194.07262434379106,309.9164436379706,194.07262434379106,309.9164436379706M189.58373545490218,314.2719991935261C190.91706878823555,317.160888082415,197.98373545490222,314.53866586019274,198.42817989934662,312.6275547490817C198.56151323268,312.00533252685943,195.76151323268,311.2942214157483,195.13929101045773,311.2942214157483C192.02817989934664,311.2942214157483,189.8948465660133,311.7386658601928,189.58373545490218,314.2719991935261C189.58373545490218,314.2719991935261,189.58373545490218,314.2719991935261,189.58373545490218,314.2719991935261" stroke="none" fill="#000000" style=""></path><path stroke-dasharray="0" marker-end="url(#raphael-marker-endblock55)" stroke-width="2" d="M79.87885764977104,317.649320219811C305.10988012401924,326.69377466164946,162.06365083380177,308.9128983450224,303.5974186484474,317.348281556261" stroke="#000000" fill="none" style=""></path></svg>